NotoSerifTamilSlanted-CondensedExtraLight.ufo
<glyph name="exclam" format="2">
  <advance width="235.86363636363637"/>
  <unicode hex="0021"/>
  <outline>
    <contour>
      <point x="78.52121212121213" y="174.95454545454547" type="line"/>
      <point x="107.69696969696972" y="174.95454545454547" type="line"/>
      <point x="232.17575757575756" y="714.0" type="line"/>
      <point x="185.41818181818184" y="714.0" type="line"/>
    </contour>
    <contour>
      <point x="60.94848484848484" y="-7.133333333333333" type="curve" smooth="yes"/>
      <point x="80.68787878787879" y="-7.133333333333333"/>
      <point x="99.88787878787879" y="10.654545454545454"/>
      <point x="99.88787878787879" y="47.91818181818182" type="curve" smooth="yes"/>
      <point x="99.88787878787879" y="72.2"/>
      <point x="86.63939393939394" y="83.08484848484846"/>
      <point x="69.29090909090911" y="83.08484848484846" type="curve" smooth="yes"/>
      <point x="46.63939393939394" y="83.08484848484846"/>
      <point x="28.62727272727273" y="62.08787878787879"/>
      <point x="28.62727272727273" y="29.184848484848484" type="curve" smooth="yes"/>
      <point x="28.62727272727273" y="4.6030303030303035"/>
      <point x="41.0878787878788" y="-7.133333333333333"/>
    </contour>
  </outline>
</glyph>
<glyph name="quotedbl" format="2">
  <advance width="272.49090909090904"/>
  <unicode hex="0022"/>
  <outline>
    <contour>
      <point x="100.44242424242424" y="495.3515151515152" type="line"/>
      <point x="125.21515151515152" y="495.3515151515152" type="line"/>
      <point x="182.5151515151515" y="714.0" type="line"/>
      <point x="137.87878787878788" y="714.0" type="line"/>
    </contour>
    <contour>
      <point x="230.8242424242424" y="495.3515151515152" type="line"/>
      <point x="255.5969696969697" y="495.3515151515152" type="line"/>
      <point x="312.8969696969697" y="714.0" type="line"/>
      <point x="268.4090909090909" y="714.0" type="line"/>
    </contour>
  </outline>
</glyph>
<glyph name="numbersign" format="2">
  <advance width="476.73939393939395"/>
  <unicode hex="0023"/>
  <outline>
    <contour>
      <point x="51.32121212121212" y="0.0" type="line"/>
      <point x="84.77272727272728" y="0.0" type="line"/>
      <point x="145.06060606060606" y="215.6060606060606" type="line"/>
      <point x="288.56969696969696" y="215.6060606060606" type="line"/>
      <point x="228.43030303030304" y="0.0" type="line"/>
      <point x="261.73333333333335" y="0.0" type="line"/>
      <point x="321.8727272727273" y="215.6060606060606" type="line"/>
      <point x="418.6757575757576" y="215.6060606060606" type="line"/>
      <point x="424.2484848484848" y="247.8181818181818" type="line"/>
      <point x="331.4181818181818" y="247.8181818181818" type="line"/>
      <point x="395.8606060606061" y="477.8454545454545" type="line"/>
      <point x="489.29090909090917" y="477.8454545454545" type="line"/>
      <point x="494.2484848484848" y="509.90909090909093" type="line"/>
      <point x="405.2181818181818" y="509.90909090909093" type="line"/>
      <point x="462.5454545454546" y="714.0" type="line"/>
      <point x="429.09393939393937" y="714.0" type="line"/>
      <point x="371.76666666666665" y="509.90909090909093" type="line"/>
      <point x="228.25757575757575" y="509.90909090909093" type="line"/>
      <point x="285.58484848484846" y="714.0" type="line"/>
      <point x="252.06969696969696" y="714.0" type="line"/>
      <point x="194.95454545454547" y="509.90909090909093" type="line"/>
      <point x="96.14848484848484" y="509.90909090909093" type="line"/>
      <point x="91.33939393939394" y="477.8454545454545" type="line"/>
      <point x="185.59696969696972" y="477.8454545454545" type="line"/>
      <point x="120.94242424242422" y="247.8181818181818" type="line"/>
      <point x="26.084848484848486" y="247.8181818181818" type="line"/>
      <point x="20.512121212121215" y="215.6060606060606" type="line"/>
      <point x="111.75757575757576" y="215.6060606060606" type="line"/>
    </contour>
    <contour>
      <point x="154.3090909090909" y="247.8181818181818" type="line"/>
      <point x="218.9" y="477.8454545454545" type="line"/>
      <point x="362.40909090909093" y="477.8454545454545" type="line"/>
      <point x="297.9666666666667" y="247.8181818181818" type="line"/>
    </contour>
  </outline>
</glyph>
<glyph name="percent" format="2">
  <advance width="745.7121212121212"/>
  <unicode hex="0025"/>
  <outline>
    <contour>
      <point x="143.2939393939394" y="0.0" type="line"/>
      <point x="180.22424242424242" y="0.0" type="line"/>
      <point x="630.7212121212121" y="714.0" type="line"/>
      <point x="594.639393939394" y="714.0" type="line"/>
    </contour>
    <contour>
      <point x="171.26666666666665" y="282.57575757575756" type="curve" smooth="yes"/>
      <point x="286.90303030303033" y="282.57575757575756"/>
      <point x="340.3484848484848" y="457.77272727272725"/>
      <point x="340.3484848484848" y="571.6030303030303" type="curve" smooth="yes"/>
      <point x="340.3484848484848" y="662.4909090909091"/>
      <point x="307.83030303030307" y="721.4242424242424"/>
      <point x="240.87575757575755" y="721.4242424242424" type="curve" smooth="yes"/>
      <point x="126.67272727272729" y="721.4242424242424"/>
      <point x="71.22424242424243" y="547.7121212121211"/>
      <point x="71.22424242424243" y="432.00303030303024" type="curve"/>
      <point x="71.22424242424243" y="333.61212121212117"/>
      <point x="108.4121212121212" y="282.57575757575756"/>
    </contour>
    <contour>
      <point x="173.66363636363636" y="310.5848484848485" type="curve" smooth="yes"/>
      <point x="129.60606060606062" y="310.5848484848485"/>
      <point x="108.32121212121213" y="348.4818181818182"/>
      <point x="108.32121212121213" y="428.07878787878786" type="curve" smooth="yes"/>
      <point x="108.32121212121213" y="523.9818181818182"/>
      <point x="152.35454545454547" y="693.6272727272727"/>
      <point x="238.77575757575758" y="693.6272727272727" type="curve" smooth="yes"/>
      <point x="280.94242424242424" y="693.6272727272727"/>
      <point x="302.7" y="652.2545454545455"/>
      <point x="302.7" y="575.739393939394" type="curve" smooth="yes"/>
      <point x="302.7" y="480.230303030303"/>
      <point x="258.27272727272725" y="310.5848484848485"/>
    </contour>
    <contour>
      <point x="536.769696969697" y="-6.424242424242424" type="curve" smooth="yes"/>
      <point x="653.0363636363637" y="-6.424242424242424"/>
      <point x="705.2303030303032" y="168.92121212121214"/>
      <point x="705.2303030303032" y="282.6030303030303" type="curve" smooth="yes"/>
      <point x="705.2303030303032" y="373.49090909090904"/>
      <point x="672.7121212121211" y="432.42424242424244"/>
      <point x="605.7575757575756" y="432.42424242424244" type="curve" smooth="yes"/>
      <point x="491.55454545454546" y="432.42424242424244"/>
      <point x="436.2545454545455" y="258.71212121212125"/>
      <point x="436.2545454545455" y="143.0030303030303" type="curve"/>
      <point x="436.2545454545455" y="44.21818181818182"/>
      <point x="474.6242424242425" y="-6.424242424242424"/>
    </contour>
    <contour>
      <point x="539.1666666666666" y="21.584848484848482" type="curve" smooth="yes"/>
      <point x="494.4878787878788" y="21.584848484848482"/>
      <point x="473.20303030303035" y="59.481818181818184"/>
      <point x="473.20303030303035" y="139.3757575757576" type="curve" smooth="yes"/>
      <point x="473.20303030303035" y="234.98181818181817"/>
      <point x="516.2030303030303" y="404.62727272727267"/>
      <point x="603.6575757575758" y="404.62727272727267" type="curve" smooth="yes"/>
      <point x="645.9727272727273" y="404.62727272727267"/>
      <point x="667.730303030303" y="363.10606060606057"/>
      <point x="667.730303030303" y="286.73939393939395" type="curve" smooth="yes"/>
      <point x="667.730303030303" y="191.23030303030305"/>
      <point x="624.4060606060606" y="21.584848484848482"/>
    </contour>
  </outline>
</glyph>
<glyph name="quotesingle" format="2">
  <advance width="138.21212121212122"/>
  <unicode hex="0027"/>
  <outline>
    <contour>
      <point x="102.77878787878788" y="519.7757575757574" type="line"/>
      <point x="127.55151515151515" y="519.7757575757574" type="line"/>
      <point x="179.03939393939396" y="714.0" type="line"/>
      <point x="134.55151515151516" y="714.0" type="line"/>
    </contour>
  </outline>
</glyph>
<glyph name="parenleft" format="2">
  <advance width="252.13939393939393"/>
  <unicode hex="0028"/>
  <outline>
    <contour>
      <point x="139.93636363636364" y="-119.57878787878788" type="curve"/>
      <point x="146.38181818181818" y="-91.52424242424243" type="line"/>
      <point x="101.39393939393939" y="-47.521212121212116"/>
      <point x="73.83939393939394" y="55.609090909090924"/>
      <point x="73.83939393939394" y="158.93333333333334" type="curve" smooth="yes"/>
      <point x="73.83939393939394" y="315.9151515151515"/>
      <point x="130.2060606060606" y="573.2424242424241"/>
      <point x="318.45454545454544" y="714.9909090909091" type="curve"/>
      <point x="324.60303030303027" y="743.7878787878788" type="line"/>
      <point x="113.97575757575758" y="622.0818181818181"/>
      <point x="32.87878787878788" y="373.7272727272727"/>
      <point x="32.87878787878788" y="166.35454545454547" type="curve" smooth="yes"/>
      <point x="32.87878787878788" y="38.36363636363637"/>
      <point x="69.2121212121212" y="-64.5969696969697"/>
    </contour>
  </outline>
</glyph>
<glyph name="parenright" format="2">
  <advance width="252.13939393939393"/>
  <unicode hex="0029"/>
  <outline>
    <contour>
      <point x="-60.86363636363637" y="-121.42424242424242" type="line"/>
      <point x="149.9121212121212" y="0.43030303030302264"/>
      <point x="230.71212121212122" y="248.78484848484848"/>
      <point x="230.71212121212122" y="456.1575757575757" type="curve" smooth="yes"/>
      <point x="230.71212121212122" y="584.1484848484849"/>
      <point x="194.6757575757576" y="686.9606060606061"/>
      <point x="123.80303030303031" y="741.9424242424243" type="curve"/>
      <point x="117.5060606060606" y="714.0363636363636" type="line"/>
      <point x="162.34545454545457" y="670.0333333333333"/>
      <point x="189.9" y="566.9030303030303"/>
      <point x="189.9" y="463.5787878787879" type="curve" smooth="yes"/>
      <point x="189.9" y="306.7454545454546"/>
      <point x="133.6818181818182" y="49.41818181818181"/>
      <point x="-54.56666666666666" y="-92.47878787878788" type="curve"/>
    </contour>
  </outline>
</glyph>
<glyph name="asterisk" format="2">
  <advance width="359.6121212121212"/>
  <unicode hex="002A"/>
  <outline>
    <contour>
      <point x="237.83636363636364" y="408.98787878787874" type="line"/>
      <point x="254.9181818181818" y="565.2151515151515" type="line"/>
      <point x="355.8515151515152" y="459.68787878787884" type="line"/>
      <point x="383.5212121212121" y="495.25454545454545" type="line"/>
      <point x="264.1030303030303" y="582.1060606060606" type="line"/>
      <point x="408.6969696969697" y="610.6181818181818" type="line"/>
      <point x="397.5757575757576" y="655.9515151515152" type="line"/>
      <point x="262.76363636363635" y="600.9848484848485" type="line"/>
      <point x="309.9575757575758" y="751.2545454545455" type="line"/>
      <point x="264.6272727272727" y="761.060606060606" type="line"/>
      <point x="246.10606060606062" y="604.709090909091" type="line"/>
      <point x="145.83333333333334" y="712.8787878787879" type="line"/>
      <point x="117.24242424242424" y="675.4787878787878" type="line"/>
      <point x="236.5090909090909" y="588.030303030303" type="line"/>
      <point x="92.2151515151515" y="559.0696969696969" type="line"/>
      <point x="103.8090909090909" y="514.3575757575758" type="line"/>
      <point x="237.9363636363636" y="569.3000000000001" type="line"/>
      <point x="191.8848484848485" y="418.8818181818182" type="line"/>
    </contour>
  </outline>
</glyph>
<glyph name="plus" format="2">
  <advance width="465.2"/>
  <unicode hex="002B"/>
  <outline>
    <contour>
      <point x="225.90606060606063" y="143.0" type="line"/>
      <point x="261.49999999999994" y="143.0" type="line"/>
      <point x="261.49999999999994" y="340.5181818181818" type="line"/>
      <point x="422.7909090909091" y="340.5181818181818" type="line"/>
      <point x="422.7909090909091" y="374.7969696969697" type="line"/>
      <point x="261.49999999999994" y="374.7969696969697" type="line"/>
      <point x="261.49999999999994" y="572.0" type="line"/>
      <point x="225.90606060606063" y="572.0" type="line"/>
      <point x="225.90606060606063" y="374.7969696969697" type="line"/>
      <point x="64.51212121212122" y="374.7969696969697" type="line"/>
      <point x="64.51212121212122" y="340.5181818181818" type="line"/>
      <point x="225.90606060606063" y="340.5181818181818" type="line"/>
    </contour>
  </outline>
</glyph>
<glyph name="comma" format="2">
  <advance width="170.54242424242423"/>
  <unicode hex="002C"/>
  <outline>
    <contour>
      <point x="-42.67272727272727" y="-140.169696969697" type="line"/>
      <point x="51.91818181818182" y="-115.4060606060606"/>
      <point x="78.47272727272727" y="-50.900000000000006"/>
      <point x="78.47272727272727" y="20.981818181818184" type="curve" smooth="yes"/>
      <point x="78.47272727272727" y="60.52424242424242"/>
      <point x="60.993939393939385" y="84.22121212121213"/>
      <point x="37.663636363636364" y="84.22121212121213" type="curve" smooth="yes"/>
      <point x="15.287878787878787" y="84.22121212121213"/>
      <point x="2.063636363636366" y="68.80000000000001"/>
      <point x="2.063636363636366" y="47.13333333333333" type="curve" smooth="yes"/>
      <point x="2.063636363636366" y="12.06060606060606"/>
      <point x="40.45757575757575" y="12.55151515151515"/>
      <point x="40.45757575757575" y="-21.427272727272726" type="curve" smooth="yes"/>
      <point x="40.45757575757575" y="-60.472727272727276"/>
      <point x="15.478787878787882" y="-97.03636363636365"/>
      <point x="-42.78787878787879" y="-115.10000000000001" type="curve"/>
    </contour>
  </outline>
</glyph>
<glyph name="hyphen" format="2">
  <advance width="264.39393939393943"/>
  <unicode hex="002D"/>
  <outline>
    <contour>
      <point x="18.82121212121212" y="253.65454545454546" type="line"/>
      <point x="240.2151515151515" y="253.65454545454546" type="line"/>
      <point x="248.24848484848485" y="289.4545454545455" type="line"/>
      <point x="26.854545454545455" y="289.4545454545455" type="line"/>
    </contour>
  </outline>
</glyph>
<glyph name="period" format="2">
  <advance width="170.54242424242423"/>
  <unicode hex="002E"/>
  <outline>
    <contour>
      <point x="40.69090909090909" y="-6.187878787878788" type="curve" smooth="yes"/>
      <point x="59.95757575757576" y="-6.187878787878788"/>
      <point x="79.77878787878788" y="10.654545454545454"/>
      <point x="79.77878787878788" y="49.118181818181824" type="curve" smooth="yes"/>
      <point x="79.77878787878788" y="73.14545454545454"/>
      <point x="66.38181818181818" y="84.03030303030302"/>
      <point x="49.03333333333333" y="84.03030303030302" type="curve" smooth="yes"/>
      <point x="26.618181818181817" y="84.03030303030302"/>
      <point x="8.369696969696971" y="63.50606060606062"/>
      <point x="8.369696969696971" y="29.875757575757575" type="curve" smooth="yes"/>
      <point x="8.369696969696971" y="5.548484848484849"/>
      <point x="20.830303030303032" y="-6.187878787878788"/>
    </contour>
  </outline>
</glyph>
<glyph name="slash" format="2">
  <advance width="245.89393939393938"/>
  <unicode hex="002F"/>
  <outline>
    <contour>
      <point x="-78.68181818181817" y="-121.0" type="line"/>
      <point x="-44.19090909090909" y="-121.0" type="line"/>
      <point x="329.82727272727277" y="760.0" type="line"/>
      <point x="294.56666666666666" y="760.0" type="line"/>
    </contour>
  </outline>
</glyph>
<glyph name="zero" format="2">
  <advance width="458.6484848484849"/>
  <unicode hex="0030"/>
  <outline>
    <contour>
      <point x="179.78787878787878" y="-11.0" type="curve" smooth="yes"/>
      <point x="368.7" y="-11.0"/>
      <point x="446.5" y="309.6424242424242"/>
      <point x="446.5" y="503.46969696969694" type="curve" smooth="yes"/>
      <point x="446.5" y="652.4333333333333"/>
      <point x="392.25757575757575" y="723.8272727272727"/>
      <point x="307.55757575757576" y="723.8272727272727" type="curve" smooth="yes"/>
      <point x="128.9333333333333" y="723.8272727272727"/>
      <point x="41.67878787878787" y="425.25454545454545"/>
      <point x="41.67878787878787" y="213.4636363636364" type="curve" smooth="yes"/>
      <point x="41.67878787878787" y="67.69696969696969"/>
      <point x="93.15151515151516" y="-11.0"/>
    </contour>
    <contour>
      <point x="183.21818181818182" y="20.215151515151515" type="curve" smooth="yes"/>
      <point x="118.0909090909091" y="20.215151515151515"/>
      <point x="82.68181818181819" y="86.43030303030304"/>
      <point x="82.68181818181819" y="208.97272727272727" type="curve" smooth="yes"/>
      <point x="82.68181818181819" y="397.2393939393939"/>
      <point x="157.75151515151515" y="693.3757575757576"/>
      <point x="302.73939393939395" y="693.3757575757576" type="curve" smooth="yes"/>
      <point x="368.92121212121214" y="693.3757575757576"/>
      <point x="405.6454545454545" y="630.2333333333332"/>
      <point x="405.6454545454545" y="505.42727272727274" type="curve" smooth="yes"/>
      <point x="405.6454545454545" y="333.1606060606061"/>
      <point x="338.0121212121212" y="20.215151515151515"/>
    </contour>
  </outline>
</glyph>
<glyph name="one" format="2">
  <advance width="458.6484848484849"/>
  <unicode hex="0031"/>
  <outline>
    <contour>
      <point x="42.03636363636364" y="0.0" type="line"/>
      <point x="320.58181818181816" y="0.0" type="line"/>
      <point x="326.43030303030304" y="24.51818181818182" type="line"/>
      <point x="259.6363636363636" y="24.51818181818182" type="line" smooth="yes"/>
      <point x="225.5818181818182" y="24.51818181818182"/>
      <point x="216.24848484848485" y="28.390909090909094"/>
      <point x="216.24848484848485" y="52.560606060606055" type="curve" smooth="yes"/>
      <point x="216.24848484848485" y="61.23030303030303"/>
      <point x="218.8" y="79.57272727272728"/>
      <point x="223.13636363636363" y="99.72727272727272" type="curve" smooth="yes"/>
      <point x="354.21212121212125" y="718.0" type="line"/>
      <point x="334.92727272727274" y="718.0" type="line"/>
      <point x="280.57878787878786" y="675.5333333333333" type="line" smooth="yes"/>
      <point x="216.9878787878788" y="624.6424242424242"/>
      <point x="174.46060606060604" y="601.4727272727273"/>
      <point x="135.3121212121212" y="591.5999999999999" type="curve"/>
      <point x="135.16363636363636" y="578.3090909090909"/>
      <point x="139.37272727272725" y="564.5181818181818"/>
      <point x="161.2030303030303" y="564.5181818181818" type="curve" smooth="yes"/>
      <point x="193.0969696969697" y="564.5181818181818"/>
      <point x="231.94545454545454" y="596.4363636363636"/>
      <point x="302.26666666666665" y="663.790909090909" type="curve"/>
      <point x="304.1575757575758" y="663.790909090909" type="line"/>
      <point x="296.330303030303" y="635.4727272727272"/>
      <point x="282.2090909090909" y="575.7575757575758"/>
      <point x="262.3424242424242" y="480.53636363636366" type="curve" smooth="yes"/>
      <point x="181.2" y="98.64545454545454" type="line" smooth="yes"/>
      <point x="166.63333333333333" y="30.2969696969697"/>
      <point x="156.47272727272727" y="24.51818181818182"/>
      <point x="111.15454545454546" y="24.51818181818182" type="curve" smooth="yes"/>
      <point x="47.67272727272727" y="24.51818181818182" type="line"/>
    </contour>
  </outline>
</glyph>
<glyph name="two" format="2">
  <advance width="458.6484848484849"/>
  <unicode hex="0032"/>
  <outline>
    <contour>
      <point x="-3.8636363636363633" y="0.0" type="line"/>
      <point x="339.16969696969704" y="0.0" type="line"/>
      <point x="367.80606060606067" y="123.06363636363636" type="line"/>
      <point x="343.73333333333335" y="123.06363636363636" type="line"/>
      <point x="337.669696969697" y="101.85454545454546" type="line" smooth="yes"/>
      <point x="322.07878787878786" y="45.8909090909091"/>
      <point x="315.54848484848486" y="36.07272727272728"/>
      <point x="259.1666666666667" y="36.07272727272728" type="curve" smooth="yes"/>
      <point x="41.31515151515152" y="36.07272727272728" type="line"/>
      <point x="254.18181818181816" y="260.03333333333336" type="line" smooth="yes"/>
      <point x="374.4454545454546" y="384.00606060606066"/>
      <point x="426.25757575757575" y="472.6666666666667"/>
      <point x="426.25757575757575" y="578.2515151515152" type="curve" smooth="yes"/>
      <point x="426.25757575757575" y="665.6969696969697"/>
      <point x="374.6666666666667" y="724.0"/>
      <point x="278.81818181818187" y="724.0" type="curve" smooth="yes"/>
      <point x="173.4181818181818" y="724.0"/>
      <point x="114.24242424242424" y="651.930303030303"/>
      <point x="114.24242424242424" y="590.878787878788" type="curve" smooth="yes"/>
      <point x="114.24242424242424" y="564.9090909090909"/>
      <point x="129.36969696969697" y="555.4242424242424"/>
      <point x="148.4060606060606" y="555.4242424242424" type="curve"/>
      <point x="150.86666666666667" y="637.3333333333334"/>
      <point x="199.36666666666667" y="693.9939393939394"/>
      <point x="276.3575757575758" y="693.9939393939394" type="curve" smooth="yes"/>
      <point x="345.21212121212125" y="693.9939393939394"/>
      <point x="383.8969696969697" y="647.1363636363636"/>
      <point x="383.8969696969697" y="576.3848484848485" type="curve" smooth="yes"/>
      <point x="383.8969696969697" y="486.43636363636364"/>
      <point x="349.54545454545456" y="405.9939393939394"/>
      <point x="225.85151515151514" y="274.7030303030303" type="curve" smooth="yes"/>
      <point x="7.236363636363636" y="43.20909090909091" type="line"/>
    </contour>
  </outline>
</glyph>
<glyph name="three" format="2">
  <advance width="458.6484848484849"/>
  <unicode hex="0033"/>
  <outline>
    <contour>
      <point x="151.1090909090909" y="-10.0" type="curve" smooth="yes"/>
      <point x="268.5848484848485" y="-10.0"/>
      <point x="370.20909090909095" y="63.02121212121211"/>
      <point x="370.20909090909095" y="227.29090909090908" type="curve" smooth="yes"/>
      <point x="370.20909090909095" y="308.46060606060604"/>
      <point x="318.1484848484848" y="363.8030303030303"/>
      <point x="261.4818181818182" y="374.91515151515154" type="curve"/>
      <point x="372.83333333333337" y="397.5666666666667"/>
      <point x="424.70909090909095" y="483.55151515151516"/>
      <point x="424.70909090909095" y="581.1818181818182" type="curve" smooth="yes"/>
      <point x="424.70909090909095" y="668.2787878787879"/>
      <point x="366.19090909090903" y="724.0"/>
      <point x="284.1969696969697" y="724.0" type="curve" smooth="yes"/>
      <point x="187.55151515151516" y="724.0"/>
      <point x="116.81515151515151" y="661.0848484848485"/>
      <point x="116.81515151515151" y="574.9090909090909" type="curve" smooth="yes"/>
      <point x="116.81515151515151" y="548.2818181818182"/>
      <point x="132.7" y="536.730303030303"/>
      <point x="150.55757575757573" y="536.730303030303" type="curve"/>
      <point x="154.16363636363633" y="621.5515151515151"/>
      <point x="187.62424242424242" y="693.9939393939394"/>
      <point x="281.41515151515154" y="693.9939393939394" type="curve" smooth="yes"/>
      <point x="342.53030303030306" y="693.9939393939394"/>
      <point x="382.43333333333334" y="649.130303030303"/>
      <point x="382.43333333333334" y="580.9242424242425" type="curve" smooth="yes"/>
      <point x="382.43333333333334" y="459.8272727272727"/>
      <point x="302.8" y="390.27272727272725"/>
      <point x="204.26666666666668" y="390.27272727272725" type="curve" smooth="yes"/>
      <point x="176.46666666666667" y="390.27272727272725" type="line"/>
      <point x="168.19090909090906" y="359.9060606060606" type="line"/>
      <point x="202.76363636363638" y="359.9060606060606" type="line" smooth="yes"/>
      <point x="279.0151515151515" y="359.9060606060606"/>
      <point x="327.5090909090909" y="300.1575757575757"/>
      <point x="327.5090909090909" y="225.46363636363637" type="curve" smooth="yes"/>
      <point x="327.5090909090909" y="89.14848484848486"/>
      <point x="249.8727272727273" y="21.066666666666666"/>
      <point x="154.46666666666667" y="21.066666666666666" type="curve" smooth="yes"/>
      <point x="67.27878787878788" y="21.066666666666666"/>
      <point x="38.96363636363637" y="72.7909090909091"/>
      <point x="39.409090909090914" y="140.11212121212122" type="curve"/>
      <point x="21.115151515151517" y="140.11212121212122"/>
      <point x="3.7818181818181813" y="127.34545454545456"/>
      <point x="3.7818181818181813" y="101.93333333333334" type="curve" smooth="yes"/>
      <point x="3.7818181818181813" y="47.7030303030303"/>
      <point x="42.59090909090909" y="-10.0"/>
    </contour>
  </outline>
</glyph>
<glyph name="four" format="2">
  <advance width="458.6484848484849"/>
  <unicode hex="0034"/>
  <outline>
    <contour>
      <point x="106.35757575757576" y="0.0" type="line"/>
      <point x="364.18484848484854" y="0.0" type="line"/>
      <point x="370.1818181818182" y="24.51818181818182" type="line"/>
      <point x="326.25757575757575" y="24.51818181818182" type="line" smooth="yes"/>
      <point x="290.93333333333334" y="24.51818181818182"/>
      <point x="280.88181818181823" y="30.360606060606063"/>
      <point x="280.88181818181823" y="53.98787878787879" type="curve" smooth="yes"/>
      <point x="280.88181818181823" y="64.54848484848485"/>
      <point x="283.4333333333334" y="78.69696969696969"/>
      <point x="286.22121212121215" y="92.52727272727272" type="curve" smooth="yes"/>
      <point x="417.6090909090909" y="714.0" type="line"/>
      <point x="377.16969696969693" y="714.0" type="line"/>
      <point x="9.603030303030302" y="231.5727272727273" type="line"/>
      <point x="4.542424242424243" y="210.77575757575758" type="line"/>
      <point x="427.0121212121212" y="210.77575757575758" type="line"/>
      <point x="435.70303030303035" y="241.46060606060604" type="line"/>
      <point x="40.59393939393941" y="241.46060606060604" type="line"/>
      <point x="46.342424242424244" y="233.34848484848487" type="line"/>
      <point x="308.5151515151515" y="576.9424242424242" type="line" smooth="yes"/>
      <point x="328.43030303030304" y="602.4212121212122"/>
      <point x="358.0" y="643.130303030303"/>
      <point x="370.3454545454545" y="664.8909090909091" type="curve"/>
      <point x="357.4818181818182" y="619.9878787878788"/>
      <point x="344.59393939393937" y="564.9666666666667"/>
      <point x="330.78181818181815" y="499.8060606060606" type="curve" smooth="yes"/>
      <point x="245.19696969696972" y="93.52424242424242" type="line" smooth="yes"/>
      <point x="232.4333333333333" y="31.706060606060607"/>
      <point x="221.59999999999997" y="24.51818181818182"/>
      <point x="174.53939393939393" y="24.51818181818182" type="curve" smooth="yes"/>
      <point x="111.9939393939394" y="24.51818181818182" type="line"/>
    </contour>
  </outline>
</glyph>
<glyph name="five" format="2">
  <advance width="458.6484848484849"/>
  <unicode hex="0035"/>
  <outline>
    <contour>
      <point x="155.4060606060606" y="-10.0" type="curve" smooth="yes"/>
      <point x="293.4333333333334" y="-10.0"/>
      <point x="379.0" y="102.32424242424243"/>
      <point x="379.0" y="246.37575757575758" type="curve" smooth="yes"/>
      <point x="379.0" y="358.3484848484849"/>
      <point x="318.33636363636367" y="419.9969696969697"/>
      <point x="222.39393939393938" y="419.9969696969697" type="curve" smooth="yes"/>
      <point x="188.4212121212121" y="419.9969696969697"/>
      <point x="159.45454545454547" y="411.1454545454545"/>
      <point x="143.0818181818182" y="404.1454545454545" type="curve"/>
      <point x="222.21515151515155" y="677.778787878788" type="line"/>
      <point x="372.59696969696967" y="677.778787878788" type="line" smooth="yes"/>
      <point x="402.6030303030303" y="677.778787878788"/>
      <point x="408.44545454545454" y="670.1333333333333"/>
      <point x="408.44545454545454" y="656.2030303030302" type="curve" smooth="yes"/>
      <point x="408.44545454545454" y="649.6030303030302"/>
      <point x="405.74545454545455" y="628.4787878787879"/>
      <point x="401.6818181818182" y="596.9999999999999" type="curve"/>
      <point x="425.75454545454545" y="596.9999999999999" type="line"/>
      <point x="451.4757575757576" y="714.0" type="line"/>
      <point x="202.60000000000002" y="714.0" type="line"/>
      <point x="103.08181818181818" y="373.56060606060606" type="line"/>
      <point x="120.44242424242422" y="366.930303030303" type="line"/>
      <point x="148.4969696969697" y="379.58484848484846"/>
      <point x="169.4030303030303" y="388.930303030303"/>
      <point x="215.85454545454547" y="388.930303030303" type="curve" smooth="yes"/>
      <point x="287.91515151515154" y="388.930303030303"/>
      <point x="336.5121212121212" y="340.91818181818184"/>
      <point x="336.5121212121212" y="244.74242424242425" type="curve" smooth="yes"/>
      <point x="336.5121212121212" y="105.18181818181817"/>
      <point x="257.54545454545456" y="21.066666666666666"/>
      <point x="160.38787878787878" y="21.066666666666666" type="curve" smooth="yes"/>
      <point x="82.29696969696971" y="21.066666666666666"/>
      <point x="53.53636363636364" y="74.02424242424242"/>
      <point x="53.93636363636364" y="142.2090909090909" type="curve"/>
      <point x="28.1969696969697" y="142.2090909090909"/>
      <point x="18.563636363636363" y="126.37575757575756"/>
      <point x="18.563636363636363" y="103.5848484848485" type="curve" smooth="yes"/>
      <point x="18.563636363636363" y="53.04848484848484"/>
      <point x="54.227272727272734" y="-10.0"/>
    </contour>
  </outline>
</glyph>
<glyph name="six" format="2">
  <advance width="458.6484848484849"/>
  <unicode hex="0036"/>
  <outline>
    <contour>
      <point x="203.3848484848485" y="-10.0" type="curve" smooth="yes"/>
      <point x="330.1454545454545" y="-10.0"/>
      <point x="399.9303030303031" y="120.46060606060605"/>
      <point x="399.9303030303031" y="265.1242424242424" type="curve" smooth="yes"/>
      <point x="399.9303030303031" y="354.90000000000003"/>
      <point x="356.1878787878788" y="429.1242424242424"/>
      <point x="261.57272727272726" y="429.1242424242424" type="curve" smooth="yes"/>
      <point x="200.02121212121216" y="429.1242424242424"/>
      <point x="151.4121212121212" y="397.8878787878788"/>
      <point x="122.94242424242424" y="372.08181818181816" type="curve"/>
      <point x="161.83030303030304" y="562.0"/>
      <point x="254.41515151515156" y="694.2696969696971"/>
      <point x="352.10303030303027" y="694.2696969696971" type="curve" smooth="yes"/>
      <point x="411.81212121212116" y="694.2696969696971"/>
      <point x="428.1363636363636" y="645.469696969697"/>
      <point x="427.6909090909091" y="584.8939393939394" type="curve"/>
      <point x="453.8212121212121" y="584.8939393939394"/>
      <point x="465.97575757575765" y="601.3818181818181"/>
      <point x="465.97575757575765" y="623.669696969697" type="curve" smooth="yes"/>
      <point x="465.97575757575765" y="671.3363636363637"/>
      <point x="430.0181818181818" y="724.0"/>
      <point x="355.83333333333337" y="724.0" type="curve" smooth="yes"/>
      <point x="193.61818181818182" y="724.0"/>
      <point x="63.46666666666666" y="475.45757575757574"/>
      <point x="63.46666666666666" y="208.34545454545452" type="curve" smooth="yes"/>
      <point x="63.46666666666666" y="49.60909090909091"/>
      <point x="123.84545454545454" y="-10.0"/>
    </contour>
    <contour>
      <point x="205.74242424242425" y="20.76969696969697" type="curve" smooth="yes"/>
      <point x="144.06666666666666" y="20.76969696969697"/>
      <point x="103.93939393939394" y="83.58484848484848"/>
      <point x="103.93939393939394" y="200.8151515151515" type="curve" smooth="yes"/>
      <point x="103.93939393939394" y="236.86060606060605"/>
      <point x="106.19090909090909" y="278.60606060606057"/>
      <point x="115.80303030303031" y="332.16969696969693" type="curve"/>
      <point x="152.8151515151515" y="369.54545454545456"/>
      <point x="203.0787878787879" y="398.9060606060606"/>
      <point x="256.2909090909091" y="398.9060606060606" type="curve" smooth="yes"/>
      <point x="320.8909090909091" y="398.9060606060606"/>
      <point x="358.50303030303036" y="344.1939393939394"/>
      <point x="358.50303030303036" y="263.56969696969696" type="curve" smooth="yes"/>
      <point x="358.50303030303036" y="133.36060606060607"/>
      <point x="296.45151515151514" y="20.76969696969697"/>
    </contour>
  </outline>
</glyph>
<glyph name="seven" format="2">
  <advance width="458.6484848484849"/>
  <unicode hex="0037"/>
  <outline>
    <contour>
      <point x="102.00000000000001" y="0.0" type="line"/>
      <point x="139.6757575757576" y="0.0" type="line"/>
      <point x="483.2787878787879" y="698.2787878787879" type="line"/>
      <point x="486.6878787878788" y="714.0" type="line"/>
      <point x="135.01818181818183" y="714.0" type="line"/>
      <point x="97.92727272727272" y="571.7363636363636" type="line"/>
      <point x="122.0" y="571.7363636363636" type="line"/>
      <point x="140.02727272727273" y="633.4757575757576" type="line" smooth="yes"/>
      <point x="150.9969696969697" y="670.4939393939394"/>
      <point x="159.45151515151514" y="677.9272727272727"/>
      <point x="196.3030303030303" y="677.9272727272727" type="curve" smooth="yes"/>
      <point x="440.70909090909095" y="677.9272727272727" type="line"/>
    </contour>
  </outline>
</glyph>
<glyph name="eight" format="2">
  <advance width="458.6484848484849"/>
  <unicode hex="0038"/>
  <outline>
    <contour>
      <point x="196.14545454545456" y="-10.0" type="curve" smooth="yes"/>
      <point x="307.1333333333334" y="-10.0"/>
      <point x="397.5818181818182" y="61.557575757575755"/>
      <point x="397.5818181818182" y="198.2939393939394" type="curve" smooth="yes"/>
      <point x="397.5818181818182" y="277.22121212121215"/>
      <point x="357.6666666666667" y="330.44242424242424"/>
      <point x="275.95454545454544" y="376.2818181818182" type="curve"/>
      <point x="378.4757575757576" y="420.09696969696967"/>
      <point x="450.97878787878784" y="479.1"/>
      <point x="450.97878787878784" y="583.3030303030304" type="curve" smooth="yes"/>
      <point x="450.97878787878784" y="661.7363636363636"/>
      <point x="398.3333333333333" y="724.0"/>
      <point x="300.45151515151514" y="724.0" type="curve" smooth="yes"/>
      <point x="175.50909090909093" y="724.0"/>
      <point x="111.67878787878787" y="633.8636363636364"/>
      <point x="111.67878787878787" y="538.0151515151516" type="curve" smooth="yes"/>
      <point x="111.67878787878787" y="470.72424242424245"/>
      <point x="140.72424242424245" y="419.3545454545455"/>
      <point x="207.0787878787879" y="375.3212121212121" type="curve"/>
      <point x="100.75454545454545" y="331.06969696969696"/>
      <point x="17.463636363636365" y="266.73636363636365"/>
      <point x="17.463636363636365" y="151.93636363636364" type="curve" smooth="yes"/>
      <point x="17.463636363636365" y="58.8939393939394"/>
      <point x="80.89090909090909" y="-10.0"/>
    </contour>
    <contour>
      <point x="196.4848484848485" y="19.942424242424245" type="curve" smooth="yes"/>
      <point x="106.86363636363637" y="19.942424242424245"/>
      <point x="58.10606060606061" y="75.24242424242425"/>
      <point x="58.10606060606061" y="152.19393939393942" type="curve" smooth="yes"/>
      <point x="58.10606060606061" y="256.1484848484848"/>
      <point x="139.14848484848486" y="321.3090909090909"/>
      <point x="233.9272727272727" y="358.2848484848485" type="curve"/>
      <point x="320.830303030303" y="310.53333333333336"/>
      <point x="356.8545454545455" y="270.28181818181815"/>
      <point x="356.8545454545455" y="191.62727272727275" type="curve" smooth="yes"/>
      <point x="356.8545454545455" y="82.13636363636363"/>
      <point x="286.130303030303" y="19.942424242424245"/>
    </contour>
    <contour>
      <point x="248.830303030303" y="393.19090909090914" type="curve"/>
      <point x="175.11818181818182" y="437.5818181818182"/>
      <point x="152.76666666666665" y="480.4757575757576"/>
      <point x="152.76666666666665" y="540.6454545454545" type="curve" smooth="yes"/>
      <point x="152.76666666666665" y="621.0575757575757"/>
      <point x="206.94545454545454" y="693.8454545454547"/>
      <point x="298.96363636363634" y="693.8454545454547" type="curve" smooth="yes"/>
      <point x="374.5030303030303" y="693.8454545454547"/>
      <point x="411.5242424242424" y="643.0424242424242"/>
      <point x="411.5242424242424" y="581.9666666666666" type="curve" smooth="yes"/>
      <point x="411.5242424242424" y="497.56666666666666"/>
      <point x="360.8121212121212" y="440.7333333333333"/>
    </contour>
  </outline>
</glyph>
<glyph name="nine" format="2">
  <advance width="458.6484848484849"/>
  <unicode hex="0039"/>
  <outline>
    <contour>
      <point x="158.94545454545457" y="-10.0" type="curve" smooth="yes"/>
      <point x="328.230303030303" y="-10.0"/>
      <point x="429.8545454545455" y="279.3606060606061"/>
      <point x="429.8545454545455" y="522.7121212121212" type="curve" smooth="yes"/>
      <point x="429.8545454545455" y="664.4303030303031"/>
      <point x="367.4636363636364" y="724.0"/>
      <point x="286.76060606060605" y="724.0" type="curve" smooth="yes"/>
      <point x="166.7939393939394" y="724.0"/>
      <point x="82.99393939393939" y="604.6666666666666"/>
      <point x="82.99393939393939" y="446.8515151515152" type="curve" smooth="yes"/>
      <point x="82.99393939393939" y="355.7060606060606"/>
      <point x="127.9" y="281.3030303030303"/>
      <point x="222.03333333333333" y="281.3030303030303" type="curve" smooth="yes"/>
      <point x="284.43939393939394" y="281.3030303030303"/>
      <point x="342.2575757575758" y="318.6363636363636"/>
      <point x="370.4818181818182" y="350.0121212121212" type="curve"/>
      <point x="335.8545454545455" y="161.88787878787878"/>
      <point x="256.05454545454546" y="19.942424242424245"/>
      <point x="161.63939393939395" y="19.942424242424245" type="curve" smooth="yes"/>
      <point x="93.53939393939395" y="19.942424242424245"/>
      <point x="77.28181818181818" y="66.2969696969697"/>
      <point x="77.51515151515153" y="126.45151515151517" type="curve"/>
      <point x="54.54848484848485" y="126.45151515151517"/>
      <point x="43.981818181818184" y="110.8030303030303"/>
      <point x="43.981818181818184" y="88.79090909090908" type="curve" smooth="yes"/>
      <point x="43.981818181818184" y="43.74848484848485"/>
      <point x="70.73030303030303" y="-10.0"/>
    </contour>
    <contour>
      <point x="227.63333333333333" y="312.2212121212121" type="curve" smooth="yes"/>
      <point x="160.23636363636365" y="312.2212121212121"/>
      <point x="124.63333333333333" y="370.9060606060606"/>
      <point x="124.63333333333333" y="446.7666666666667" type="curve" smooth="yes"/>
      <point x="124.63333333333333" y="581.1969696969696"/>
      <point x="189.64242424242425" y="693.2303030303029"/>
      <point x="285.1272727272727" y="693.2303030303029" type="curve" smooth="yes"/>
      <point x="343.5969696969697" y="693.2303030303029"/>
      <point x="389.55151515151516" y="642.9363636363636"/>
      <point x="389.55151515151516" y="522.839393939394" type="curve" smooth="yes"/>
      <point x="389.55151515151516" y="490.769696969697"/>
      <point x="386.0272727272727" y="444.0727272727272"/>
      <point x="378.69090909090914" y="394.9969696969697" type="curve"/>
      <point x="346.03636363636366" y="355.6606060606061"/>
      <point x="288.3575757575757" y="312.2212121212121"/>
    </contour>
  </outline>
</glyph>
<glyph name="colon" format="2">
  <advance width="187.80909090909094"/>
  <unicode hex="003A"/>
  <outline>
    <contour>
      <point x="137.88181818181818" y="451.26969696969695" type="curve" smooth="yes"/>
      <point x="157.14848484848486" y="451.26969696969695"/>
      <point x="176.8212121212121" y="468.1121212121212"/>
      <point x="176.8212121212121" y="506.3212121212121" type="curve" smooth="yes"/>
      <point x="176.8212121212121" y="530.6030303030304"/>
      <point x="163.57272727272726" y="541.4878787878788"/>
      <point x="146.22424242424242" y="541.4878787878788" type="curve" smooth="yes"/>
      <point x="123.80909090909091" y="541.4878787878788"/>
      <point x="105.7090909090909" y="520.8151515151515"/>
      <point x="105.7090909090909" y="487.439393939394" type="curve" smooth="yes"/>
      <point x="105.7090909090909" y="463.0060606060606"/>
      <point x="118.02121212121213" y="451.26969696969695"/>
    </contour>
    <contour>
      <point x="39.2939393939394" y="-6.187878787878788" type="curve" smooth="yes"/>
      <point x="58.56060606060606" y="-6.187878787878788"/>
      <point x="78.38181818181819" y="10.654545454545454"/>
      <point x="78.38181818181819" y="48.86363636363636" type="curve" smooth="yes"/>
      <point x="78.38181818181819" y="73.14545454545454"/>
      <point x="64.98484848484847" y="84.03030303030302"/>
      <point x="47.78484848484849" y="84.03030303030302" type="curve" smooth="yes"/>
      <point x="25.221212121212126" y="84.03030303030302"/>
      <point x="7.121212121212125" y="63.50606060606062"/>
      <point x="7.121212121212125" y="30.13030303030303" type="curve" smooth="yes"/>
      <point x="7.121212121212125" y="5.548484848484849"/>
      <point x="19.581818181818186" y="-6.187878787878788"/>
    </contour>
  </outline>
</glyph>
<glyph name="semicolon" format="2">
  <advance width="187.66060606060606"/>
  <unicode hex="003B"/>
  <outline>
    <contour>
      <point x="-38.91818181818182" y="-140.169696969697" type="line"/>
      <point x="55.52424242424243" y="-115.4060606060606"/>
      <point x="82.22727272727273" y="-50.900000000000006"/>
      <point x="82.22727272727273" y="20.981818181818184" type="curve" smooth="yes"/>
      <point x="82.22727272727273" y="60.52424242424242"/>
      <point x="64.74848484848485" y="84.22121212121213"/>
      <point x="41.41818181818182" y="84.22121212121213" type="curve" smooth="yes"/>
      <point x="19.190909090909095" y="84.22121212121213"/>
      <point x="5.669696969696972" y="68.94848484848487"/>
      <point x="5.669696969696972" y="47.13333333333333" type="curve" smooth="yes"/>
      <point x="5.669696969696972" y="12.06060606060606"/>
      <point x="44.21212121212122" y="12.55151515151515"/>
      <point x="44.21212121212122" y="-21.427272727272726" type="curve" smooth="yes"/>
      <point x="44.21212121212122" y="-60.472727272727276"/>
      <point x="19.233333333333334" y="-97.03636363636365"/>
      <point x="-39.03333333333333" y="-115.10000000000001" type="curve"/>
    </contour>
    <contour>
      <point x="137.88181818181818" y="451.26969696969695" type="curve" smooth="yes"/>
      <point x="157.00000000000003" y="451.26969696969695"/>
      <point x="176.8212121212121" y="468.1121212121212"/>
      <point x="176.8212121212121" y="506.3212121212121" type="curve" smooth="yes"/>
      <point x="176.8212121212121" y="530.6030303030304"/>
      <point x="163.4242424242424" y="541.4878787878788"/>
      <point x="146.22424242424242" y="541.4878787878788" type="curve" smooth="yes"/>
      <point x="123.80909090909091" y="541.4878787878788"/>
      <point x="105.7090909090909" y="520.8151515151515"/>
      <point x="105.7090909090909" y="487.439393939394" type="curve" smooth="yes"/>
      <point x="105.7090909090909" y="463.0060606060606"/>
      <point x="118.02121212121213" y="451.26969696969695"/>
    </contour>
  </outline>
</glyph>
<glyph name="equal" format="2">
  <advance width="465.2"/>
  <unicode hex="003D"/>
  <outline>
    <contour>
      <point x="65.53636363636365" y="440.8393939393939" type="line"/>
      <point x="420.89090909090913" y="440.8393939393939" type="line"/>
      <point x="420.89090909090913" y="475.26666666666665" type="line"/>
      <point x="65.53636363636365" y="475.26666666666665" type="line"/>
    </contour>
    <contour>
      <point x="65.53636363636365" y="239.28484848484848" type="line"/>
      <point x="420.89090909090913" y="239.28484848484848" type="line"/>
      <point x="420.89090909090913" y="273.71212121212125" type="line"/>
      <point x="65.53636363636365" y="273.71212121212125" type="line"/>
    </contour>
  </outline>
</glyph>
<glyph name="greater" format="2">
  <advance width="465.2"/>
  <unicode hex="003E"/>
  <outline>
    <contour>
      <point x="64.51212121212122" y="115.89999999999999" type="line"/>
      <point x="422.7909090909091" y="343.1515151515151" type="line"/>
      <point x="422.7909090909091" y="371.8484848484849" type="line"/>
      <point x="64.51212121212122" y="600.1" type="line"/>
      <point x="64.51212121212122" y="559.0030303030303" type="line"/>
      <point x="380.4545454545455" y="357.0" type="line"/>
      <point x="64.51212121212122" y="157.14545454545456" type="line"/>
    </contour>
  </outline>
</glyph>
<glyph name="question" format="2">
  <advance width="391.03333333333336"/>
  <unicode hex="003F"/>
  <outline>
    <contour>
      <point x="130.33030303030307" y="174.71818181818182" type="line"/>
      <point x="159.56969696969696" y="174.71818181818182" type="line"/>
      <point x="191.9727272727273" y="318.73333333333335" type="line"/>
      <point x="315.87272727272733" y="376.7787878787879"/>
      <point x="406.4878787878788" y="448.160606060606"/>
      <point x="406.4878787878788" y="579.160606060606" type="curve" smooth="yes"/>
      <point x="406.4878787878788" y="667.3969696969698"/>
      <point x="352.969696969697" y="724.0"/>
      <point x="267.8030303030303" y="724.0" type="curve" smooth="yes"/>
      <point x="168.44242424242424" y="724.0"/>
      <point x="112.83030303030301" y="653.9909090909091"/>
      <point x="112.83030303030301" y="586.4242424242425" type="curve" smooth="yes"/>
      <point x="112.83030303030301" y="564.5484848484849"/>
      <point x="124.21818181818182" y="548.290909090909"/>
      <point x="142.88181818181818" y="548.290909090909" type="curve"/>
      <point x="148.01818181818183" y="625.2363636363636"/>
      <point x="180.0727272727273" y="693.8454545454547"/>
      <point x="265.1303030303031" y="693.8454545454547" type="curve" smooth="yes"/>
      <point x="324.5939393939394" y="693.8454545454547"/>
      <point x="364.530303030303" y="648.7515151515152"/>
      <point x="364.530303030303" y="578.1212121212121" type="curve" smooth="yes"/>
      <point x="364.530303030303" y="460.66363636363633"/>
      <point x="281.3727272727273" y="390.27878787878785"/>
      <point x="161.26666666666665" y="339.4666666666667" type="curve"/>
    </contour>
    <contour>
      <point x="119.36969696969696" y="-6.187878787878788" type="curve" smooth="yes"/>
      <point x="138.7848484848485" y="-6.187878787878788"/>
      <point x="158.45757575757577" y="10.654545454545454"/>
      <point x="158.45757575757577" y="48.86363636363636" type="curve" smooth="yes"/>
      <point x="158.45757575757577" y="73.14545454545454"/>
      <point x="145.20909090909092" y="84.03030303030302"/>
      <point x="127.86060606060606" y="84.03030303030302" type="curve" smooth="yes"/>
      <point x="105.44545454545455" y="84.03030303030302"/>
      <point x="87.34545454545454" y="63.50606060606062"/>
      <point x="87.34545454545454" y="30.13030303030303" type="curve" smooth="yes"/>
      <point x="87.34545454545454" y="5.548484848484849"/>
      <point x="99.65757575757577" y="-6.187878787878788"/>
    </contour>
  </outline>
</glyph>
<glyph name="bracketleft" format="2">
  <advance width="263.8030303030303"/>
  <unicode hex="005B"/>
  <outline>
    <contour>
      <point x="-13.645454545454543" y="-128.0" type="line"/>
      <point x="136.53939393939396" y="-128.0" type="line"/>
      <point x="141.83636363636367" y="-103.48181818181818" type="line"/>
      <point x="91.83030303030304" y="-103.48181818181818" type="line" smooth="yes"/>
      <point x="55.33333333333333" y="-103.48181818181818"/>
      <point x="42.04242424242424" y="-98.5060606060606"/>
      <point x="42.04242424242424" y="-73.85454545454544" type="curve" smooth="yes"/>
      <point x="42.04242424242424" y="-63.04848484848484"/>
      <point x="44.68181818181819" y="-46.07272727272727"/>
      <point x="49.36060606060607" y="-25.545454545454547" type="curve"/>
      <point x="193.81212121212118" y="656.0757575757576" type="line"/>
      <point x="208.46666666666664" y="726.7969696969697"/>
      <point x="221.6090909090909" y="735.4818181818183"/>
      <point x="270.8666666666667" y="735.4818181818183" type="curve" smooth="yes"/>
      <point x="319.3060606060606" y="735.4818181818183" type="line"/>
      <point x="324.7515151515152" y="760.0" type="line"/>
      <point x="174.56666666666666" y="760.0" type="line"/>
    </contour>
  </outline>
</glyph>
<glyph name="backslash" format="2">
  <advance width="245.89393939393938"/>
  <unicode hex="005C"/>
  <outline>
    <contour>
      <point x="150.78484848484848" y="-121.0" type="line"/>
      <point x="183.63939393939395" y="-121.0" type="line"/>
      <point x="134.4212121212121" y="760.0" type="line"/>
      <point x="101.63030303030303" y="760.0" type="line"/>
    </contour>
  </outline>
</glyph>
<glyph name="bracketright" format="2">
  <advance width="263.8030303030303"/>
  <unicode hex="005D"/>
  <outline>
    <contour>
      <point x="-54.42424242424242" y="-128.0" type="line"/>
      <point x="95.6969696969697" y="-128.0" type="line"/>
      <point x="283.76060606060605" y="760.0" type="line"/>
      <point x="133.72424242424242" y="760.0" type="line"/>
      <point x="128.2787878787879" y="735.4818181818183" type="line"/>
      <point x="178.2848484848485" y="735.4818181818183" type="line" smooth="yes"/>
      <point x="214.63333333333335" y="735.4818181818183"/>
      <point x="228.22121212121215" y="730.5060606060606"/>
      <point x="228.22121212121215" y="705.8545454545454" type="curve" smooth="yes"/>
      <point x="228.22121212121215" y="696.5545454545455"/>
      <point x="224.88181818181818" y="678.2212121212121"/>
      <point x="220.75454545454548" y="657.5454545454545" type="curve" smooth="yes"/>
      <point x="76.30303030303031" y="-24.075757575757585" type="line"/>
      <point x="61.648484848484856" y="-94.7969696969697"/>
      <point x="48.506060606060615" y="-103.48181818181818"/>
      <point x="-0.5393939393939355" y="-103.48181818181818" type="curve" smooth="yes"/>
      <point x="-48.97878787878788" y="-103.48181818181818" type="line"/>
    </contour>
  </outline>
</glyph>
<glyph name="asciicircum" format="2">
  <advance width="465.2"/>
  <unicode hex="005E"/>
  <outline>
    <contour>
      <point x="54.43333333333333" y="270.3242424242424" type="line"/>
      <point x="91.83939393939394" y="270.3242424242424" type="line"/>
      <point x="242.3" y="659.4848484848484" type="line"/>
      <point x="394.6121212121212" y="270.3242424242424" type="line"/>
      <point x="432.0181818181818" y="270.3242424242424" type="line"/>
      <point x="255.1272727272727" y="714.0" type="line"/>
      <point x="229.29999999999995" y="714.0" type="line"/>
    </contour>
  </outline>
</glyph>
<glyph name="underscore" format="2">
  <advance width="391.8424242424243"/>
  <unicode hex="005F"/>
  <outline>
    <contour>
      <point x="-80.07878787878788" y="-125.69090909090909" type="line"/>
      <point x="321.25454545454545" y="-125.69090909090909" type="line"/>
      <point x="327.95151515151514" y="-93.47878787878787" type="line"/>
      <point x="-73.38181818181819" y="-93.47878787878787" type="line"/>
    </contour>
  </outline>
</glyph>
<glyph name="braceleft" format="2">
  <advance width="354.21212121212125"/>
  <unicode hex="007B"/>
  <outline>
    <contour>
      <point x="178.35151515151514" y="-131.15151515151516" type="curve" smooth="yes"/>
      <point x="209.0939393939394" y="-131.15151515151516" type="line"/>
      <point x="215.49393939393937" y="-103.58484848484848" type="line"/>
      <point x="190.26363636363638" y="-103.58484848484848" type="line" smooth="yes"/>
      <point x="149.33030303030307" y="-103.58484848484848"/>
      <point x="133.46060606060607" y="-84.4030303030303"/>
      <point x="133.46060606060607" y="-45.03030303030303" type="curve" smooth="yes"/>
      <point x="133.46060606060607" y="-24.845454545454544"/>
      <point x="136.80000000000004" y="-6.136363636363635"/>
      <point x="141.2878787878788" y="15.281818181818183" type="curve" smooth="yes"/>
      <point x="176.40606060606063" y="176.96363636363634" type="line" smooth="yes"/>
      <point x="179.8151515151515" y="194.0030303030303"/>
      <point x="182.75151515151515" y="213.87575757575758"/>
      <point x="182.75151515151515" y="229.95757575757574" type="curve" smooth="yes"/>
      <point x="182.75151515151515" y="271.68181818181824"/>
      <point x="164.1909090909091" y="300.13030303030297"/>
      <point x="123.89393939393939" y="311.8727272727273" type="curve"/>
      <point x="123.89393939393939" y="314.3848484848485" type="line"/>
      <point x="181.5909090909091" y="325.81818181818187"/>
      <point x="215.50000000000003" y="359.74848484848485"/>
      <point x="230.52424242424243" y="430.54545454545456" type="curve" smooth="yes"/>
      <point x="270.53636363636366" y="617.9727272727273" type="line" smooth="yes"/>
      <point x="288.59090909090907" y="703.2575757575758"/>
      <point x="311.9939393939394" y="731.3303030303031"/>
      <point x="368.59999999999997" y="731.3303030303031" type="curve" smooth="yes"/>
      <point x="389.1030303030303" y="731.3303030303031" type="line"/>
      <point x="395.6515151515152" y="760.0" type="line"/>
      <point x="364.11212121212117" y="760.0" type="line" smooth="yes"/>
      <point x="287.2181818181818" y="760.0"/>
      <point x="252.28787878787878" y="723.6242424242424"/>
      <point x="230.55757575757576" y="621.9090909090909" type="curve" smooth="yes"/>
      <point x="189.95151515151517" y="432.9939393939394" type="line" smooth="yes"/>
      <point x="174.32424242424244" y="361.08787878787876"/>
      <point x="134.51515151515153" y="332.1060606060606"/>
      <point x="65.24545454545455" y="329.1848484848485" type="curve"/>
      <point x="59.3969696969697" y="301.42727272727274" type="line"/>
      <point x="117.24848484848486" y="298.4030303030303"/>
      <point x="141.75454545454545" y="276.2818181818182"/>
      <point x="141.75454545454545" y="230.46363636363634" type="curve" smooth="yes"/>
      <point x="141.75454545454545" y="215.5969696969697"/>
      <point x="139.25757575757575" y="197.35151515151514"/>
      <point x="135.78484848484848" y="181.18484848484852" type="curve" smooth="yes"/>
      <point x="100.70909090909092" y="17.33939393939394" type="line" smooth="yes"/>
      <point x="95.52121212121214" y="-7.199999999999999"/>
      <point x="92.98787878787878" y="-24.46363636363636"/>
      <point x="92.98787878787878" y="-45.64545454545455" type="curve" smooth="yes"/>
      <point x="92.98787878787878" y="-95.9121212121212"/>
      <point x="119.91212121212124" y="-131.15151515151516"/>
    </contour>
  </outline>
</glyph>
<glyph name="braceright" format="2">
  <advance width="354.0636363636364"/>
  <unicode hex="007D"/>
  <outline>
    <contour>
      <point x="-22.21515151515152" y="-131.29999999999998" type="line"/>
      <point x="9.324242424242424" y="-131.29999999999998" type="line" smooth="yes"/>
      <point x="87.8090909090909" y="-131.29999999999998"/>
      <point x="121.59393939393941" y="-94.22424242424242"/>
      <point x="143.02727272727273" y="6.790909090909093" type="curve" smooth="yes"/>
      <point x="183.33636363636364" y="195.91818181818184" type="line" smooth="yes"/>
      <point x="198.75151515151515" y="267.82424242424247"/>
      <point x="238.92121212121216" y="297.1666666666667"/>
      <point x="308.04242424242426" y="300.08787878787876" type="curve"/>
      <point x="314.03939393939396" y="327.8454545454546" type="line"/>
      <point x="256.1878787878788" y="330.869696969697"/>
      <point x="231.53333333333336" y="352.630303030303"/>
      <point x="231.53333333333336" y="398.5969696969697" type="curve" smooth="yes"/>
      <point x="231.53333333333336" y="413.7606060606061"/>
      <point x="234.1787878787879" y="431.56060606060606"/>
      <point x="237.65151515151516" y="447.72727272727275" type="curve" smooth="yes"/>
      <point x="273.3212121212121" y="614.6272727272727" type="line" smooth="yes"/>
      <point x="278.36060606060613" y="638.4242424242424"/>
      <point x="280.44848484848484" y="654.7969696969698"/>
      <point x="280.44848484848484" y="674.790909090909" type="curve" smooth="yes"/>
      <point x="280.44848484848484" y="722.8303030303031"/>
      <point x="254.86060606060607" y="760.0"/>
      <point x="195.97575757575754" y="760.0" type="curve" smooth="yes"/>
      <point x="164.34242424242424" y="760.0" type="line"/>
      <point x="157.94242424242424" y="732.4333333333333" type="line"/>
      <point x="183.1727272727273" y="732.4333333333333" type="line" smooth="yes"/>
      <point x="224.10606060606062" y="732.4333333333333"/>
      <point x="239.97575757575757" y="713.5484848484848"/>
      <point x="239.97575757575757" y="674.9181818181819" type="curve" smooth="yes"/>
      <point x="239.97575757575757" y="653.2484848484848"/>
      <point x="236.63636363636363" y="634.8363636363637"/>
      <point x="232.14848484848483" y="613.4181818181819" type="curve" smooth="yes"/>
      <point x="197.03030303030303" y="451.6515151515151" type="line" smooth="yes"/>
      <point x="193.6212121212121" y="434.6121212121212"/>
      <point x="190.6848484848485" y="415.03636363636366"/>
      <point x="190.6848484848485" y="399.1030303030303" type="curve" smooth="yes"/>
      <point x="190.6848484848485" y="357.3787878787878"/>
      <point x="209.0969696969697" y="329.2909090909091"/>
      <point x="249.39393939393938" y="317.40000000000003" type="curve"/>
      <point x="249.39393939393938" y="314.73939393939395" type="line"/>
      <point x="191.84545454545454" y="303.3060606060606"/>
      <point x="157.78787878787878" y="269.1636363636364"/>
      <point x="142.76363636363638" y="198.51515151515153" type="curve" smooth="yes"/>
      <point x="102.45454545454547" y="9.68787878787879" type="line" smooth="yes"/>
      <point x="84.39999999999999" y="-74.45151515151517"/>
      <point x="62.2909090909091" y="-102.63030303030303"/>
      <point x="5.939393939393939" y="-102.63030303030303" type="curve" smooth="yes"/>
      <point x="-15.815151515151515" y="-102.63030303030303" type="line"/>
    </contour>
  </outline>
</glyph>
<glyph name="asciitilde" format="2">
  <advance width="465.2"/>
  <unicode hex="007E"/>
  <outline>
    <contour>
      <point x="59.99090909090909" y="275.45151515151514" type="curve"/>
      <point x="94.2969696969697" y="275.45151515151514" type="line"/>
      <point x="105.16666666666666" y="355.23636363636365"/>
      <point x="116.76666666666667" y="404.2666666666667"/>
      <point x="157.0909090909091" y="404.2666666666667" type="curve" smooth="yes"/>
      <point x="184.8727272727273" y="404.2666666666667"/>
      <point x="202.73939393939395" y="382.01818181818186"/>
      <point x="234.70303030303032" y="341.26969696969695" type="curve" smooth="yes"/>
      <point x="270.03636363636366" y="296.3212121212121"/>
      <point x="295.74545454545455" y="276.0030303030303"/>
      <point x="331.08181818181816" y="276.0030303030303" type="curve" smooth="yes"/>
      <point x="403.70303030303035" y="276.0030303030303"/>
      <point x="419.0454545454545" y="370.6272727272727"/>
      <point x="427.4575757575758" y="437.1454545454545" type="curve"/>
      <point x="392.8515151515152" y="437.1454545454545" type="line"/>
      <point x="382.0909090909091" y="362.3424242424243"/>
      <point x="371.0727272727272" y="309.4333333333333"/>
      <point x="330.55151515151516" y="309.4333333333333" type="curve" smooth="yes"/>
      <point x="306.269696969697" y="309.4333333333333"/>
      <point x="287.3393939393939" y="327.7181818181818"/>
      <point x="254.70000000000002" y="369.3333333333333" type="curve" smooth="yes"/>
      <point x="220.12727272727273" y="412.7545454545454"/>
      <point x="195.23333333333332" y="437.6969696969697"/>
      <point x="156.4969696969697" y="437.6969696969697" type="curve" smooth="yes"/>
      <point x="82.65757575757576" y="437.6969696969697"/>
      <point x="69.2848484848485" y="344.90303030303033"/>
    </contour>
  </outline>
</glyph>
<glyph name="twosuperior" format="2">
  <advance width="336.5151515151515"/>
  <unicode hex="00B2"/>
  <outline>
    <contour>
      <point x="61.7" y="386.23636363636365" type="line"/>
      <point x="299.3515151515151" y="386.23636363636365" type="line"/>
      <point x="324.2090909090909" y="482.6515151515151" type="line"/>
      <point x="301.6575757575758" y="482.6515151515151" type="line"/>
      <point x="295.539393939394" y="464.0151515151515" type="line" smooth="yes"/>
      <point x="282.9606060606061" y="424.44545454545454"/>
      <point x="277.76666666666665" y="417.0272727272727"/>
      <point x="241.74848484848485" y="417.0272727272727" type="curve" smooth="yes"/>
      <point x="115.98787878787878" y="417.0272727272727" type="line"/>
      <point x="214.37272727272727" y="510.3909090909091" type="line" smooth="yes"/>
      <point x="318.6121212121212" y="608.8545454545455"/>
      <point x="351.8424242424243" y="659.2575757575759"/>
      <point x="351.8424242424243" y="723.4484848484848" type="curve" smooth="yes"/>
      <point x="351.8424242424243" y="783.6181818181817"/>
      <point x="313.41818181818184" y="822.030303030303"/>
      <point x="249.02121212121213" y="822.030303030303" type="curve" smooth="yes"/>
      <point x="170.0" y="822.030303030303"/>
      <point x="126.30303030303028" y="759.0787878787879"/>
      <point x="126.30303030303028" y="718.8030303030304" type="curve" smooth="yes"/>
      <point x="126.30303030303028" y="697.8060606060606"/>
      <point x="135.15151515151516" y="687.0060606060606"/>
      <point x="157.43636363636364" y="687.0060606060606" type="curve"/>
      <point x="158.92121212121214" y="745.0939393939394"/>
      <point x="190.81212121212118" y="794.4"/>
      <point x="246.83636363636364" y="794.4" type="curve" smooth="yes"/>
      <point x="287.45454545454544" y="794.4"/>
      <point x="314.4878787878788" y="770.8787878787878"/>
      <point x="314.4878787878788" y="722.769696969697" type="curve" smooth="yes"/>
      <point x="314.4878787878788" y="660.130303030303"/>
      <point x="280.7787878787879" y="611.1151515151516"/>
      <point x="185.5818181818182" y="519.5060606060606" type="curve" smooth="yes"/>
      <point x="66.50606060606061" y="404.53030303030306" type="line"/>
    </contour>
  </outline>
</glyph>
<glyph name="threesuperior" format="2">
  <advance width="336.5151515151515"/>
  <unicode hex="00B3"/>
  <outline>
    <contour>
      <point x="182.5909090909091" y="378.8969696969697" type="curve" smooth="yes"/>
      <point x="268.52424242424246" y="378.8969696969697"/>
      <point x="333.9" y="431.9212121212121"/>
      <point x="333.9" y="514.5333333333333" type="curve" smooth="yes"/>
      <point x="333.9" y="563.8272727272728"/>
      <point x="304.75151515151515" y="600.7848484848486"/>
      <point x="258.43636363636364" y="609.2030303030303" type="curve"/>
      <point x="257.94848484848484" y="611.2272727272726" type="line"/>
      <point x="323.0909090909091" y="624.4757575757576"/>
      <point x="364.54242424242426" y="665.9757575757576"/>
      <point x="364.54242424242426" y="728.7090909090908" type="curve" smooth="yes"/>
      <point x="364.54242424242426" y="783.8484848484849"/>
      <point x="324.44545454545454" y="821.7939393939394"/>
      <point x="257.8" y="821.7939393939394" type="curve" smooth="yes"/>
      <point x="177.4030303030303" y="821.7939393939394"/>
      <point x="129.5393939393939" y="773.0181818181819"/>
      <point x="129.5393939393939" y="726.9636363636364" type="curve" smooth="yes"/>
      <point x="129.5393939393939" y="704.0151515151514"/>
      <point x="140.3090909090909" y="698.5757575757576"/>
      <point x="159.8272727272727" y="698.5757575757576" type="curve"/>
      <point x="164.4848484848485" y="760.4121212121212"/>
      <point x="197.7757575757576" y="794.0151515151515"/>
      <point x="255.23030303030302" y="794.0151515151515" type="curve" smooth="yes"/>
      <point x="298.87575757575763" y="794.0151515151515"/>
      <point x="326.25151515151515" y="769.1909090909091"/>
      <point x="326.25151515151515" y="727.5121212121212" type="curve" smooth="yes"/>
      <point x="326.25151515151515" y="669.2272727272729"/>
      <point x="283.1484848484848" y="624.0909090909091"/>
      <point x="202.12424242424242" y="624.0909090909091" type="curve" smooth="yes"/>
      <point x="172.45757575757577" y="624.0909090909091" type="line"/>
      <point x="166.8212121212121" y="596.3969696969698" type="line"/>
      <point x="195.47272727272727" y="596.3969696969698" type="line" smooth="yes"/>
      <point x="265.3393939393939" y="596.3969696969698"/>
      <point x="295.9939393939394" y="563.7848484848485"/>
      <point x="295.9939393939394" y="513.7454545454545" type="curve" smooth="yes"/>
      <point x="295.9939393939394" y="446.3666666666666"/>
      <point x="249.20606060606056" y="407.5878787878788"/>
      <point x="185.57272727272726" y="407.5878787878788" type="curve" smooth="yes"/>
      <point x="125.05757575757575" y="407.5878787878788"/>
      <point x="101.05757575757576" y="438.44545454545454"/>
      <point x="106.0030303030303" y="504.2242424242424" type="curve"/>
      <point x="85.78484848484848" y="504.2242424242424"/>
      <point x="73.45151515151515" y="488.6848484848485"/>
      <point x="73.45151515151515" y="466.93636363636364" type="curve" smooth="yes"/>
      <point x="73.45151515151515" y="412.4242424242424"/>
      <point x="110.93030303030302" y="378.8969696969697"/>
    </contour>
  </outline>
</glyph>
<glyph name="multiply" format="2">
  <advance width="465.2"/>
  <unicode hex="00D7"/>
  <outline>
    <contour>
      <point x="93.63030303030303" y="148.4939393939394" type="line"/>
      <point x="247.60606060606062" y="333.90303030303033" type="line"/>
      <point x="401.4333333333334" y="148.4939393939394" type="line"/>
      <point x="427.9030303030303" y="170.7818181818182" type="line"/>
      <point x="270.130303030303" y="360.5212121212121" type="line"/>
      <point x="427.9030303030303" y="551.4515151515152" type="line"/>
      <point x="402.22121212121215" y="573.4878787878788" type="line"/>
      <point x="247.60606060606062" y="387.839393939394" type="line"/>
      <point x="93.07878787878788" y="573.3363636363636" type="line"/>
      <point x="67.3969696969697" y="551.3636363636364" type="line"/>
      <point x="225.31818181818184" y="360.5848484848485" type="line"/>
      <point x="67.63333333333333" y="170.93333333333334" type="line"/>
    </contour>
  </outline>
</glyph>
<glyph name="divide" format="2">
  <advance width="465.2"/>
  <unicode hex="00F7"/>
  <outline>
    <contour>
      <point x="64.51212121212122" y="340.5181818181818" type="line"/>
      <point x="422.7909090909091" y="340.5181818181818" type="line"/>
      <point x="422.7909090909091" y="374.7969696969697" type="line"/>
      <point x="64.51212121212122" y="374.7969696969697" type="line"/>
    </contour>
    <contour>
      <point x="244.3" y="130.95454545454547" type="curve" smooth="yes"/>
      <point x="264.07272727272726" y="130.95454545454547"/>
      <point x="279.6151515151515" y="140.93636363636364"/>
      <point x="279.6151515151515" y="172.25454545454545" type="curve" smooth="yes"/>
      <point x="279.6151515151515" y="205.36060606060607"/>
      <point x="264.07272727272726" y="214.8939393939394"/>
      <point x="244.3" y="214.8939393939394" type="curve" smooth="yes"/>
      <point x="223.23030303030302" y="214.8939393939394"/>
      <point x="209.38787878787878" y="205.36060606060607"/>
      <point x="209.38787878787878" y="172.25454545454545" type="curve" smooth="yes"/>
      <point x="209.38787878787878" y="140.93636363636364"/>
      <point x="223.23030303030302" y="130.95454545454547"/>
    </contour>
    <contour>
      <point x="244.3" y="502.31212121212116" type="curve" smooth="yes"/>
      <point x="264.07272727272726" y="502.31212121212116"/>
      <point x="279.6151515151515" y="512.2939393939394"/>
      <point x="279.6151515151515" y="543.8484848484849" type="curve" smooth="yes"/>
      <point x="279.6151515151515" y="576.7181818181818"/>
      <point x="264.07272727272726" y="586.2515151515152"/>
      <point x="244.3" y="586.2515151515152" type="curve" smooth="yes"/>
      <point x="223.23030303030302" y="586.2515151515152"/>
      <point x="209.38787878787878" y="576.7181818181818"/>
      <point x="209.38787878787878" y="543.8484848484849" type="curve" smooth="yes"/>
      <point x="209.38787878787878" y="512.2939393939394"/>
      <point x="223.23030303030302" y="502.31212121212116"/>
    </contour>
  </outline>
</glyph>
<glyph name="udatta-deva" format="2">
  <unicode hex="0951"/>
  <anchor x="56.63636363636364" y="544.5454545454545" name="_vedic"/>
  <outline>
    <contour>
      <point x="118.34848484848484" y="906.0454545454545" type="line"/>
      <point x="149.4818181818182" y="906.0454545454545" type="line"/>
      <point x="188.9060606060606" y="1092.378787878788" type="line"/>
      <point x="157.77272727272725" y="1092.378787878788" type="line"/>
    </contour>
  </outline>
</glyph>
<glyph name="anudatta-deva" format="2">
  <unicode hex="0952"/>
  <anchor x="-59.0" y="0.0" name="_bottom"/>
  <outline>
    <contour>
      <point x="-340.9787878787879" y="-466.7757575757576" type="line"/>
      <point x="24.687878787878788" y="-466.7757575757576" type="line"/>
      <point x="32.14848484848485" y="-433.6545454545455" type="line"/>
      <point x="-334.06969696969696" y="-433.6545454545455" type="line"/>
    </contour>
  </outline>
</glyph>
<glyph name="danda-deva" format="2">
  <advance width="254.14545454545456"/>
  <unicode hex="0964"/>
  <outline>
    <contour>
      <point x="48.80606060606061" y="0.0" type="line"/>
      <point x="89.85151515151514" y="0.0" type="line"/>
      <point x="206.03939393939396" y="544.5454545454545" type="line"/>
      <point x="164.2939393939394" y="544.5454545454545" type="line"/>
    </contour>
  </outline>
</glyph>
<glyph name="dbldanda-deva" format="2">
  <advance width="456.72727272727275"/>
  <unicode hex="0965"/>
  <outline>
    <contour>
      <point x="251.15151515151513" y="0.0" type="line"/>
      <point x="292.43333333333334" y="0.0" type="line"/>
      <point x="408.06969696969696" y="544.5454545454545" type="line"/>
      <point x="366.6393939393939" y="544.5454545454545" type="line"/>
    </contour>
    <contour>
      <point x="48.80606060606061" y="0.0" type="line"/>
      <point x="89.85151515151514" y="0.0" type="line"/>
      <point x="206.03939393939396" y="544.5454545454545" type="line"/>
      <point x="164.2939393939394" y="544.5454545454545" type="line"/>
    </contour>
  </outline>
</glyph>
<glyph name="anusvara-tamil" format="2">
  <unicode hex="0B82"/>
  <note>
uni0B82
</note>
  <anchor x="56.63636363636364" y="544.5454545454545" name="_top"/>
  <outline>
    <contour>
      <point x="99.85454545454546" y="646.3939393939394" type="curve" smooth="yes"/>
      <point x="155.13333333333333" y="646.3939393939394"/>
      <point x="193.43333333333334" y="686.2727272727273"/>
      <point x="193.43333333333334" y="740.1242424242424" type="curve" smooth="yes"/>
      <point x="193.43333333333334" y="793.6545454545454"/>
      <point x="155.13333333333333" y="834.2333333333333"/>
      <point x="99.85454545454546" y="834.2333333333333" type="curve" smooth="yes"/>
      <point x="44.57575757575758" y="834.2333333333333"/>
      <point x="6.275757575757575" y="793.6545454545454"/>
      <point x="6.275757575757575" y="740.1242424242424" type="curve" smooth="yes"/>
      <point x="6.275757575757575" y="686.2727272727273"/>
      <point x="44.57575757575758" y="646.3939393939394"/>
    </contour>
    <contour>
      <point x="99.85454545454546" y="677.3090909090909" type="curve" smooth="yes"/>
      <point x="63.945454545454545" y="677.3090909090909"/>
      <point x="39.448484848484846" y="704.0030303030304"/>
      <point x="39.448484848484846" y="740.1242424242424" type="curve" smooth="yes"/>
      <point x="39.448484848484846" y="776.0727272727273"/>
      <point x="63.945454545454545" y="803.3181818181818"/>
      <point x="99.85454545454546" y="803.3181818181818" type="curve" smooth="yes"/>
      <point x="135.76363636363635" y="803.3181818181818"/>
      <point x="160.26060606060605" y="776.0727272727273"/>
      <point x="160.26060606060605" y="740.1242424242424" type="curve" smooth="yes"/>
      <point x="160.26060606060605" y="704.0030303030304"/>
      <point x="135.76363636363635" y="677.3090909090909"/>
    </contour>
  </outline>
</glyph>
<glyph name="visarga-tamil" format="2">
  <advance width="701.2484848484848"/>
  <unicode hex="0B83"/>
  <note>
uni0B83
</note>
  <outline>
    <contour>
      <point x="126.9818181818182" y="0.0" type="curve" smooth="yes"/>
      <point x="228.06666666666666" y="0.0"/>
      <point x="290.6787878787879" y="118.93636363636364"/>
      <point x="290.8272727272727" y="234.55757575757576" type="curve" smooth="yes"/>
      <point x="290.9757575757576" y="313.5939393939394"/>
      <point x="253.39393939393943" y="363.4848484848485"/>
      <point x="189.46666666666667" y="363.4848484848485" type="curve" smooth="yes"/>
      <point x="89.46666666666667" y="363.4848484848485"/>
      <point x="30.157575757575756" y="237.66666666666666"/>
      <point x="30.157575757575756" y="123.73333333333333" type="curve" smooth="yes"/>
      <point x="30.157575757575756" y="50.869696969696975"/>
      <point x="63.169696969696965" y="0.0"/>
    </contour>
    <contour>
      <point x="127.26060606060608" y="31.621212121212118" type="curve" smooth="yes"/>
      <point x="81.3848484848485" y="31.621212121212118"/>
      <point x="59.25757575757576" y="69.70303030303032"/>
      <point x="59.25757575757576" y="125.22424242424243" type="curve" smooth="yes"/>
      <point x="59.25757575757576" y="215.30303030303028"/>
      <point x="105.16666666666667" y="332.71515151515155"/>
      <point x="183.86060606060607" y="332.71515151515155" type="curve" smooth="yes"/>
      <point x="231.8090909090909" y="332.71515151515155"/>
      <point x="255.59696969696972" y="294.89393939393943"/>
      <point x="255.59696969696972" y="237.16363636363636" type="curve" smooth="yes"/>
      <point x="255.59696969696972" y="141.9424242424242"/>
      <point x="208.9969696969697" y="31.621212121212118"/>
    </contour>
    <contour>
      <point x="467.3484848484848" y="0.0" type="curve" smooth="yes"/>
      <point x="568.4333333333334" y="0.0"/>
      <point x="631.0454545454545" y="118.93636363636364"/>
      <point x="631.1939393939394" y="234.55757575757576" type="curve" smooth="yes"/>
      <point x="631.3424242424242" y="313.5939393939394"/>
      <point x="593.760606060606" y="363.4848484848485"/>
      <point x="529.8333333333334" y="363.4848484848485" type="curve" smooth="yes"/>
      <point x="429.83333333333326" y="363.4848484848485"/>
      <point x="370.5242424242424" y="237.66666666666666"/>
      <point x="370.5242424242424" y="123.73333333333333" type="curve" smooth="yes"/>
      <point x="370.5242424242424" y="50.869696969696975"/>
      <point x="403.5363636363636" y="0.0"/>
    </contour>
    <contour>
      <point x="467.6272727272727" y="31.621212121212118" type="curve" smooth="yes"/>
      <point x="421.75151515151515" y="31.621212121212118"/>
      <point x="399.6242424242424" y="69.70303030303032"/>
      <point x="399.6242424242424" y="125.22424242424243" type="curve" smooth="yes"/>
      <point x="399.6242424242424" y="215.30303030303028"/>
      <point x="445.53333333333336" y="332.71515151515155"/>
      <point x="524.2272727272727" y="332.71515151515155" type="curve" smooth="yes"/>
      <point x="572.1757575757575" y="332.71515151515155"/>
      <point x="595.9636363636365" y="294.89393939393943"/>
      <point x="595.9636363636365" y="237.16363636363636" type="curve" smooth="yes"/>
      <point x="595.9636363636365" y="141.9424242424242"/>
      <point x="549.3636363636364" y="31.621212121212118"/>
    </contour>
    <contour>
      <point x="378.6090909090909" y="405.6969696969697" type="curve" smooth="yes"/>
      <point x="479.69393939393944" y="405.6969696969697"/>
      <point x="542.3060606060606" y="524.6333333333333"/>
      <point x="542.4545454545455" y="640.2545454545455" type="curve" smooth="yes"/>
      <point x="542.6030303030302" y="719.290909090909"/>
      <point x="505.02121212121216" y="769.1818181818181"/>
      <point x="441.0939393939394" y="769.1818181818181" type="curve" smooth="yes"/>
      <point x="341.09393939393937" y="769.1818181818181"/>
      <point x="281.7848484848485" y="643.3636363636364"/>
      <point x="281.7848484848485" y="529.4303030303031" type="curve" smooth="yes"/>
      <point x="281.7848484848485" y="456.56666666666666"/>
      <point x="314.7969696969697" y="405.6969696969697"/>
    </contour>
    <contour>
      <point x="378.8878787878788" y="437.3181818181818" type="curve" smooth="yes"/>
      <point x="333.0121212121212" y="437.3181818181818"/>
      <point x="310.8848484848485" y="475.4"/>
      <point x="310.8848484848485" y="530.9212121212121" type="curve" smooth="yes"/>
      <point x="310.8848484848485" y="621.0000000000001"/>
      <point x="356.79393939393935" y="738.4121212121211"/>
      <point x="435.4878787878788" y="738.4121212121211" type="curve" smooth="yes"/>
      <point x="483.43636363636364" y="738.4121212121211"/>
      <point x="507.2242424242424" y="700.590909090909"/>
      <point x="507.2242424242424" y="642.8606060606062" type="curve" smooth="yes"/>
      <point x="507.2242424242424" y="547.6393939393938"/>
      <point x="460.6242424242424" y="437.3181818181818"/>
    </contour>
  </outline>
</glyph>
<glyph name="a-tamil" format="2">
  <advance width="1028.427272727273"/>
  <unicode hex="0B85"/>
  <note>
uni0B85
</note>
  <anchor x="438.48787878787874" y="0.0" name="bottom"/>
  <anchor x="284.639393939394" y="-89.69696969696969" name="nukta"/>
  <anchor x="556.5333333333333" y="544.5454545454545" name="top"/>
  <anchor x="557.3818181818182" y="544.5454545454545" name="vedic"/>
  <outline>
    <contour>
      <point x="798.2212121212121" y="-153.5181818181818" type="line"/>
      <point x="839.5030303030302" y="-153.5181818181818" type="line"/>
      <point x="988.4212121212121" y="545.0181818181818" type="line"/>
      <point x="946.5878787878788" y="545.0181818181818" type="line"/>
      <point x="865.9909090909092" y="164.77575757575758" type="line"/>
      <point x="64.52424242424243" y="164.77575757575758" type="line" smooth="yes"/>
      <point x="19.81515151515152" y="164.77575757575758"/>
      <point x="-1.7969696969696969" y="135.45151515151517"/>
      <point x="-1.7969696969696969" y="94.15454545454546" type="curve" smooth="yes"/>
      <point x="-1.7969696969696969" y="16.318181818181817"/>
      <point x="107.4151515151515" y="-89.22424242424243"/>
      <point x="291.43030303030304" y="-89.22424242424243" type="curve" smooth="yes"/>
      <point x="552.8636363636364" y="-89.22424242424243"/>
      <point x="742.030303030303" y="69.26969696969697"/>
      <point x="742.030303030303" y="324.96363636363634" type="curve" smooth="yes"/>
      <point x="742.030303030303" y="467.8515151515152"/>
      <point x="655.8272727272728" y="553.1696969696969"/>
      <point x="531.560606060606" y="553.1696969696969" type="curve" smooth="yes"/>
      <point x="411.0939393939394" y="553.1696969696969"/>
      <point x="327.430303030303" y="470.1242424242424"/>
      <point x="327.430303030303" y="365.09393939393937" type="curve" smooth="yes"/>
      <point x="327.430303030303" y="309.4303030303031"/>
      <point x="363.1272727272727" y="262.44242424242424"/>
      <point x="423.02121212121216" y="262.44242424242424" type="curve" smooth="yes"/>
      <point x="501.55151515151516" y="262.44242424242424"/>
      <point x="550.6575757575758" y="323.68787878787873"/>
      <point x="550.6575757575758" y="409.74848484848485" type="curve" smooth="yes"/>
      <point x="550.6575757575758" y="459.55757575757576"/>
      <point x="525.969696969697" y="510.1969696969697"/>
      <point x="492.26666666666665" y="531.7818181818182" type="curve"/>
      <point x="461.160606060606" y="528.3515151515152" type="line"/>
      <point x="494.95454545454544" y="500.530303030303"/>
      <point x="512.3696969696971" y="456.1787878787879"/>
      <point x="512.3696969696971" y="414.2181818181818" type="curve" smooth="yes"/>
      <point x="512.3696969696971" y="349.59999999999997"/>
      <point x="481.90909090909093" y="293.59393939393937"/>
      <point x="421.6272727272727" y="293.59393939393937" type="curve" smooth="yes"/>
      <point x="383.1424242424243" y="293.59393939393937"/>
      <point x="359.94848484848484" y="326.76060606060605"/>
      <point x="359.94848484848484" y="368.94848484848484" type="curve" smooth="yes"/>
      <point x="359.94848484848484" y="451.67272727272723"/>
      <point x="424.25151515151515" y="522.8060606060606"/>
      <point x="525.7818181818182" y="522.8060606060606" type="curve" smooth="yes"/>
      <point x="631.069696969697" y="522.8060606060606"/>
      <point x="699.4484848484849" y="445.5424242424242"/>
      <point x="699.4484848484849" y="322.76363636363635" type="curve" smooth="yes"/>
      <point x="699.4484848484849" y="95.74242424242424"/>
      <point x="528.8636363636364" y="-57.284848484848496"/>
      <point x="293.76666666666665" y="-57.284848484848496" type="curve" smooth="yes"/>
      <point x="135.04242424242423" y="-57.284848484848496"/>
      <point x="31.587878787878786" y="29.284848484848485"/>
      <point x="31.587878787878786" y="97.19393939393939" type="curve" smooth="yes"/>
      <point x="31.587878787878786" y="120.37575757575758"/>
      <point x="44.52424242424242" y="135.2"/>
      <point x="65.94242424242424" y="135.2" type="curve" smooth="yes"/>
      <point x="859.718181818182" y="135.2" type="line"/>
    </contour>
  </outline>
</glyph>
<glyph name="aa-tamil" format="2">
  <advance width="1116.6757575757574"/>
  <unicode hex="0B86"/>
  <note>
uni0B86
</note>
  <anchor x="490.2030303030304" y="0.0" name="bottom"/>
  <anchor x="276.7090909090909" y="-89.69696969696969" name="nukta"/>
  <anchor x="611.3424242424242" y="544.5454545454545" name="top"/>
  <anchor x="611.6636363636364" y="544.5454545454545" name="vedic"/>
  <outline>
    <contour>
      <point x="651.1393939393939" y="-394.53939393939396" type="curve" smooth="yes"/>
      <point x="816.7060606060606" y="-394.53939393939396"/>
      <point x="1016.7848484848483" y="-259.8939393939394"/>
      <point x="1016.7848484848483" y="-82.55757575757575" type="curve" smooth="yes"/>
      <point x="1016.7848484848483" y="-20.30909090909091"/>
      <point x="983.660606060606" y="10.333333333333336"/>
      <point x="938.7969696969698" y="10.333333333333336" type="curve" smooth="yes"/>
      <point x="893.009090909091" y="10.333333333333336"/>
      <point x="855.0545454545454" y="-27.824242424242424"/>
      <point x="833.709090909091" y="-100.87272727272727" type="curve"/>
      <point x="846.5454545454545" y="-110.7030303030303" type="line"/>
      <point x="860.8484848484849" y="-51.836363636363636"/>
      <point x="890.9454545454545" y="-27.37878787878788"/>
      <point x="925.5515151515151" y="-27.37878787878788" type="curve" smooth="yes"/>
      <point x="953.1242424242425" y="-27.37878787878788"/>
      <point x="974.3757575757575" y="-45.11212121212121"/>
      <point x="974.3757575757575" y="-87.37272727272727" type="curve" smooth="yes"/>
      <point x="974.3757575757575" y="-240.5181818181818"/>
      <point x="796.9606060606061" y="-361.26060606060605"/>
      <point x="652.6060606060607" y="-361.26060606060605" type="curve" smooth="yes"/>
      <point x="582.3424242424243" y="-361.26060606060605"/>
      <point x="537.778787878788" y="-332.4878787878788"/>
      <point x="537.778787878788" y="-277.1393939393939" type="curve" smooth="yes"/>
      <point x="537.778787878788" y="-224.3060606060606"/>
      <point x="574.7" y="-192.8242424242424"/>
      <point x="633.7636363636364" y="-168.5" type="curve"/>
      <point x="624.5181818181818" y="-139.27575757575755" type="line"/>
      <point x="551.2181818181818" y="-169.10909090909092"/>
      <point x="503.90303030303033" y="-208.65151515151516"/>
      <point x="503.90303030303033" y="-279.49696969696964" type="curve" smooth="yes"/>
      <point x="503.90303030303033" y="-348.72727272727275"/>
      <point x="559.3030303030304" y="-394.53939393939396"/>
    </contour>
    <component base="a-tamil"/>
  </outline>
</glyph>
<glyph name="i-tamil" format="2">
  <advance width="786.1727272727273"/>
  <unicode hex="0B87"/>
  <note>
uni0B87
</note>
  <anchor x="322.04848484848486" y="0.0" name="bottom"/>
  <anchor x="271.80909090909097" y="-249.44242424242427" name="nukta"/>
  <anchor x="463.3969696969697" y="786.1878787878788" name="top"/>
  <anchor x="424.1484848484848" y="544.5454545454545" name="vedic"/>
  <outline>
    <contour>
      <point x="84.41515151515152" y="-282.030303030303" type="curve" smooth="yes"/>
      <point x="326.21212121212125" y="-282.030303030303"/>
      <point x="595.3878787878788" y="77.14545454545454"/>
      <point x="595.3878787878788" y="354.4787878787879" type="curve" smooth="yes"/>
      <point x="595.3878787878788" y="477.31515151515146"/>
      <point x="530.0999999999999" y="552.6969696969697"/>
      <point x="420.4757575757576" y="552.6969696969697" type="curve" smooth="yes"/>
      <point x="313.6060606060606" y="552.6969696969697"/>
      <point x="233.5939393939394" y="466.6757575757576"/>
      <point x="233.5939393939394" y="364.4848484848485" type="curve" smooth="yes"/>
      <point x="233.5939393939394" y="306.0030303030303"/>
      <point x="268.3484848484849" y="262.1818181818182"/>
      <point x="325.19090909090914" y="262.1818181818182" type="curve" smooth="yes"/>
      <point x="401.9272727272728" y="262.1818181818182"/>
      <point x="452.5454545454545" y="327.11818181818177"/>
      <point x="452.5454545454545" y="407.95454545454544" type="curve" smooth="yes"/>
      <point x="452.5454545454545" y="460.7181818181818"/>
      <point x="430.760606060606" y="507.3333333333333"/>
      <point x="395.40606060606063" y="531.1818181818181" type="curve"/>
      <point x="365.4878787878788" y="526.309090909091" type="line"/>
      <point x="398.89696969696973" y="498.04848484848486"/>
      <point x="415.5545454545454" y="459.38181818181823"/>
      <point x="415.5545454545454" y="414.48787878787874" type="curve" smooth="yes"/>
      <point x="415.5545454545454" y="351.3545454545455"/>
      <point x="380.45151515151514" y="293.03636363636366"/>
      <point x="323.04848484848486" y="293.03636363636366" type="curve" smooth="yes"/>
      <point x="289.0666666666667" y="293.03636363636366"/>
      <point x="265.30909090909086" y="324.69090909090914"/>
      <point x="265.30909090909086" y="365.9727272727273" type="curve" smooth="yes"/>
      <point x="265.30909090909086" y="447.79999999999995"/>
      <point x="326.1606060606061" y="522.3333333333334"/>
      <point x="414.7212121212121" y="522.3333333333334" type="curve" smooth="yes"/>
      <point x="506.30909090909086" y="522.3333333333334"/>
      <point x="554.660606060606" y="455.9454545454546"/>
      <point x="554.660606060606" y="352.0696969696969" type="curve" smooth="yes"/>
      <point x="554.660606060606" y="100.31818181818183"/>
      <point x="307.6363636363637" y="-250.0909090909091"/>
      <point x="88.14545454545454" y="-250.0909090909091" type="curve" smooth="yes"/>
      <point x="26.078787878787878" y="-250.0909090909091"/>
      <point x="-6.427272727272725" y="-213.38181818181818"/>
      <point x="-6.427272727272725" y="-157.71212121212122" type="curve" smooth="yes"/>
      <point x="-6.427272727272725" y="-23.657575757575756"/>
      <point x="148.48181818181817" y="75.12121212121212"/>
      <point x="314.68787878787884" y="75.12121212121212" type="curve" smooth="yes"/>
      <point x="462.1545454545454" y="75.12121212121212"/>
      <point x="593.8878787878787" y="-3.8242424242424278"/>
      <point x="593.8878787878787" y="-125.0909090909091" type="curve" smooth="yes"/>
      <point x="593.8878787878787" y="-205.35151515151517"/>
      <point x="542.6939393939393" y="-250.0909090909091"/>
      <point x="461.57575757575756" y="-250.0909090909091" type="curve" smooth="yes"/>
      <point x="300.6090909090909" y="-250.0909090909091"/>
      <point x="111.44545454545454" y="19.10909090909091"/>
      <point x="111.44545454545454" y="309.030303030303" type="curve" smooth="yes"/>
      <point x="111.44545454545454" y="532.5878787878788"/>
      <point x="226.49696969696973" y="742.8212121212122"/>
      <point x="456.0939393939394" y="742.8212121212122" type="curve" smooth="yes"/>
      <point x="655.2121212121211" y="742.8212121212122"/>
      <point x="758.509090909091" y="589.2636363636364"/>
      <point x="709.260606060606" y="355.1545454545454" type="curve" smooth="yes"/>
      <point x="656.0545454545455" y="103.33333333333333" type="line"/>
      <point x="687.1606060606061" y="103.33333333333333" type="line"/>
      <point x="741.0666666666666" y="356.0454545454545" type="line" smooth="yes"/>
      <point x="796.909090909091" y="616.5090909090909"/>
      <point x="681.6181818181818" y="786.1878787878788"/>
      <point x="463.3969696969697" y="786.1878787878788" type="curve" smooth="yes"/>
      <point x="210.74545454545452" y="786.1878787878788"/>
      <point x="78.1" y="559.8818181818182"/>
      <point x="78.1" y="310.8212121212121" type="curve" smooth="yes"/>
      <point x="78.1" y="7.08181818181818"/>
      <point x="274.6484848484848" y="-282.030303030303"/>
      <point x="465.39393939393943" y="-282.030303030303" type="curve" smooth="yes"/>
      <point x="561.6999999999999" y="-282.030303030303"/>
      <point x="628.4454545454546" y="-225.47272727272727"/>
      <point x="628.4454545454546" y="-122.36363636363637" type="curve" smooth="yes"/>
      <point x="628.4454545454546" y="18.14242424242424"/>
      <point x="484.76666666666665" y="106.06060606060606"/>
      <point x="316.00606060606066" y="106.06060606060606" type="curve" smooth="yes"/>
      <point x="134.9272727272727" y="106.06060606060606"/>
      <point x="-42.04848484848485" y="-5.212121212121212"/>
      <point x="-42.04848484848485" y="-164.13333333333335" type="curve" smooth="yes"/>
      <point x="-42.04848484848485" y="-234.4969696969697"/>
      <point x="7.3636363636363615" y="-282.030303030303"/>
    </contour>
  </outline>
</glyph>
<glyph name="ii-tamil" format="2">
  <advance width="608.4606060606061"/>
  <unicode hex="0B88"/>
  <note>
uni0B88
</note>
  <anchor x="264.1181818181818" y="0.0" name="bottom"/>
  <anchor x="264.5030303030303" y="0.0" name="nukta"/>
  <anchor x="382.9454545454546" y="544.5454545454545" name="top"/>
  <anchor x="383.0939393939394" y="544.5454545454545" name="vedic"/>
  <outline>
    <contour>
      <point x="40.390909090909105" y="0.0" type="line"/>
      <point x="72.47575757575758" y="0.0" type="line"/>
      <point x="181.62727272727273" y="514.969696969697" type="line"/>
      <point x="416.07575757575756" y="514.969696969697" type="line"/>
      <point x="306.0727272727273" y="0.0" type="line"/>
      <point x="348.4575757575758" y="0.0" type="line"/>
      <point x="457.609090909091" y="514.969696969697" type="line"/>
      <point x="617.060606060606" y="514.969696969697" type="line"/>
      <point x="623.5454545454545" y="544.5454545454545" type="line"/>
      <point x="156.43030303030304" y="544.5454545454545" type="line"/>
    </contour>
    <contour>
      <point x="242.64242424242423" y="226.25757575757575" type="curve" smooth="yes"/>
      <point x="263.27575757575755" y="226.25757575757575"/>
      <point x="279.3424242424243" y="242.2151515151515"/>
      <point x="279.3424242424243" y="261.6363636363636" type="curve" smooth="yes"/>
      <point x="279.3424242424243" y="280.5060606060606"/>
      <point x="263.27575757575755" y="297.6515151515151"/>
      <point x="242.64242424242423" y="297.6515151515151" type="curve" smooth="yes"/>
      <point x="222.00909090909093" y="297.6515151515151"/>
      <point x="206.1787878787879" y="280.5060606060606"/>
      <point x="206.1787878787879" y="261.6363636363636" type="curve" smooth="yes"/>
      <point x="206.1787878787879" y="242.2151515151515"/>
      <point x="222.00909090909093" y="226.25757575757575"/>
    </contour>
    <contour>
      <point x="521.5454545454546" y="226.25757575757575" type="curve" smooth="yes"/>
      <point x="542.178787878788" y="226.25757575757575"/>
      <point x="558.2454545454545" y="242.2151515151515"/>
      <point x="558.2454545454545" y="261.6363636363636" type="curve" smooth="yes"/>
      <point x="558.2454545454545" y="280.5060606060606"/>
      <point x="542.178787878788" y="297.6515151515151"/>
      <point x="521.5454545454546" y="297.6515151515151" type="curve" smooth="yes"/>
      <point x="500.91212121212124" y="297.6515151515151"/>
      <point x="485.08181818181816" y="280.5060606060606"/>
      <point x="485.08181818181816" y="261.6363636363636" type="curve" smooth="yes"/>
      <point x="485.08181818181816" y="242.2151515151515"/>
      <point x="500.91212121212124" y="226.25757575757575"/>
    </contour>
  </outline>
</glyph>
<glyph name="u-tamil" format="2">
  <advance width="831.3272727272729"/>
  <unicode hex="0B89"/>
  <note>
uni0B89
</note>
  <anchor x="376.53030303030306" y="0.0" name="bottom"/>
  <anchor x="376.6787878787879" y="0.0" name="nukta"/>
  <anchor x="494.4636363636364" y="544.5454545454545" name="top"/>
  <anchor x="494.6151515151515" y="544.5454545454545" name="vedic"/>
  <outline>
    <contour>
      <point x="88.10606060606061" y="0.0" type="curve" smooth="yes"/>
      <point x="747.0272727272728" y="0.0" type="line"/>
      <point x="753.1272727272727" y="29.575757575757578" type="line"/>
      <point x="91.46363636363637" y="29.575757575757578" type="line" smooth="yes"/>
      <point x="56.82727272727273" y="29.575757575757578"/>
      <point x="36.88787878787879" y="52.96969696969696"/>
      <point x="36.88787878787879" y="83.43636363636364" type="curve" smooth="yes"/>
      <point x="36.88787878787879" y="121.25757575757575"/>
      <point x="65.53636363636365" y="143.66666666666666"/>
      <point x="104.8939393939394" y="143.66666666666666" type="curve" smooth="yes"/>
      <point x="288.00606060606054" y="143.66666666666666" type="line" smooth="yes"/>
      <point x="430.6606060606061" y="143.66666666666666"/>
      <point x="536.3575757575758" y="234.03939393939393"/>
      <point x="536.3575757575758" y="375.81515151515146" type="curve" smooth="yes"/>
      <point x="536.3575757575758" y="493.4060606060606"/>
      <point x="454.78181818181815" y="552.6969696969697"/>
      <point x="349.0363636363636" y="552.6969696969697" type="curve" smooth="yes"/>
      <point x="236.42424242424238" y="552.6969696969697"/>
      <point x="145.62121212121212" y="469.04545454545456"/>
      <point x="145.62121212121212" y="364.8424242424242" type="curve" smooth="yes"/>
      <point x="145.62121212121212" y="308.9121212121212"/>
      <point x="179.5" y="261.969696969697"/>
      <point x="239.75151515151515" y="261.969696969697" type="curve" smooth="yes"/>
      <point x="314.70000000000005" y="261.969696969697"/>
      <point x="368.22424242424245" y="319.8242424242424"/>
      <point x="368.22424242424245" y="403.8969696969697" type="curve" smooth="yes"/>
      <point x="368.22424242424245" y="460.5"/>
      <point x="344.8787878787878" y="503.6363636363637"/>
      <point x="312.3636363636364" y="531.6060606060606" type="curve"/>
      <point x="282.0242424242424" y="527.030303030303" type="line"/>
      <point x="315.0969696969697" y="492.4818181818182"/>
      <point x="330.8727272727273" y="453.5575757575758"/>
      <point x="330.8727272727273" y="405.8606060606061" type="curve" smooth="yes"/>
      <point x="330.8727272727273" y="342.9090909090909"/>
      <point x="293.08484848484846" y="293.1212121212121"/>
      <point x="237.84545454545452" y="293.1212121212121" type="curve" smooth="yes"/>
      <point x="198.04545454545453" y="293.1212121212121"/>
      <point x="177.1848484848485" y="327.1393939393939"/>
      <point x="177.1848484848485" y="367.3757575757576" type="curve" smooth="yes"/>
      <point x="177.1848484848485" y="452.60909090909087"/>
      <point x="249.74848484848488" y="522.3333333333334"/>
      <point x="344.1060606060606" y="522.3333333333334" type="curve" smooth="yes"/>
      <point x="430.7272727272727" y="522.3333333333334"/>
      <point x="494.1212121212121" y="473.6181818181818"/>
      <point x="494.1212121212121" y="376.2121212121212" type="curve" smooth="yes"/>
      <point x="494.1212121212121" y="256.7727272727273"/>
      <point x="410.2212121212121" y="173.8181818181818"/>
      <point x="286.70606060606053" y="173.8181818181818" type="curve" smooth="yes"/>
      <point x="108.43030303030302" y="173.8181818181818" type="line" smooth="yes"/>
      <point x="47.027272727272724" y="173.8181818181818"/>
      <point x="5.157575757575758" y="137.52424242424243"/>
      <point x="5.157575757575758" y="80.22424242424243" type="curve" smooth="yes"/>
      <point x="5.157575757575758" y="37.087878787878786"/>
      <point x="33.92727272727273" y="0.0"/>
    </contour>
  </outline>
</glyph>
<glyph name="uu-tamil" format="2">
  <advance width="1323.878787878788"/>
  <unicode hex="0B8A"/>
  <note>
uni0B8A
</note>
  <anchor x="643.8878787878789" y="0.0" name="bottom"/>
  <anchor x="644.739393939394" y="0.0" name="nukta"/>
  <anchor x="762.5878787878788" y="544.5454545454545" name="top"/>
  <anchor x="762.5242424242424" y="544.5454545454545" name="vedic"/>
  <outline>
    <contour>
      <point x="88.10606060606061" y="0.0" type="curve" smooth="yes"/>
      <point x="1246.1303030303031" y="0.0" type="line"/>
      <point x="1252.2303030303028" y="29.575757575757578" type="line"/>
      <point x="91.46363636363637" y="29.575757575757578" type="line" smooth="yes"/>
      <point x="56.82727272727273" y="29.575757575757578"/>
      <point x="36.88787878787879" y="52.96969696969696"/>
      <point x="36.88787878787879" y="83.43636363636364" type="curve" smooth="yes"/>
      <point x="36.88787878787879" y="121.25757575757575"/>
      <point x="65.53636363636365" y="143.66666666666666"/>
      <point x="104.8939393939394" y="143.66666666666666" type="curve" smooth="yes"/>
      <point x="288.00606060606054" y="143.66666666666666" type="line" smooth="yes"/>
      <point x="430.6606060606061" y="143.66666666666666"/>
      <point x="536.3575757575758" y="234.03939393939393"/>
      <point x="536.3575757575758" y="375.81515151515146" type="curve" smooth="yes"/>
      <point x="536.3575757575758" y="493.4060606060606"/>
      <point x="454.78181818181815" y="552.6969696969697"/>
      <point x="349.0363636363636" y="552.6969696969697" type="curve" smooth="yes"/>
      <point x="236.42424242424238" y="552.6969696969697"/>
      <point x="145.62121212121212" y="469.04545454545456"/>
      <point x="145.62121212121212" y="364.8424242424242" type="curve" smooth="yes"/>
      <point x="145.62121212121212" y="308.9121212121212"/>
      <point x="179.5" y="261.969696969697"/>
      <point x="239.75151515151515" y="261.969696969697" type="curve" smooth="yes"/>
      <point x="314.70000000000005" y="261.969696969697"/>
      <point x="368.22424242424245" y="319.8242424242424"/>
      <point x="368.22424242424245" y="403.8969696969697" type="curve" smooth="yes"/>
      <point x="368.22424242424245" y="460.5"/>
      <point x="344.8787878787878" y="503.6363636363637"/>
      <point x="312.3636363636364" y="531.6060606060606" type="curve"/>
      <point x="282.0242424242424" y="527.030303030303" type="line"/>
      <point x="315.0969696969697" y="492.4818181818182"/>
      <point x="330.8727272727273" y="453.5575757575758"/>
      <point x="330.8727272727273" y="405.8606060606061" type="curve" smooth="yes"/>
      <point x="330.8727272727273" y="342.9090909090909"/>
      <point x="293.08484848484846" y="293.1212121212121"/>
      <point x="237.84545454545452" y="293.1212121212121" type="curve" smooth="yes"/>
      <point x="198.04545454545453" y="293.1212121212121"/>
      <point x="177.1848484848485" y="327.1393939393939"/>
      <point x="177.1848484848485" y="367.3757575757576" type="curve" smooth="yes"/>
      <point x="177.1848484848485" y="452.60909090909087"/>
      <point x="249.74848484848488" y="522.3333333333334"/>
      <point x="344.1060606060606" y="522.3333333333334" type="curve" smooth="yes"/>
      <point x="430.7272727272727" y="522.3333333333334"/>
      <point x="494.1212121212121" y="473.6181818181818"/>
      <point x="494.1212121212121" y="376.2121212121212" type="curve" smooth="yes"/>
      <point x="494.1212121212121" y="256.7727272727273"/>
      <point x="410.2212121212121" y="173.8181818181818"/>
      <point x="286.70606060606053" y="173.8181818181818" type="curve" smooth="yes"/>
      <point x="108.43030303030302" y="173.8181818181818" type="line" smooth="yes"/>
      <point x="47.027272727272724" y="173.8181818181818"/>
      <point x="5.157575757575758" y="137.52424242424243"/>
      <point x="5.157575757575758" y="80.22424242424243" type="curve" smooth="yes"/>
      <point x="5.157575757575758" y="37.087878787878786"/>
      <point x="33.92727272727273" y="0.0"/>
    </contour>
    <contour>
      <point x="709.2272727272727" y="103.78787878787878" type="curve" smooth="yes"/>
      <point x="787.1030303030304" y="103.78787878787878"/>
      <point x="847.6636363636363" y="170.56363636363636"/>
      <point x="847.6636363636363" y="263.1545454545454" type="curve" smooth="yes"/>
      <point x="847.6636363636363" y="332.27272727272725"/>
      <point x="808.4575757575757" y="375.26666666666665"/>
      <point x="749.4939393939395" y="375.26666666666665" type="curve" smooth="yes"/>
      <point x="688.930303030303" y="375.26666666666665"/>
      <point x="639.3757575757576" y="325.41515151515154"/>
      <point x="610.821212121212" y="255.78484848484848" type="curve"/>
      <point x="617.2969696969697" y="227.7121212121212" type="line"/>
      <point x="646.6484848484849" y="295.9727272727273"/>
      <point x="688.4121212121211" y="342.75757575757575"/>
      <point x="739.0393939393939" y="342.75757575757575" type="curve" smooth="yes"/>
      <point x="783.4424242424243" y="342.75757575757575"/>
      <point x="808.7818181818183" y="312.6121212121212"/>
      <point x="808.7818181818183" y="259.24545454545455" type="curve" smooth="yes"/>
      <point x="808.7818181818183" y="191.0787878787879"/>
      <point x="766.6606060606061" y="134.72727272727272"/>
      <point x="707.6393939393939" y="134.72727272727272" type="curve" smooth="yes"/>
      <point x="652.4787878787879" y="134.72727272727272"/>
      <point x="622.0999999999999" y="187.8090909090909"/>
      <point x="622.3363636363637" y="256.6121212121212" type="curve" smooth="yes"/>
      <point x="622.5727272727272" y="382.56969696969696"/>
      <point x="702.239393939394" y="522.3333333333334"/>
      <point x="831.7848484848486" y="522.3333333333334" type="curve" smooth="yes"/>
      <point x="930.5242424242425" y="522.3333333333334"/>
      <point x="987.8151515151515" y="446.9969696969697"/>
      <point x="963.0696969696969" y="329.030303030303" type="curve"/>
      <point x="989.6939393939394" y="329.8181818181818" type="line"/>
      <point x="1018.6484848484849" y="469.4666666666667"/>
      <point x="950.2060606060605" y="552.9333333333334"/>
      <point x="833.5909090909091" y="552.6969696969697" type="curve" smooth="yes"/>
      <point x="686.890909090909" y="552.460606060606"/>
      <point x="590.730303030303" y="400.07575757575756"/>
      <point x="590.730303030303" y="255.14242424242425" type="curve" smooth="yes"/>
      <point x="590.730303030303" y="172.4787878787879"/>
      <point x="633.5333333333333" y="103.78787878787878"/>
    </contour>
    <contour>
      <point x="915.8424242424244" y="107.0" type="line"/>
      <point x="956.3545454545456" y="107.0" type="line"/>
      <point x="1043.357575757576" y="515.3939393939394" type="line"/>
      <point x="1210.4575757575758" y="515.3939393939394" type="line"/>
      <point x="1124.0939393939393" y="107.0" type="line"/>
      <point x="1164.1424242424243" y="107.0" type="line"/>
      <point x="1251.057575757576" y="515.3939393939394" type="line"/>
      <point x="1356.448484848485" y="515.3939393939394" type="line"/>
      <point x="1362.7212121212121" y="544.5454545454545" type="line"/>
      <point x="1011.2151515151513" y="544.5454545454545" type="line"/>
      <point x="981.8575757575758" y="407.44242424242424" type="line"/>
      <point x="975.7575757575758" y="390.0484848484848" type="line"/>
    </contour>
  </outline>
</glyph>
<glyph name="e-tamil" format="2">
  <advance width="695.7878787878786"/>
  <unicode hex="0B8E"/>
  <note>
uni0B8E
</note>
  <anchor x="305.1818181818182" y="0.0" name="bottom"/>
  <anchor x="306.1818181818182" y="0.0" name="nukta"/>
  <anchor x="423.139393939394" y="544.5454545454545" name="top"/>
  <anchor x="423.8181818181818" y="544.5454545454545" name="vedic"/>
  <outline>
    <contour>
      <point x="174.26363636363638" y="-4.212121212121212" type="curve" smooth="yes"/>
      <point x="252.930303030303" y="-4.212121212121212"/>
      <point x="318.0181818181818" y="63.17272727272728"/>
      <point x="318.0181818181818" y="164.03636363636363" type="curve" smooth="yes"/>
      <point x="318.0181818181818" y="242.06666666666666"/>
      <point x="273.6484848484849" y="287.24242424242425"/>
      <point x="210.69393939393942" y="287.24242424242425" type="curve" smooth="yes"/>
      <point x="137.09999999999997" y="287.24242424242425"/>
      <point x="84.66060606060606" y="227.9818181818182"/>
      <point x="56.2939393939394" y="158.26363636363635" type="curve"/>
      <point x="67.27272727272727" y="130.48484848484847" type="line"/>
      <point x="99.62424242424242" y="202.82727272727274"/>
      <point x="139.7878787878788" y="253.33333333333334"/>
      <point x="200.0242424242424" y="253.33333333333334" type="curve" smooth="yes"/>
      <point x="249.87272727272727" y="253.33333333333334"/>
      <point x="276.969696969697" y="220.8909090909091"/>
      <point x="276.969696969697" y="158.62121212121212" type="curve" smooth="yes"/>
      <point x="276.969696969697" y="82.09696969696971"/>
      <point x="230.94242424242424" y="26.93939393939394"/>
      <point x="173.35757575757577" y="26.93939393939394" type="curve" smooth="yes"/>
      <point x="110.70606060606059" y="26.93939393939394"/>
      <point x="70.3060606060606" y="80.38484848484848"/>
      <point x="70.3060606060606" y="177.36060606060607" type="curve" smooth="yes"/>
      <point x="70.3060606060606" y="338.6969696969697"/>
      <point x="165.6787878787879" y="514.969696969697"/>
      <point x="353.5636363636364" y="514.969696969697" type="curve" smooth="yes"/>
      <point x="548.5484848484848" y="514.969696969697" type="line"/>
      <point x="439.39696969696973" y="0.0" type="line"/>
      <point x="480.44242424242424" y="0.0" type="line"/>
      <point x="590.1454545454545" y="514.969696969697" type="line"/>
      <point x="722.6181818181818" y="514.969696969697" type="line"/>
      <point x="728.8909090909091" y="544.5454545454545" type="line"/>
      <point x="355.0363636363636" y="544.5454545454545" type="line" smooth="yes"/>
      <point x="143.9121212121212" y="544.5454545454545"/>
      <point x="38.32121212121212" y="353.6636363636364"/>
      <point x="38.32121212121212" y="175.86969696969697" type="curve" smooth="yes"/>
      <point x="38.32121212121212" y="62.13939393939395"/>
      <point x="91.46666666666668" y="-4.212121212121212"/>
    </contour>
  </outline>
</glyph>
<glyph name="ee-tamil" format="2">
  <advance width="707.8575757575758"/>
  <unicode hex="0B8F"/>
  <note>
uni0B8F
</note>
  <anchor x="305.7121212121212" y="0.0" name="bottom"/>
  <anchor x="268.660606060606" y="-178.2" name="nukta"/>
  <anchor x="424.8121212121212" y="544.5454545454545" name="top"/>
  <anchor x="424.3484848484848" y="544.5454545454545" name="vedic"/>
  <outline>
    <contour>
      <point x="278.44848484848484" y="-202.27272727272728" type="line"/>
      <point x="481.31212121212127" y="3.3424242424242436" type="line"/>
      <point x="590.3818181818182" y="514.969696969697" type="line"/>
      <point x="734.6878787878788" y="514.969696969697" type="line"/>
      <point x="741.0242424242424" y="544.5454545454545" type="line"/>
      <point x="355.0363636363636" y="544.5454545454545" type="line" smooth="yes"/>
      <point x="143.9121212121212" y="544.5454545454545"/>
      <point x="38.32121212121212" y="353.6636363636364"/>
      <point x="38.32121212121212" y="175.86969696969697" type="curve" smooth="yes"/>
      <point x="38.32121212121212" y="62.13939393939395"/>
      <point x="91.23030303030302" y="-4.212121212121212"/>
      <point x="174.0272727272727" y="-4.212121212121212" type="curve" smooth="yes"/>
      <point x="252.69393939393936" y="-4.212121212121212"/>
      <point x="318.0181818181818" y="63.17272727272728"/>
      <point x="318.0181818181818" y="164.03636363636363" type="curve" smooth="yes"/>
      <point x="318.0181818181818" y="241.83030303030304"/>
      <point x="273.6484848484849" y="287.24242424242425"/>
      <point x="210.69393939393942" y="287.24242424242425" type="curve" smooth="yes"/>
      <point x="137.09999999999997" y="287.24242424242425"/>
      <point x="84.66060606060606" y="227.9818181818182"/>
      <point x="56.2939393939394" y="158.26363636363635" type="curve"/>
      <point x="67.27272727272727" y="130.48484848484847" type="line"/>
      <point x="99.62424242424242" y="202.82727272727274"/>
      <point x="139.7878787878788" y="253.33333333333334"/>
      <point x="200.0242424242424" y="253.33333333333334" type="curve" smooth="yes"/>
      <point x="249.87272727272727" y="253.33333333333334"/>
      <point x="276.969696969697" y="220.8909090909091"/>
      <point x="276.969696969697" y="158.62121212121212" type="curve" smooth="yes"/>
      <point x="276.969696969697" y="82.09696969696971"/>
      <point x="230.7060606060606" y="26.93939393939394"/>
      <point x="173.12121212121212" y="26.93939393939394" type="curve" smooth="yes"/>
      <point x="110.46969696969697" y="26.93939393939394"/>
      <point x="70.3060606060606" y="80.38484848484848"/>
      <point x="70.3060606060606" y="177.36060606060607" type="curve" smooth="yes"/>
      <point x="70.3060606060606" y="338.6969696969697"/>
      <point x="165.6787878787879" y="514.969696969697"/>
      <point x="353.5636363636364" y="514.969696969697" type="curve" smooth="yes"/>
      <point x="549.1" y="514.969696969697" type="line"/>
      <point x="441.2484848484849" y="7.581818181818182" type="line"/>
      <point x="256.54848484848486" y="-180.17272727272726" type="line"/>
    </contour>
  </outline>
</glyph>
<glyph name="ai-tamil" format="2">
  <advance width="773.5393939393939"/>
  <unicode hex="0B90"/>
  <note>
uni0B90
</note>
  <anchor x="337.6666666666667" y="0.0" name="bottom"/>
  <anchor x="276.1" y="-281.8181818181818" name="nukta"/>
  <anchor x="458.4636363636364" y="544.5454545454545" name="top"/>
  <anchor x="458.29696969696977" y="544.5454545454545" name="vedic"/>
  <outline>
    <contour>
      <point x="121.86666666666669" y="-281.8181818181818" type="curve" smooth="yes"/>
      <point x="213.61818181818182" y="-281.8181818181818"/>
      <point x="274.26060606060605" y="-227.4969696969697"/>
      <point x="311.130303030303" y="-160.3030303030303" type="curve"/>
      <point x="318.30303030303037" y="-226.12121212121212"/>
      <point x="360.55454545454546" y="-281.8181818181818"/>
      <point x="446.14242424242417" y="-281.8181818181818" type="curve" smooth="yes"/>
      <point x="566.5545454545455" y="-281.8181818181818"/>
      <point x="647.069696969697" y="-181.2909090909091"/>
      <point x="647.069696969697" y="-55.157575757575756" type="curve" smooth="yes"/>
      <point x="647.069696969697" y="-4.660606060606063"/>
      <point x="635.3757575757577" y="38.59090909090909"/>
      <point x="618.5303030303031" y="76.30909090909091" type="curve"/>
      <point x="586.630303030303" y="60.77878787878788" type="line"/>
      <point x="601.4878787878788" y="29.454545454545457"/>
      <point x="612.4878787878788" y="-11.100000000000003"/>
      <point x="612.4878787878788" y="-56.03636363636364" type="curve" smooth="yes"/>
      <point x="612.4878787878788" y="-161.29696969696968"/>
      <point x="546.2575757575758" y="-249.96969696969697"/>
      <point x="447.9757575757576" y="-249.96969696969697" type="curve" smooth="yes"/>
      <point x="357.8030303030303" y="-249.96969696969697"/>
      <point x="329.45454545454544" y="-179.93030303030304"/>
      <point x="349.86363636363643" y="-83.0848484848485" type="curve" smooth="yes"/>
      <point x="364.23636363636365" y="-15.0" type="line"/>
      <point x="324.0515151515151" y="-15.0" type="line"/>
      <point x="309.1333333333333" y="-84.43030303030304" type="line" smooth="yes"/>
      <point x="292.1121212121212" y="-162.1878787878788"/>
      <point x="224.62727272727273" y="-251.24242424242425"/>
      <point x="128.24545454545455" y="-251.24242424242425" type="curve" smooth="yes"/>
      <point x="58.760606060606065" y="-251.24242424242425"/>
      <point x="19.351515151515155" y="-205.73333333333332"/>
      <point x="19.351515151515155" y="-126.34848484848484" type="curve" smooth="yes"/>
      <point x="19.351515151515155" y="36.29090909090909"/>
      <point x="150.05757575757576" y="71.2939393939394"/>
      <point x="363.58181818181816" y="95.4969696969697" type="curve" smooth="yes"/>
      <point x="590.6181818181819" y="121.63030303030303"/>
      <point x="736.8151515151515" y="199.34848484848484"/>
      <point x="736.8151515151515" y="393.4242424242424" type="curve" smooth="yes"/>
      <point x="736.8151515151515" y="496.3181818181818"/>
      <point x="677.2363636363638" y="552.6969696969697"/>
      <point x="595.4757575757576" y="552.6969696969697" type="curve" smooth="yes"/>
      <point x="514.4787878787879" y="552.6969696969697"/>
      <point x="463.4030303030303" y="498.2969696969697"/>
      <point x="432.2606060606061" y="432.0515151515151" type="curve"/>
      <point x="420.1212121212122" y="500.3030303030303"/>
      <point x="368.7151515151515" y="552.6969696969697"/>
      <point x="279.45454545454544" y="552.6969696969697" type="curve" smooth="yes"/>
      <point x="147.87575757575758" y="552.6969696969697"/>
      <point x="61.415151515151514" y="432.17878787878794"/>
      <point x="61.415151515151514" y="301.9939393939394" type="curve" smooth="yes"/>
      <point x="61.415151515151514" y="221.77272727272725"/>
      <point x="98.06363636363638" y="162.3030303030303"/>
      <point x="164.26969696969698" y="162.3030303030303" type="curve" smooth="yes"/>
      <point x="233.27575757575755" y="162.3030303030303"/>
      <point x="287.7909090909091" y="221.66969696969696"/>
      <point x="287.7909090909091" y="302.469696969697" type="curve" smooth="yes"/>
      <point x="287.7909090909091" y="363.73030303030305"/>
      <point x="254.52424242424243" y="400.969696969697"/>
      <point x="202.07878787878786" y="400.969696969697" type="curve" smooth="yes"/>
      <point x="146.4212121212121" y="400.969696969697"/>
      <point x="103.30909090909091" y="354.56060606060606"/>
      <point x="77.05151515151516" y="282.95757575757574" type="curve"/>
      <point x="86.46666666666667" y="260.74848484848485" type="line"/>
      <point x="117.91212121212122" y="333.2121212121212"/>
      <point x="150.86363636363637" y="368.7393939393939"/>
      <point x="190.84242424242427" y="368.7393939393939" type="curve" smooth="yes"/>
      <point x="228.29393939393938" y="368.7393939393939"/>
      <point x="249.43939393939397" y="343.7121212121212"/>
      <point x="249.43939393939397" y="297.1181818181818" type="curve" smooth="yes"/>
      <point x="249.43939393939397" y="242.75454545454548"/>
      <point x="216.2121212121212" y="194.24242424242425"/>
      <point x="164.1878787878788" y="194.24242424242425" type="curve" smooth="yes"/>
      <point x="116.15454545454547" y="194.24242424242425"/>
      <point x="92.72121212121212" y="236.830303030303"/>
      <point x="92.72121212121212" y="301.8484848484848" type="curve" smooth="yes"/>
      <point x="92.72121212121212" y="408.1575757575757"/>
      <point x="160.7939393939394" y="521.5454545454545"/>
      <point x="274.1575757575757" y="521.5454545454545" type="curve" smooth="yes"/>
      <point x="367.030303030303" y="521.5454545454545"/>
      <point x="419.99696969696964" y="456.8"/>
      <point x="398.160606060606" y="354.91818181818184" type="curve" smooth="yes"/>
      <point x="367.1969696969697" y="209.4848484848485" type="line"/>
      <point x="407.3818181818182" y="209.4848484848485" type="line"/>
      <point x="439.03636363636366" y="361.26969696969695" type="line" smooth="yes"/>
      <point x="454.569696969697" y="434.6151515151515"/>
      <point x="502.40606060606063" y="522.3333333333334"/>
      <point x="588.9727272727273" y="522.3333333333334" type="curve" smooth="yes"/>
      <point x="655.1909090909091" y="522.3333333333334"/>
      <point x="694.4242424242424" y="475.25757575757575"/>
      <point x="694.4242424242424" y="392.330303030303" type="curve" smooth="yes"/>
      <point x="694.4242424242424" y="208.0939393939394"/>
      <point x="563.1090909090909" y="144.4151515151515"/>
      <point x="346.03939393939396" y="120.14848484848486" type="curve" smooth="yes"/>
      <point x="118.99696969696971" y="94.8"/>
      <point x="-22.503030303030307" y="47.718181818181826"/>
      <point x="-22.503030303030307" y="-127.18181818181819" type="curve" smooth="yes"/>
      <point x="-22.503030303030307" y="-224.24545454545452"/>
      <point x="35.60303030303031" y="-281.8181818181818"/>
    </contour>
  </outline>
</glyph>
<glyph name="o-tamil" format="2">
  <advance width="784.5666666666666"/>
  <unicode hex="0B92"/>
  <note>
uni0B92
</note>
  <anchor x="337.37575757575763" y="0.0" name="bottom"/>
  <anchor x="264.37575757575763" y="-335.0" name="nukta"/>
  <anchor x="441.9030303030303" y="544.5454545454545" name="top"/>
  <anchor x="442.0484848484848" y="544.5454545454545" name="vedic"/>
  <outline>
    <contour>
      <point x="186.3939393939394" y="-274.89696969696973" type="curve" smooth="yes"/>
      <point x="321.04848484848486" y="-274.89696969696973"/>
      <point x="378.7939393939394" y="-121.75454545454545"/>
      <point x="522.569696969697" y="-121.75454545454545" type="curve" smooth="yes"/>
      <point x="541.4121212121212" y="-121.75454545454545" type="line"/>
      <point x="547.8333333333334" y="-91.45454545454544" type="line"/>
      <point x="519.9424242424243" y="-91.45454545454544" type="line" smooth="yes"/>
      <point x="356.8666666666667" y="-91.45454545454544"/>
      <point x="352.1212121212121" y="79.28787878787878"/>
      <point x="466.72424242424245" y="216.46363636363637" type="curve"/>
      <point x="470.55757575757576" y="213.71515151515152" type="line"/>
      <point x="414.5060606060606" y="104.5878787878788"/>
      <point x="426.2878787878788" y="-5.0"/>
      <point x="530.3818181818182" y="-5.0" type="curve" smooth="yes"/>
      <point x="643.2666666666667" y="-5.0"/>
      <point x="721.730303030303" y="113.6030303030303"/>
      <point x="721.730303030303" y="256.0181818181818" type="curve" smooth="yes"/>
      <point x="721.730303030303" y="444.53333333333336"/>
      <point x="591.4424242424243" y="552.6969696969697"/>
      <point x="412.44848484848484" y="552.6969696969697" type="curve" smooth="yes"/>
      <point x="199.84545454545454" y="552.6969696969697"/>
      <point x="37.24848484848485" y="372.1636363636364"/>
      <point x="37.24848484848485" y="183.0727272727273" type="curve" smooth="yes"/>
      <point x="37.24848484848485" y="61.62121212121212"/>
      <point x="88.26666666666665" y="-4.212121212121212"/>
      <point x="170.76666666666665" y="-4.212121212121212" type="curve" smooth="yes"/>
      <point x="249.58181818181816" y="-4.212121212121212"/>
      <point x="316.05454545454546" y="62.7"/>
      <point x="316.05454545454546" y="164.03636363636363" type="curve" smooth="yes"/>
      <point x="316.05454545454546" y="242.06666666666666"/>
      <point x="272.130303030303" y="287.24242424242425"/>
      <point x="209.17575757575756" y="287.24242424242425" type="curve" smooth="yes"/>
      <point x="135.5818181818182" y="287.24242424242425"/>
      <point x="83.58787878787878" y="227.9818181818182"/>
      <point x="55.22121212121212" y="158.26363636363635" type="curve"/>
      <point x="66.2" y="130.48484848484847" type="line"/>
      <point x="98.55151515151515" y="202.82727272727274"/>
      <point x="138.26969696969695" y="253.33333333333334"/>
      <point x="198.50606060606063" y="253.33333333333334" type="curve" smooth="yes"/>
      <point x="248.35454545454544" y="253.33333333333334"/>
      <point x="275.0060606060606" y="220.8909090909091"/>
      <point x="275.0060606060606" y="158.62121212121212" type="curve" smooth="yes"/>
      <point x="275.0060606060606" y="82.09696969696971"/>
      <point x="227.29696969696968" y="26.93939393939394"/>
      <point x="169.86060606060607" y="26.93939393939394" type="curve" smooth="yes"/>
      <point x="107.50606060606061" y="26.93939393939394"/>
      <point x="69.23333333333333" y="79.86666666666666"/>
      <point x="69.23333333333333" y="184.56363636363636" type="curve" smooth="yes"/>
      <point x="69.23333333333333" y="352.23333333333335"/>
      <point x="219.32424242424244" y="522.3333333333334"/>
      <point x="408.11818181818177" y="522.3333333333334" type="curve" smooth="yes"/>
      <point x="567.0181818181818" y="522.3333333333334"/>
      <point x="679.9181818181818" y="421.76969696969695"/>
      <point x="679.9181818181818" y="253.24848484848485" type="curve" smooth="yes"/>
      <point x="679.9181818181818" y="139.22121212121215"/>
      <point x="622.630303030303" y="26.93939393939394"/>
      <point x="531.5545454545455" y="26.93939393939394" type="curve" smooth="yes"/>
      <point x="442.56969696969696" y="26.93939393939394"/>
      <point x="453.82424242424247" y="148.86363636363635"/>
      <point x="517.3515151515152" y="248.59696969696972" type="curve"/>
      <point x="479.9363636363637" y="271.53939393939396" type="line"/>
      <point x="341.22121212121215" y="129.06363636363636"/>
      <point x="305.39090909090913" y="-54.587878787878786"/>
      <point x="448.20303030303035" y="-104.42424242424242" type="curve"/>
      <point x="447.75454545454545" y="-108.63636363636364" type="line"/>
      <point x="336.71515151515155" y="-130.75151515151512"/>
      <point x="286.51212121212126" y="-239.53636363636366"/>
      <point x="185.37272727272727" y="-239.53636363636366" type="curve" smooth="yes"/>
      <point x="134.96666666666667" y="-239.53636363636366"/>
      <point x="109.9939393939394" y="-207.54545454545456"/>
      <point x="109.9939393939394" y="-168.5848484848485" type="curve" smooth="yes"/>
      <point x="109.9939393939394" y="-129.00606060606063"/>
      <point x="132.05757575757576" y="-104.16060606060606"/>
      <point x="170.9" y="-74.39393939393939" type="curve"/>
      <point x="153.20606060606062" y="-50.97575757575758" type="line"/>
      <point x="106.7939393939394" y="-86.56969696969696"/>
      <point x="76.7121212121212" y="-119.0969696969697"/>
      <point x="76.7121212121212" y="-173.8060606060606" type="curve" smooth="yes"/>
      <point x="76.7121212121212" y="-228.46666666666667"/>
      <point x="115.86666666666667" y="-274.89696969696973"/>
    </contour>
  </outline>
</glyph>
<glyph name="oo-tamil" format="2">
  <advance width="784.5666666666666"/>
  <unicode hex="0B93"/>
  <note>
uni0B93
</note>
  <anchor x="331.98484848484844" y="0.0" name="bottom"/>
  <anchor x="275.74545454545455" y="-255.4424242424242" name="nukta"/>
  <anchor x="438.0" y="544.5454545454545" name="top"/>
  <anchor x="438.1454545454545" y="544.5454545454545" name="vedic"/>
  <outline>
    <contour>
      <point x="180.17272727272726" y="-278.6454545454546" type="curve" smooth="yes"/>
      <point x="313.0363636363636" y="-278.6454545454546"/>
      <point x="378.730303030303" y="-121.75454545454545"/>
      <point x="522.5060606060606" y="-121.75454545454545" type="curve" smooth="yes"/>
      <point x="537.9666666666666" y="-121.75454545454545" type="line"/>
      <point x="544.3878787878788" y="-91.45454545454544" type="line"/>
      <point x="519.8787878787879" y="-91.45454545454544" type="line" smooth="yes"/>
      <point x="356.80303030303025" y="-91.45454545454544"/>
      <point x="351.9939393939394" y="79.28787878787878"/>
      <point x="466.660606060606" y="216.4" type="curve"/>
      <point x="470.55757575757576" y="213.71515151515152" type="line"/>
      <point x="414.5060606060606" y="104.5878787878788"/>
      <point x="426.2878787878788" y="-5.0"/>
      <point x="530.3818181818182" y="-5.0" type="curve" smooth="yes"/>
      <point x="643.2666666666667" y="-5.0"/>
      <point x="721.730303030303" y="113.6030303030303"/>
      <point x="721.730303030303" y="256.0181818181818" type="curve" smooth="yes"/>
      <point x="721.730303030303" y="444.53333333333336"/>
      <point x="591.4424242424243" y="552.6969696969697"/>
      <point x="412.44848484848484" y="552.6969696969697" type="curve" smooth="yes"/>
      <point x="199.84545454545454" y="552.6969696969697"/>
      <point x="37.24848484848485" y="372.1636363636364"/>
      <point x="37.24848484848485" y="183.0727272727273" type="curve" smooth="yes"/>
      <point x="37.24848484848485" y="61.62121212121212"/>
      <point x="88.26666666666665" y="-4.212121212121212"/>
      <point x="170.76666666666665" y="-4.212121212121212" type="curve" smooth="yes"/>
      <point x="249.58181818181816" y="-4.212121212121212"/>
      <point x="316.05454545454546" y="62.7"/>
      <point x="316.05454545454546" y="164.03636363636363" type="curve" smooth="yes"/>
      <point x="316.05454545454546" y="242.06666666666666"/>
      <point x="272.130303030303" y="287.24242424242425"/>
      <point x="209.17575757575756" y="287.24242424242425" type="curve" smooth="yes"/>
      <point x="135.5818181818182" y="287.24242424242425"/>
      <point x="83.58787878787878" y="227.9818181818182"/>
      <point x="55.22121212121212" y="158.26363636363635" type="curve"/>
      <point x="66.2" y="130.48484848484847" type="line"/>
      <point x="98.55151515151515" y="202.82727272727274"/>
      <point x="138.26969696969695" y="253.33333333333334"/>
      <point x="198.50606060606063" y="253.33333333333334" type="curve" smooth="yes"/>
      <point x="248.35454545454544" y="253.33333333333334"/>
      <point x="275.0060606060606" y="220.8909090909091"/>
      <point x="275.0060606060606" y="158.62121212121212" type="curve" smooth="yes"/>
      <point x="275.0060606060606" y="82.09696969696971"/>
      <point x="227.29696969696968" y="26.93939393939394"/>
      <point x="169.86060606060607" y="26.93939393939394" type="curve" smooth="yes"/>
      <point x="107.50606060606061" y="26.93939393939394"/>
      <point x="69.23333333333333" y="79.86666666666666"/>
      <point x="69.23333333333333" y="184.56363636363636" type="curve" smooth="yes"/>
      <point x="69.23333333333333" y="352.23333333333335"/>
      <point x="219.32424242424244" y="522.3333333333334"/>
      <point x="408.11818181818177" y="522.3333333333334" type="curve" smooth="yes"/>
      <point x="567.0181818181818" y="522.3333333333334"/>
      <point x="679.9181818181818" y="421.76969696969695"/>
      <point x="679.9181818181818" y="253.24848484848485" type="curve" smooth="yes"/>
      <point x="679.9181818181818" y="139.22121212121215"/>
      <point x="622.630303030303" y="26.93939393939394"/>
      <point x="531.5545454545455" y="26.93939393939394" type="curve" smooth="yes"/>
      <point x="442.56969696969696" y="26.93939393939394"/>
      <point x="453.82424242424247" y="148.86363636363635"/>
      <point x="517.3515151515152" y="248.59696969696972" type="curve"/>
      <point x="479.9363636363637" y="271.53939393939396" type="line"/>
      <point x="341.0303030303031" y="129.06363636363636"/>
      <point x="305.3272727272727" y="-54.587878787878786"/>
      <point x="448.1393939393939" y="-104.42424242424242" type="curve"/>
      <point x="447.6909090909091" y="-108.63636363636364" type="line"/>
      <point x="336.6515151515151" y="-130.75151515151512"/>
      <point x="277.8" y="-243.8787878787879"/>
      <point x="179.02424242424243" y="-243.8787878787879" type="curve" smooth="yes"/>
      <point x="128.73939393939395" y="-243.8787878787879"/>
      <point x="101.9151515151515" y="-211.25454545454548"/>
      <point x="101.9151515151515" y="-171.01818181818183" type="curve" smooth="yes"/>
      <point x="101.9151515151515" y="-130.77575757575758"/>
      <point x="129.12424242424242" y="-100.04848484848485"/>
      <point x="169.86363636363637" y="-100.04848484848485" type="curve" smooth="yes"/>
      <point x="202.55151515151513" y="-100.04848484848485"/>
      <point x="221.03939393939396" y="-119.32727272727274"/>
      <point x="225.08484848484846" y="-143.25757575757575" type="curve"/>
      <point x="243.78181818181818" y="-135.4878787878788"/>
      <point x="258.28484848484845" y="-119.84242424242424"/>
      <point x="258.28484848484845" y="-99.13939393939394" type="curve" smooth="yes"/>
      <point x="258.28484848484845" y="-71.04848484848485"/>
      <point x="225.82121212121214" y="-54.36666666666667"/>
      <point x="189.43939393939394" y="-54.36666666666667" type="curve" smooth="yes"/>
      <point x="121.13333333333334" y="-54.36666666666667"/>
      <point x="71.47575757575758" y="-109.55454545454545"/>
      <point x="71.47575757575758" y="-175.18484848484852" type="curve" smooth="yes"/>
      <point x="71.47575757575758" y="-231.2878787878788"/>
      <point x="113.13030303030303" y="-278.6454545454546"/>
    </contour>
  </outline>
</glyph>
<glyph name="ka-tamil" format="2">
  <advance width="638.6060606060606"/>
  <unicode hex="0B95"/>
  <note>
uni0B95
</note>
  <anchor x="271.0272727272727" y="0.0" name="bottom"/>
  <anchor x="485.5878787878788" y="544.5454545454545" name="imatra"/>
  <anchor x="274.9666666666667" y="0.0" name="nukta"/>
  <anchor x="393.6757575757576" y="544.5454545454545" name="top"/>
  <anchor x="400.7090909090909" y="544.5454545454545" name="vedic"/>
  <outline>
    <contour>
      <point x="168.59090909090912" y="-4.0" type="curve" smooth="yes"/>
      <point x="256.3939393939394" y="-4.0"/>
      <point x="315.4939393939394" y="45.987878787878785"/>
      <point x="340.9909090909091" y="166.9818181818182" type="curve" smooth="yes"/>
      <point x="363.1363636363636" y="272.45454545454544" type="line"/>
      <point x="415.43939393939394" y="272.45454545454544" type="line" smooth="yes"/>
      <point x="486.3" y="272.45454545454544"/>
      <point x="528.6969696969697" y="239.53333333333333"/>
      <point x="528.6969696969697" y="167.1121212121212" type="curve" smooth="yes"/>
      <point x="528.6969696969697" y="87.72121212121212"/>
      <point x="475.6424242424243" y="27.363636363636363"/>
      <point x="398.139393939394" y="27.363636363636363" type="curve" smooth="yes"/>
      <point x="367.5121212121212" y="27.363636363636363" type="line"/>
      <point x="361.47575757575754" y="-2.0" type="line"/>
      <point x="399.9666666666667" y="-2.0" type="line" smooth="yes"/>
      <point x="499.9454545454546" y="-2.0"/>
      <point x="570.739393939394" y="66.41515151515152"/>
      <point x="570.739393939394" y="170.33030303030304" type="curve" smooth="yes"/>
      <point x="570.739393939394" y="259.93030303030304"/>
      <point x="514.7060606060606" y="302.8181818181818"/>
      <point x="421.00909090909096" y="302.8181818181818" type="curve" smooth="yes"/>
      <point x="369.5575757575758" y="302.8181818181818" type="line"/>
      <point x="414.86060606060613" y="514.969696969697" type="line"/>
      <point x="550.6030303030302" y="514.969696969697" type="line"/>
      <point x="557.0242424242425" y="544.5454545454545" type="line"/>
      <point x="202.33333333333334" y="544.5454545454545" type="line"/>
      <point x="147.46060606060607" y="284.42424242424244" type="line"/>
      <point x="178.9939393939394" y="284.42424242424244" type="line"/>
      <point x="227.93333333333334" y="514.969696969697" type="line"/>
      <point x="373.6666666666667" y="514.969696969697" type="line"/>
      <point x="329.06363636363636" y="302.8181818181818" type="line"/>
      <point x="199.53636363636363" y="302.8181818181818" type="line" smooth="yes"/>
      <point x="93.26666666666668" y="302.8181818181818"/>
      <point x="28.412121212121207" y="225.55151515151513"/>
      <point x="28.412121212121207" y="136.27272727272725" type="curve" smooth="yes"/>
      <point x="28.412121212121207" y="59.31818181818181"/>
      <point x="82.51818181818182" y="-4.0"/>
    </contour>
    <contour>
      <point x="169.8878787878788" y="26.93939393939394" type="curve" smooth="yes"/>
      <point x="101.30909090909091" y="26.93939393939394"/>
      <point x="65.59393939393938" y="77.30303030303031"/>
      <point x="65.59393939393938" y="140.61212121212122" type="curve" smooth="yes"/>
      <point x="65.59393939393938" y="211.94545454545454"/>
      <point x="109.71515151515152" y="272.45454545454544"/>
      <point x="197.36666666666667" y="272.45454545454544" type="curve" smooth="yes"/>
      <point x="322.09090909090907" y="272.45454545454544" type="line"/>
      <point x="299.9878787878788" y="164.74545454545458" type="line" smooth="yes"/>
      <point x="280.3030303030303" y="67.55151515151515"/>
      <point x="233.63030303030303" y="26.93939393939394"/>
    </contour>
  </outline>
</glyph>
<glyph name="ca-tamil" format="2">
  <advance width="543.230303030303"/>
  <unicode hex="0B9A"/>
  <note>
uni0B9A
</note>
  <anchor x="230.9515151515152" y="0.0" name="bottom"/>
  <anchor x="507.81212121212116" y="544.5454545454545" name="imatra"/>
  <anchor x="230.89393939393938" y="0.0" name="nukta"/>
  <anchor x="387.769696969697" y="544.5454545454545" name="top"/>
  <anchor x="355.22424242424245" y="544.5454545454545" name="vedic"/>
  <outline>
    <contour>
      <point x="168.59090909090912" y="-4.0" type="curve" smooth="yes"/>
      <point x="256.3939393939394" y="-4.0"/>
      <point x="315.4939393939394" y="45.987878787878785"/>
      <point x="340.9909090909091" y="166.9818181818182" type="curve" smooth="yes"/>
      <point x="363.1363636363636" y="272.45454545454544" type="line"/>
      <point x="496.90000000000003" y="272.45454545454544" type="line"/>
      <point x="502.8727272727273" y="302.8181818181818" type="line"/>
      <point x="369.5575757575758" y="302.8181818181818" type="line"/>
      <point x="414.86060606060613" y="514.969696969697" type="line"/>
      <point x="548.239393939394" y="514.969696969697" type="line"/>
      <point x="554.6606060606061" y="544.5454545454545" type="line"/>
      <point x="202.33333333333334" y="544.5454545454545" type="line"/>
      <point x="147.46060606060607" y="284.42424242424244" type="line"/>
      <point x="178.9939393939394" y="284.42424242424244" type="line"/>
      <point x="227.93333333333334" y="514.969696969697" type="line"/>
      <point x="373.6666666666667" y="514.969696969697" type="line"/>
      <point x="329.06363636363636" y="302.8181818181818" type="line"/>
      <point x="199.53636363636363" y="302.8181818181818" type="line" smooth="yes"/>
      <point x="93.26666666666668" y="302.8181818181818"/>
      <point x="28.412121212121207" y="225.55151515151513"/>
      <point x="28.412121212121207" y="136.27272727272725" type="curve" smooth="yes"/>
      <point x="28.412121212121207" y="59.31818181818181"/>
      <point x="82.51818181818182" y="-4.0"/>
    </contour>
    <contour>
      <point x="169.8878787878788" y="26.93939393939394" type="curve" smooth="yes"/>
      <point x="101.30909090909091" y="26.93939393939394"/>
      <point x="65.59393939393938" y="77.30303030303031"/>
      <point x="65.59393939393938" y="140.61212121212122" type="curve" smooth="yes"/>
      <point x="65.59393939393938" y="211.94545454545454"/>
      <point x="109.71515151515152" y="272.45454545454544"/>
      <point x="197.36666666666667" y="272.45454545454544" type="curve" smooth="yes"/>
      <point x="322.09090909090907" y="272.45454545454544" type="line"/>
      <point x="299.9878787878788" y="164.74545454545458" type="line" smooth="yes"/>
      <point x="280.3030303030303" y="67.55151515151515"/>
      <point x="233.63030303030303" y="26.93939393939394"/>
    </contour>
  </outline>
</glyph>
<glyph name="ja-tamil" format="2">
  <advance width="773.3454545454546"/>
  <unicode hex="0B9C"/>
  <note>
uni0B9C
</note>
  <anchor x="338.0909090909091" y="0.0" name="bottom"/>
  <anchor x="276.5242424242424" y="-281.8181818181818" name="nukta"/>
  <anchor x="455.68787878787873" y="544.5454545454545" name="top"/>
  <anchor x="454.55757575757576" y="544.5454545454545" name="vedic"/>
  <outline>
    <contour>
      <point x="102.27575757575758" y="-281.8181818181818" type="curve" smooth="yes"/>
      <point x="273.4909090909091" y="-281.8181818181818"/>
      <point x="353.3333333333333" y="-2.6242424242424254"/>
      <point x="501.69393939393933" y="-2.6242424242424254" type="curve" smooth="yes"/>
      <point x="562.9818181818182" y="-2.6242424242424254"/>
      <point x="594.2545454545455" y="-44.47575757575758"/>
      <point x="594.2545454545455" y="-109.1030303030303" type="curve" smooth="yes"/>
      <point x="594.2545454545455" y="-189.75757575757575"/>
      <point x="543.4606060606061" y="-251.77272727272725"/>
      <point x="469.54242424242426" y="-251.77272727272725" type="curve" smooth="yes"/>
      <point x="434.84545454545463" y="-251.77272727272725"/>
      <point x="405.660606060606" y="-239.9121212121212"/>
      <point x="380.77272727272725" y="-220.1818181818182" type="curve"/>
      <point x="362.1" y="-245.74242424242425" type="line"/>
      <point x="390.30909090909086" y="-267.8575757575758"/>
      <point x="423.5484848484848" y="-281.8181818181818"/>
      <point x="471.75151515151515" y="-281.8181818181818" type="curve" smooth="yes"/>
      <point x="563.2848484848485" y="-281.8181818181818"/>
      <point x="637.0242424242424" y="-211.4969696969697"/>
      <point x="637.0242424242424" y="-108.48181818181818" type="curve" smooth="yes"/>
      <point x="637.0242424242424" y="-24.384848484848483"/>
      <point x="589.6878787878788" y="28.333333333333336"/>
      <point x="508.6151515151516" y="28.333333333333336" type="curve" smooth="yes"/>
      <point x="334.8333333333333" y="28.333333333333336"/>
      <point x="253.16060606060609" y="-250.9242424242424"/>
      <point x="109.62121212121211" y="-250.9242424242424" type="curve" smooth="yes"/>
      <point x="48.39696969696969" y="-250.9242424242424"/>
      <point x="17.53939393939394" y="-204.7151515151515"/>
      <point x="17.53939393939394" y="-133.24242424242425" type="curve" smooth="yes"/>
      <point x="17.53939393939394" y="27.718181818181815"/>
      <point x="141.9878787878788" y="64.2090909090909"/>
      <point x="361.0060606060606" y="89.51515151515153" type="curve" smooth="yes"/>
      <point x="591.9878787878788" y="116.51818181818182"/>
      <point x="736.9424242424243" y="199.47575757575757"/>
      <point x="736.9424242424243" y="393.4242424242424" type="curve" smooth="yes"/>
      <point x="736.9424242424243" y="496.3181818181818"/>
      <point x="677.3636363636363" y="552.6969696969697"/>
      <point x="595.6030303030304" y="552.6969696969697" type="curve" smooth="yes"/>
      <point x="514.6060606060606" y="552.6969696969697"/>
      <point x="463.53030303030306" y="498.2969696969697"/>
      <point x="432.3878787878788" y="432.0515151515151" type="curve"/>
      <point x="420.2484848484848" y="500.3030303030303"/>
      <point x="368.8424242424243" y="552.6969696969697"/>
      <point x="279.58181818181816" y="552.6969696969697" type="curve" smooth="yes"/>
      <point x="148.0030303030303" y="552.6969696969697"/>
      <point x="61.54242424242425" y="432.17878787878794"/>
      <point x="61.54242424242425" y="301.9939393939394" type="curve" smooth="yes"/>
      <point x="61.54242424242425" y="221.77272727272725"/>
      <point x="98.19090909090909" y="162.3030303030303"/>
      <point x="164.3969696969697" y="162.3030303030303" type="curve" smooth="yes"/>
      <point x="233.40303030303028" y="162.3030303030303"/>
      <point x="287.91818181818184" y="221.66969696969696"/>
      <point x="287.91818181818184" y="302.469696969697" type="curve" smooth="yes"/>
      <point x="287.91818181818184" y="363.73030303030305"/>
      <point x="254.65151515151518" y="400.969696969697"/>
      <point x="202.2060606060606" y="400.969696969697" type="curve" smooth="yes"/>
      <point x="146.54848484848483" y="400.969696969697"/>
      <point x="103.43636363636364" y="354.56060606060606"/>
      <point x="77.17878787878787" y="282.95757575757574" type="curve"/>
      <point x="86.5939393939394" y="260.74848484848485" type="line"/>
      <point x="118.03939393939395" y="333.2121212121212"/>
      <point x="150.9909090909091" y="368.7393939393939"/>
      <point x="190.96969696969697" y="368.7393939393939" type="curve" smooth="yes"/>
      <point x="228.42121212121214" y="368.7393939393939"/>
      <point x="249.56666666666663" y="343.7121212121212"/>
      <point x="249.56666666666663" y="297.1181818181818" type="curve" smooth="yes"/>
      <point x="249.56666666666663" y="242.75454545454548"/>
      <point x="216.33939393939394" y="194.24242424242425"/>
      <point x="164.3151515151515" y="194.24242424242425" type="curve" smooth="yes"/>
      <point x="116.28181818181817" y="194.24242424242425"/>
      <point x="92.84848484848484" y="236.830303030303"/>
      <point x="92.84848484848484" y="301.8484848484848" type="curve" smooth="yes"/>
      <point x="92.84848484848484" y="408.1575757575757"/>
      <point x="160.92121212121214" y="521.5454545454545"/>
      <point x="274.2848484848485" y="521.5454545454545" type="curve" smooth="yes"/>
      <point x="367.1575757575758" y="521.5454545454545"/>
      <point x="420.1242424242424" y="456.8"/>
      <point x="398.2878787878788" y="354.91818181818184" type="curve" smooth="yes"/>
      <point x="367.32424242424247" y="209.4848484848485" type="line"/>
      <point x="407.50909090909096" y="209.4848484848485" type="line"/>
      <point x="439.1636363636364" y="361.26969696969695" type="line" smooth="yes"/>
      <point x="454.6969696969697" y="434.6151515151515"/>
      <point x="502.5333333333333" y="522.3333333333334"/>
      <point x="589.0999999999999" y="522.3333333333334" type="curve" smooth="yes"/>
      <point x="655.3181818181819" y="522.3333333333334"/>
      <point x="694.5515151515151" y="475.25757575757575"/>
      <point x="694.5515151515151" y="392.330303030303" type="curve" smooth="yes"/>
      <point x="694.5515151515151" y="208.22121212121215"/>
      <point x="563.5878787878788" y="138.70909090909092"/>
      <point x="344.94848484848484" y="114.16666666666666" type="curve" smooth="yes"/>
      <point x="110.92727272727272" y="87.71515151515152"/>
      <point x="-24.166666666666668" y="39.42727272727274"/>
      <point x="-24.166666666666668" y="-134.26666666666668" type="curve" smooth="yes"/>
      <point x="-24.166666666666668" y="-223.5060606060606"/>
      <point x="22.839393939393943" y="-281.8181818181818"/>
    </contour>
  </outline>
</glyph>
<glyph name="nya-tamil" format="2">
  <advance width="985.9969696969697"/>
  <unicode hex="0B9E"/>
  <note>
uni0B9E
</note>
  <anchor x="471.1878787878788" y="0.0" name="bottom"/>
  <anchor x="853.939393939394" y="544.5454545454545" name="imatra"/>
  <anchor x="422.06363636363636" y="-279.6181818181818" name="nukta"/>
  <anchor x="605.5666666666667" y="544.5454545454545" name="top"/>
  <anchor x="561.7303030303029" y="544.5454545454545" name="vedic"/>
  <outline>
    <contour>
      <point x="421.3212121212121" y="-279.6181818181818" type="curve" smooth="yes"/>
      <point x="705.8727272727273" y="-279.6181818181818"/>
      <point x="919.4060606060607" y="-76.7969696969697"/>
      <point x="919.4060606060607" y="190.64242424242425" type="curve" smooth="yes"/>
      <point x="919.4060606060607" y="277.40606060606063"/>
      <point x="876.2848484848486" y="331.6060606060606"/>
      <point x="808.2181818181817" y="331.6060606060606" type="curve" smooth="yes"/>
      <point x="739.739393939394" y="331.6060606060606"/>
      <point x="692.3545454545456" y="276.139393939394"/>
      <point x="672.9484848484849" y="185.04545454545453" type="curve" smooth="yes"/>
      <point x="668.4636363636364" y="164.04545454545453" type="line"/>
      <point x="684.1727272727272" y="164.04545454545453" type="line"/>
      <point x="688.6575757575757" y="184.38787878787878" type="line" smooth="yes"/>
      <point x="703.4484848484849" y="249.05151515151516"/>
      <point x="740.5303030303031" y="299.58787878787876"/>
      <point x="796.3454545454545" y="299.58787878787876" type="curve" smooth="yes"/>
      <point x="847.9515151515152" y="299.58787878787876"/>
      <point x="876.7" y="258.630303030303"/>
      <point x="876.7" y="188.56363636363636" type="curve" smooth="yes"/>
      <point x="876.7" y="-53.33333333333333"/>
      <point x="681.7454545454547" y="-247.67878787878786"/>
      <point x="421.9515151515151" y="-247.67878787878786" type="curve" smooth="yes"/>
      <point x="204.2818181818182" y="-247.67878787878786"/>
      <point x="67.05454545454546" y="-89.76666666666667"/>
      <point x="67.05454545454546" y="131.73939393939395" type="curve" smooth="yes"/>
      <point x="67.05454545454546" y="319.95757575757574"/>
      <point x="148.12121212121212" y="476.5939393939394"/>
      <point x="298.660606060606" y="626.1727272727272" type="curve"/>
      <point x="276.6545454545454" y="647.5939393939394" type="line"/>
      <point x="121.24242424242425" y="493.0848484848485"/>
      <point x="32.62121212121212" y="327.75757575757575"/>
      <point x="32.62121212121212" y="128.65454545454546" type="curve" smooth="yes"/>
      <point x="32.62121212121212" y="-102.22121212121212"/>
      <point x="180.47575757575757" y="-279.6181818181818"/>
    </contour>
    <component base="e-tamil" xOffset="170.1848484848485"/>
  </outline>
</glyph>
<glyph name="tta-tamil" format="2">
  <advance width="705.8909090909091"/>
  <unicode hex="0B9F"/>
  <note>
uni0B9F
</note>
  <anchor x="334.01515151515156" y="0.0" name="bottom"/>
  <anchor x="334.01515151515156" y="0.0" name="nukta"/>
  <anchor x="450.8575757575757" y="544.5454545454545" name="top"/>
  <anchor x="443.30909090909097" y="544.5454545454545" name="vedic"/>
  <outline>
    <contour>
      <point x="40.390909090909105" y="0.0" type="line"/>
      <point x="627.1666666666666" y="0.0" type="line"/>
      <point x="633.5030303030303" y="29.575757575757578" type="line"/>
      <point x="88.26060606060608" y="29.575757575757578" type="line"/>
      <point x="197.56060606060606" y="544.5454545454545" type="line"/>
      <point x="156.43030303030304" y="544.5454545454545" type="line"/>
    </contour>
  </outline>
</glyph>
<glyph name="ta-tamil" format="2">
  <advance width="641.369696969697"/>
  <unicode hex="0BA4"/>
  <note>
uni0BA4
</note>
  <anchor x="260.45454545454544" y="0.0" name="bottom"/>
  <anchor x="488.0272727272727" y="544.5454545454545" name="imatra"/>
  <anchor x="232.39393939393938" y="-127.39393939393939" name="nukta"/>
  <anchor x="389.7212121212121" y="544.5454545454545" name="top"/>
  <anchor x="389.6909090909091" y="544.5454545454545" name="vedic"/>
  <outline>
    <contour>
      <point x="28.40606060606061" y="-199.5" type="curve"/>
      <point x="37.74242424242425" y="-150.030303030303"/>
      <point x="61.60303030303031" y="-120.51818181818182"/>
      <point x="115.48484848484847" y="-120.51818181818182" type="curve" smooth="yes"/>
      <point x="269.8" y="-120.51818181818182" type="line" smooth="yes"/>
      <point x="437.1636363636364" y="-120.51818181818182"/>
      <point x="561.4848484848485" y="-30.32424242424243"/>
      <point x="561.4848484848485" y="138.9909090909091" type="curve" smooth="yes"/>
      <point x="561.4848484848485" y="255.53939393939393"/>
      <point x="490.1636363636364" y="302.8181818181818"/>
      <point x="393.55151515151516" y="302.8181818181818" type="curve" smooth="yes"/>
      <point x="368.43939393939394" y="302.8181818181818" type="line"/>
      <point x="413.7424242424242" y="514.969696969697" type="line"/>
      <point x="547.5939393939394" y="514.969696969697" type="line"/>
      <point x="554.0151515151514" y="544.5454545454545" type="line"/>
      <point x="201.21515151515152" y="544.5454545454545" type="line"/>
      <point x="146.34242424242424" y="284.42424242424244" type="line"/>
      <point x="177.8757575757576" y="284.42424242424244" type="line"/>
      <point x="226.81515151515154" y="514.969696969697" type="line"/>
      <point x="372.5484848484848" y="514.969696969697" type="line"/>
      <point x="327.9454545454546" y="302.8181818181818" type="line"/>
      <point x="198.41818181818184" y="302.8181818181818" type="line" smooth="yes"/>
      <point x="92.14848484848486" y="302.8181818181818"/>
      <point x="27.293939393939397" y="225.55151515151513"/>
      <point x="27.293939393939397" y="136.27272727272725" type="curve" smooth="yes"/>
      <point x="27.293939393939397" y="59.31818181818181"/>
      <point x="81.4" y="-4.0"/>
      <point x="167.47272727272727" y="-4.0" type="curve" smooth="yes"/>
      <point x="255.27575757575752" y="-4.0"/>
      <point x="314.37575757575763" y="45.987878787878785"/>
      <point x="339.8727272727273" y="166.9818181818182" type="curve" smooth="yes"/>
      <point x="362.0181818181818" y="272.45454545454544" type="line"/>
      <point x="387.9818181818182" y="272.45454545454544" type="line" smooth="yes"/>
      <point x="464.4212121212121" y="272.45454545454544"/>
      <point x="519.4424242424243" y="238.58787878787876"/>
      <point x="519.4424242424243" y="138.26666666666665" type="curve" smooth="yes"/>
      <point x="519.4424242424243" y="-6.327272727272726"/>
      <point x="413.29090909090917" y="-90.64545454545456"/>
      <point x="266.09090909090907" y="-90.64545454545456" type="curve" smooth="yes"/>
      <point x="95.28484848484848" y="-90.64545454545456" type="line" smooth="yes"/>
      <point x="34.7" y="-90.64545454545456"/>
      <point x="-10.860606060606061" y="-115.85454545454544"/>
      <point x="-10.860606060606061" y="-159.59696969696972" type="curve" smooth="yes"/>
      <point x="-10.860606060606061" y="-185.18181818181822"/>
      <point x="4.766666666666668" y="-199.5"/>
    </contour>
    <contour>
      <point x="168.76969696969698" y="26.93939393939394" type="curve" smooth="yes"/>
      <point x="100.1909090909091" y="26.93939393939394"/>
      <point x="64.47575757575758" y="77.30303030303031"/>
      <point x="64.47575757575758" y="140.61212121212122" type="curve" smooth="yes"/>
      <point x="64.47575757575758" y="211.94545454545454"/>
      <point x="108.5969696969697" y="272.45454545454544"/>
      <point x="196.24848484848485" y="272.45454545454544" type="curve" smooth="yes"/>
      <point x="320.97272727272724" y="272.45454545454544" type="line"/>
      <point x="298.869696969697" y="164.74545454545458" type="line" smooth="yes"/>
      <point x="279.1848484848485" y="67.55151515151515"/>
      <point x="232.51212121212123" y="26.93939393939394"/>
    </contour>
  </outline>
</glyph>
<glyph name="na-tamil" format="2">
  <advance width="625.2939393939394"/>
  <unicode hex="0BA8"/>
  <note>
uni0BA8
</note>
  <anchor x="258.6030303030303" y="0.0" name="bottom"/>
  <anchor x="491.77878787878785" y="544.5454545454545" name="imatra"/>
  <anchor x="235.45151515151514" y="-162.0909090909091" name="nukta"/>
  <anchor x="389.0787878787879" y="544.5454545454545" name="top"/>
  <anchor x="386.0787878787879" y="544.5454545454545" name="vedic"/>
  <outline>
    <contour>
      <point x="36.587878787878786" y="-201.5787878787879" type="curve"/>
      <point x="45.92424242424242" y="-152.1090909090909"/>
      <point x="72.03333333333333" y="-122.59696969696971"/>
      <point x="125.91515151515154" y="-122.59696969696971" type="curve" smooth="yes"/>
      <point x="250.51515151515153" y="-122.59696969696971" type="line" smooth="yes"/>
      <point x="433.1666666666667" y="-122.59696969696971"/>
      <point x="562.7060606060608" y="7.390909090909091"/>
      <point x="562.7060606060608" y="200.63333333333335" type="curve" smooth="yes"/>
      <point x="562.7060606060608" y="281.8454545454546"/>
      <point x="523.4969696969698" y="331.6060606060606"/>
      <point x="456.6212121212122" y="331.6060606060606" type="curve" smooth="yes"/>
      <point x="406.269696969697" y="331.6060606060606"/>
      <point x="374.3060606060606" y="300.41212121212124"/>
      <point x="352.8606060606061" y="268.6242424242424" type="curve"/>
      <point x="405.3242424242424" y="514.969696969697" type="line"/>
      <point x="528.9727272727273" y="514.969696969697" type="line"/>
      <point x="535.4575757575757" y="544.5454545454545" type="line"/>
      <point x="157.87272727272725" y="544.5454545454545" type="line"/>
      <point x="42.44848484848486" y="0.0" type="line"/>
      <point x="74.53333333333333" y="0.0" type="line"/>
      <point x="183.6848484848485" y="514.969696969697" type="line"/>
      <point x="364.8939393939394" y="514.969696969697" type="line"/>
      <point x="254.80606060606064" y="0.0" type="line"/>
      <point x="296.0242424242424" y="0.0" type="line"/>
      <point x="335.43636363636364" y="185.6909090909091" type="line" smooth="yes"/>
      <point x="346.1393939393939" y="236.9090909090909"/>
      <point x="385.6242424242424" y="298.9939393939394"/>
      <point x="445.19393939393944" y="298.9939393939394" type="curve" smooth="yes"/>
      <point x="493.869696969697" y="298.9939393939394"/>
      <point x="518.8272727272728" y="262.5454545454545"/>
      <point x="518.8272727272728" y="198.25757575757575" type="curve" smooth="yes"/>
      <point x="518.8272727272728" y="26.163636363636364"/>
      <point x="415.20909090909095" y="-92.72424242424243"/>
      <point x="249.969696969697" y="-92.72424242424243" type="curve" smooth="yes"/>
      <point x="106.26666666666665" y="-92.72424242424243" type="line" smooth="yes"/>
      <point x="45.68181818181818" y="-92.72424242424243"/>
      <point x="-2.6787878787878805" y="-117.93333333333334"/>
      <point x="-2.6787878787878805" y="-161.6757575757576" type="curve" smooth="yes"/>
      <point x="-2.6787878787878805" y="-187.26060606060608"/>
      <point x="12.948484848484846" y="-201.5787878787879"/>
    </contour>
  </outline>
</glyph>
<glyph name="nnna-tamil" format="2">
  <advance width="1001.6575757575757"/>
  <unicode hex="0BA9"/>
  <note>
uni0BA9
</note>
  <anchor x="455.46363636363634" y="0.0" name="bottom"/>
  <anchor x="950.5151515151516" y="544.5454545454545" name="imatra"/>
  <anchor x="456.4878787878788" y="0.0" name="nukta"/>
  <anchor x="583.0545454545455" y="544.5454545454545" name="top"/>
  <anchor x="576.6878787878788" y="544.5454545454545" name="vedic"/>
  <outline>
    <contour>
      <point x="172.8151515151515" y="-4.212121212121212" type="curve" smooth="yes"/>
      <point x="251.48181818181817" y="-4.212121212121212"/>
      <point x="316.56969696969696" y="62.7"/>
      <point x="316.56969696969696" y="164.03636363636363" type="curve" smooth="yes"/>
      <point x="316.56969696969696" y="242.06666666666666"/>
      <point x="272.20000000000005" y="287.24242424242425"/>
      <point x="209.24545454545455" y="287.24242424242425" type="curve" smooth="yes"/>
      <point x="135.65151515151513" y="287.24242424242425"/>
      <point x="83.21212121212122" y="227.9818181818182"/>
      <point x="54.84545454545455" y="158.26363636363635" type="curve"/>
      <point x="65.82424242424241" y="130.48484848484847" type="line"/>
      <point x="98.17575757575757" y="202.82727272727274"/>
      <point x="138.33939393939394" y="253.33333333333334"/>
      <point x="198.57575757575756" y="253.33333333333334" type="curve" smooth="yes"/>
      <point x="248.42424242424244" y="253.33333333333334"/>
      <point x="275.5212121212121" y="220.8909090909091"/>
      <point x="275.5212121212121" y="158.62121212121212" type="curve" smooth="yes"/>
      <point x="275.5212121212121" y="82.09696969696971"/>
      <point x="229.4939393939394" y="26.93939393939394"/>
      <point x="171.90909090909093" y="26.93939393939394" type="curve" smooth="yes"/>
      <point x="109.25757575757575" y="26.93939393939394"/>
      <point x="68.85757575757575" y="80.38484848484848"/>
      <point x="68.85757575757575" y="177.36060606060607" type="curve" smooth="yes"/>
      <point x="68.85757575757575" y="342.20909090909095"/>
      <point x="190.27575757575758" y="522.8848484848485"/>
      <point x="365.97575757575754" y="522.8848484848485" type="curve" smooth="yes"/>
      <point x="526.8181818181819" y="522.8848484848485"/>
      <point x="615.478787878788" y="406.76363636363635"/>
      <point x="615.478787878788" y="232.930303030303" type="curve" smooth="yes"/>
      <point x="615.478787878788" y="108.76363636363637"/>
      <point x="555.1151515151514" y="27.130303030303033"/>
      <point x="486.41818181818184" y="27.130303030303033" type="curve" smooth="yes"/>
      <point x="438.81515151515157" y="27.130303030303033"/>
      <point x="414.73636363636365" y="67.8909090909091"/>
      <point x="414.73636363636365" y="144.50606060606063" type="curve" smooth="yes"/>
      <point x="414.73636363636365" y="320.7969696969697"/>
      <point x="578.0545454545455" y="514.969696969697"/>
      <point x="767.3454545454545" y="514.969696969697" type="curve" smooth="yes"/>
      <point x="1028.4878787878788" y="514.969696969697" type="line"/>
      <point x="1034.8242424242426" y="544.5454545454545" type="line"/>
      <point x="770.9818181818182" y="544.5454545454545" type="line" smooth="yes"/>
      <point x="556.060606060606" y="544.5454545454545"/>
      <point x="383.1333333333333" y="339.6484848484848"/>
      <point x="383.1333333333333" y="136.42121212121214" type="curve" smooth="yes"/>
      <point x="383.1333333333333" y="46.5"/>
      <point x="420.8818181818182" y="-5.0"/>
      <point x="488.47272727272724" y="-5.0" type="curve" smooth="yes"/>
      <point x="580.8515151515152" y="-5.0"/>
      <point x="657.3757575757576" y="91.76969696969697"/>
      <point x="657.3757575757576" y="237.10000000000002" type="curve" smooth="yes"/>
      <point x="657.3757575757576" y="430.29393939393935"/>
      <point x="545.6363636363637" y="553.2484848484848"/>
      <point x="369.11818181818177" y="553.2484848484848" type="curve" smooth="yes"/>
      <point x="172.66060606060606" y="553.2484848484848"/>
      <point x="36.872727272727275" y="362.1393939393939"/>
      <point x="36.872727272727275" y="175.86969696969697" type="curve" smooth="yes"/>
      <point x="36.872727272727275" y="62.13939393939395"/>
      <point x="90.01818181818182" y="-4.212121212121212"/>
    </contour>
    <contour>
      <point x="748.1030303030303" y="0.0" type="line"/>
      <point x="789.3151515151516" y="0.0" type="line"/>
      <point x="901.6151515151515" y="528.2121212121212" type="line"/>
      <point x="860.7181818181817" y="528.2121212121212" type="line"/>
    </contour>
  </outline>
</glyph>
<glyph name="pa-tamil" format="2">
  <advance width="712.3090909090909"/>
  <unicode hex="0BAA"/>
  <note>
uni0BAA
</note>
  <anchor x="299.3363636363636" y="0.0" name="bottom"/>
  <anchor x="663.6757575757576" y="544.5454545454545" name="imatra"/>
  <anchor x="299.3363636363636" y="0.0" name="nukta"/>
  <anchor x="413.57272727272726" y="544.5454545454545" name="top"/>
  <anchor x="410.95454545454544" y="544.5454545454545" name="vedic"/>
  <outline>
    <contour>
      <point x="40.390909090909105" y="0.0" type="line"/>
      <point x="555.878787878788" y="0.0" type="line"/>
      <point x="671.5151515151516" y="544.5454545454545" type="line"/>
      <point x="630.6181818181817" y="544.5454545454545" type="line"/>
      <point x="521.0818181818182" y="29.575757575757578" type="line"/>
      <point x="88.26060606060608" y="29.575757575757578" type="line"/>
      <point x="197.56060606060606" y="544.5454545454545" type="line"/>
      <point x="156.43030303030304" y="544.5454545454545" type="line"/>
    </contour>
  </outline>
</glyph>
<glyph name="ma-tamil" format="2">
  <advance width="722.3242424242425"/>
  <unicode hex="0BAE"/>
  <note>
uni0BAE
</note>
  <anchor x="308.9848484848485" y="0.0" name="bottom"/>
  <anchor x="705.8060606060606" y="544.5454545454545" name="imatra"/>
  <anchor x="309.43333333333334" y="0.0" name="nukta"/>
  <anchor x="445.9636363636364" y="544.5454545454545" name="top"/>
  <anchor x="440.16969696969693" y="544.5454545454545" name="vedic"/>
  <outline>
    <contour>
      <point x="40.390909090909105" y="0.0" type="line"/>
      <point x="474.16363636363633" y="0.0" type="line" smooth="yes"/>
      <point x="606.2666666666667" y="0.0"/>
      <point x="666.7363636363636" y="156.26363636363635"/>
      <point x="666.7363636363636" y="325.9545454545455" type="curve" smooth="yes"/>
      <point x="666.7363636363636" y="470.28484848484845"/>
      <point x="614.6818181818182" y="552.6969696969697"/>
      <point x="527.8030303030304" y="552.6969696969697" type="curve" smooth="yes"/>
      <point x="450.43333333333334" y="552.6969696969697"/>
      <point x="410.2424242424242" y="501.3575757575758"/>
      <point x="390.1909090909091" y="406.74242424242425" type="curve" smooth="yes"/>
      <point x="310.3333333333333" y="29.575757575757578" type="line"/>
      <point x="88.26060606060608" y="29.575757575757578" type="line"/>
      <point x="197.56060606060606" y="544.5454545454545" type="line"/>
      <point x="156.43030303030304" y="544.5454545454545" type="line"/>
    </contour>
    <contour>
      <point x="351.93030303030304" y="29.575757575757578" type="line"/>
      <point x="431.62121212121207" y="406.95454545454544" type="line" smooth="yes"/>
      <point x="448.90909090909093" y="488.3878787878788"/>
      <point x="474.3060606060606" y="520.7212121212121"/>
      <point x="529.6060606060606" y="520.7212121212121" type="curve" smooth="yes"/>
      <point x="593.260606060606" y="520.7212121212121"/>
      <point x="632.7939393939395" y="451.4"/>
      <point x="632.7939393939395" y="319.71212121212125" type="curve" smooth="yes"/>
      <point x="632.7939393939395" y="176.11212121212122"/>
      <point x="577.7787878787879" y="29.575757575757578"/>
      <point x="474.7818181818182" y="29.575757575757578" type="curve" smooth="yes"/>
    </contour>
  </outline>
</glyph>
<glyph name="ya-tamil" format="2">
  <advance width="756.4212121212122"/>
  <unicode hex="0BAF"/>
  <note>
uni0BAF
</note>
  <anchor x="332.78787878787875" y="0.0" name="bottom"/>
  <anchor x="712.1818181818182" y="544.5454545454545" name="imatra"/>
  <anchor x="333.23333333333335" y="0.0" name="nukta"/>
  <anchor x="447.78484848484845" y="544.5454545454545" name="top"/>
  <anchor x="438.61212121212117" y="544.5454545454545" name="vedic"/>
  <outline>
    <contour>
      <point x="153.0787878787879" y="-5.0" type="curve" smooth="yes"/>
      <point x="199.6878787878788" y="-5.0"/>
      <point x="234.34242424242424" y="21.706060606060603"/>
      <point x="257.1575757575758" y="54.972727272727276" type="curve"/>
      <point x="245.25757575757575" y="0.0" type="line"/>
      <point x="599.9909090909091" y="0.0" type="line"/>
      <point x="716.1151515151515" y="544.5454545454545" type="line"/>
      <point x="674.6848484848485" y="544.5454545454545" type="line"/>
      <point x="565.2969696969698" y="29.575757575757578" type="line"/>
      <point x="289.81212121212127" y="29.575757575757578" type="line"/>
      <point x="398.9636363636364" y="544.5454545454545" type="line"/>
      <point x="358.0454545454545" y="544.5454545454545" type="line"/>
      <point x="271.1575757575758" y="132.43030303030304" type="line" smooth="yes"/>
      <point x="258.8575757575758" y="74.14545454545456"/>
      <point x="216.7030303030303" y="28.424242424242426"/>
      <point x="165.60909090909092" y="28.424242424242426" type="curve" smooth="yes"/>
      <point x="115.8030303030303" y="28.424242424242426"/>
      <point x="92.30606060606061" y="70.14242424242424"/>
      <point x="107.43333333333334" y="140.5090909090909" type="curve" smooth="yes"/>
      <point x="193.76969696969695" y="544.5454545454545" type="line"/>
      <point x="153.25454545454548" y="544.5454545454545" type="line"/>
      <point x="68.10606060606062" y="145.76363636363635" type="line" smooth="yes"/>
      <point x="47.618181818181824" y="50.618181818181824"/>
      <point x="87.88484848484849" y="-5.0"/>
    </contour>
  </outline>
</glyph>
<glyph name="ra-tamil" format="2">
  <advance width="545.1121212121212"/>
  <unicode hex="0BB0"/>
  <note>
uni0BB0
</note>
  <anchor x="229.3909090909091" y="0.0" name="bottom"/>
  <anchor x="526.6424242424242" y="544.5454545454545" name="imatra"/>
  <anchor x="191.03030303030303" y="-172.21212121212122" name="nukta"/>
  <anchor x="360.3272727272727" y="544.5454545454545" name="top"/>
  <anchor x="364.8575757575758" y="544.5454545454545" name="vedic"/>
  <outline>
    <contour>
      <point x="107.32121212121213" y="-202.2090909090909" type="line"/>
      <point x="310.1848484848485" y="3.406060606060607" type="line"/>
      <point x="419.06363636363636" y="514.969696969697" type="line"/>
      <point x="571.9424242424243" y="514.969696969697" type="line"/>
      <point x="578.2151515151515" y="544.5454545454545" type="line"/>
      <point x="156.43030303030304" y="544.5454545454545" type="line"/>
      <point x="40.390909090909105" y="0.0" type="line"/>
      <point x="72.77272727272728" y="0.0" type="line"/>
      <point x="181.9242424242424" y="514.969696969697" type="line"/>
      <point x="378.0818181818182" y="514.969696969697" type="line"/>
      <point x="270.1666666666667" y="7.645454545454545" type="line"/>
      <point x="85.42121212121214" y="-180.10909090909092" type="line"/>
    </contour>
  </outline>
</glyph>
<glyph name="rra-tamil" format="2">
  <advance width="686.0181818181818"/>
  <unicode hex="0BB1"/>
  <note>
uni0BB1
</note>
  <anchor x="280.1090909090909" y="0.0" name="bottom"/>
  <anchor x="257.3030303030303" y="-145.42424242424244" name="nukta"/>
  <anchor x="390.8484848484849" y="544.5454545454545" name="top"/>
  <anchor x="404.1151515151515" y="544.5454545454545" name="vedic"/>
  <outline>
    <contour>
      <point x="40.61818181818182" y="-199.35151515151514" type="curve"/>
      <point x="49.95454545454545" y="-149.88181818181818"/>
      <point x="76.6151515151515" y="-120.1818181818182"/>
      <point x="130.4969696969697" y="-120.1818181818182" type="curve" smooth="yes"/>
      <point x="242.5545454545454" y="-120.1818181818182" type="line" smooth="yes"/>
      <point x="487.23636363636365" y="-120.1818181818182"/>
      <point x="635.7181818181817" y="82.08787878787878"/>
      <point x="635.7181818181817" y="351.5060606060606" type="curve" smooth="yes"/>
      <point x="635.7181818181817" y="484.0030303030303"/>
      <point x="573.7606060606062" y="552.6969696969697"/>
      <point x="486.20303030303035" y="552.6969696969697" type="curve" smooth="yes"/>
      <point x="415.8545454545455" y="552.6969696969697"/>
      <point x="375.91818181818184" y="507.67575757575753"/>
      <point x="353.9606060606061" y="470.5818181818182" type="curve"/>
      <point x="345.7727272727273" y="509.2060606060606"/>
      <point x="317.5212121212121" y="552.4848484848485"/>
      <point x="254.9575757575758" y="552.4848484848485" type="curve" smooth="yes"/>
      <point x="190.11212121212122" y="552.4848484848485"/>
      <point x="143.19696969696972" y="503.6818181818182"/>
      <point x="125.68484848484849" y="420.50000000000006" type="curve" smooth="yes"/>
      <point x="36.35757575757576" y="0.0" type="line"/>
      <point x="68.44242424242425" y="0.0" type="line"/>
      <point x="157.24242424242425" y="419.530303030303" type="line" smooth="yes"/>
      <point x="170.73333333333332" y="483.96060606060604"/>
      <point x="201.5818181818182" y="522.1212121212121"/>
      <point x="254.04545454545456" y="522.1212121212121" type="curve" smooth="yes"/>
      <point x="310.48484848484844" y="522.1212121212121"/>
      <point x="333.7151515151515" y="471.56969696969696"/>
      <point x="320.1545454545455" y="407.23636363636365" type="curve" smooth="yes"/>
      <point x="233.630303030303" y="0.0" type="line"/>
      <point x="274.67575757575753" y="0.0" type="line"/>
      <point x="361.6454545454545" y="408.16666666666663" type="line" smooth="yes"/>
      <point x="377.2878787878788" y="479.6757575757576"/>
      <point x="424.6242424242424" y="522.3333333333334"/>
      <point x="482.71818181818185" y="522.3333333333334" type="curve" smooth="yes"/>
      <point x="543.5030303030304" y="522.3333333333334"/>
      <point x="594.0151515151515" y="477.8575757575757"/>
      <point x="594.0151515151515" y="353.1575757575758" type="curve" smooth="yes"/>
      <point x="594.0151515151515" y="101.29999999999998"/>
      <point x="460.04242424242426" y="-89.83333333333333"/>
      <point x="240.6242424242424" y="-89.83333333333333" type="curve" smooth="yes"/>
      <point x="110.29696969696968" y="-89.83333333333333" type="line" smooth="yes"/>
      <point x="49.71212121212121" y="-89.83333333333333"/>
      <point x="1.351515151515152" y="-115.7060606060606"/>
      <point x="1.351515151515152" y="-159.44848484848484" type="curve" smooth="yes"/>
      <point x="1.351515151515152" y="-185.03333333333333"/>
      <point x="16.978787878787877" y="-199.35151515151514"/>
    </contour>
  </outline>
</glyph>
<glyph name="la-tamil" format="2">
  <advance width="816.7363636363636"/>
  <unicode hex="0BB2"/>
  <note>
uni0BB2
</note>
  <anchor x="356.5060606060606" y="0.0" name="bottom"/>
  <anchor x="356.5060606060606" y="0.0" name="nukta"/>
  <anchor x="480.96666666666664" y="544.5454545454545" name="top"/>
  <anchor x="467.0121212121212" y="544.5454545454545" name="vedic"/>
  <outline>
    <contour>
      <point x="173.87878787878788" y="-4.212121212121212" type="curve" smooth="yes"/>
      <point x="252.54545454545453" y="-4.212121212121212"/>
      <point x="317.6333333333334" y="62.7"/>
      <point x="317.6333333333334" y="164.03636363636363" type="curve" smooth="yes"/>
      <point x="317.6333333333334" y="242.06666666666666"/>
      <point x="273.26363636363635" y="287.24242424242425"/>
      <point x="210.3090909090909" y="287.24242424242425" type="curve" smooth="yes"/>
      <point x="136.71515151515152" y="287.24242424242425"/>
      <point x="84.27575757575758" y="227.9818181818182"/>
      <point x="55.90909090909091" y="158.26363636363635" type="curve"/>
      <point x="66.88787878787879" y="130.48484848484847" type="line"/>
      <point x="99.23939393939393" y="202.82727272727274"/>
      <point x="139.4030303030303" y="253.33333333333334"/>
      <point x="199.63939393939395" y="253.33333333333334" type="curve" smooth="yes"/>
      <point x="249.48787878787883" y="253.33333333333334"/>
      <point x="276.58484848484846" y="220.8909090909091"/>
      <point x="276.58484848484846" y="158.62121212121212" type="curve" smooth="yes"/>
      <point x="276.58484848484846" y="82.09696969696971"/>
      <point x="230.55757575757576" y="26.93939393939394"/>
      <point x="172.97272727272724" y="26.93939393939394" type="curve" smooth="yes"/>
      <point x="110.32121212121213" y="26.93939393939394"/>
      <point x="69.92121212121212" y="80.38484848484848"/>
      <point x="69.92121212121212" y="177.36060606060607" type="curve" smooth="yes"/>
      <point x="69.92121212121212" y="340.72424242424245"/>
      <point x="174.2969696969697" y="522.3333333333334"/>
      <point x="340.5212121212121" y="522.3333333333334" type="curve" smooth="yes"/>
      <point x="450.8636363636363" y="522.3333333333334"/>
      <point x="489.8333333333333" y="440.8939393939394"/>
      <point x="464.8030303030303" y="328.77272727272725" type="curve" smooth="yes"/>
      <point x="425.68787878787884" y="154.55757575757576" type="line" smooth="yes"/>
      <point x="405.74848484848485" y="65.01515151515153"/>
      <point x="433.66969696969693" y="-3.1515151515151514"/>
      <point x="522.0727272727272" y="-3.1515151515151514" type="curve" smooth="yes"/>
      <point x="659.6393939393939" y="-3.1515151515151514"/>
      <point x="772.7242424242424" y="159.4121212121212"/>
      <point x="772.7242424242424" y="360.52727272727276" type="curve" smooth="yes"/>
      <point x="772.7242424242424" y="437.6848484848485"/>
      <point x="756.2909090909092" y="492.3030303030303"/>
      <point x="728.3181818181819" y="549.6090909090908" type="curve"/>
      <point x="695.6575757575757" y="532.9060606060606" type="line"/>
      <point x="719.6484848484848" y="484.8757575757576"/>
      <point x="739.1" y="425.56969696969696"/>
      <point x="739.1" y="357.23636363636365" type="curve" smooth="yes"/>
      <point x="739.1" y="184.86363636363635"/>
      <point x="641.6212121212121" y="28.272727272727273"/>
      <point x="529.6272727272727" y="28.272727272727273" type="curve" smooth="yes"/>
      <point x="463.6181818181818" y="28.272727272727273"/>
      <point x="451.4242424242424" y="80.37878787878789"/>
      <point x="467.28484848484845" y="152.76969696969695" type="curve" smooth="yes"/>
      <point x="505.23333333333335" y="326.11515151515147" type="line" smooth="yes"/>
      <point x="534.7272727272727" y="460.7848484848485"/>
      <point x="478.239393939394" y="552.6969696969697"/>
      <point x="345.0" y="552.6969696969697" type="curve" smooth="yes"/>
      <point x="156.68181818181822" y="552.6969696969697"/>
      <point x="37.93636363636364" y="360.6545454545454"/>
      <point x="37.93636363636364" y="175.86969696969697" type="curve" smooth="yes"/>
      <point x="37.93636363636364" y="62.13939393939395"/>
      <point x="91.08181818181818" y="-4.212121212121212"/>
    </contour>
  </outline>
</glyph>
<glyph name="lla-tamil" format="2">
  <advance width="967.3666666666668"/>
  <unicode hex="0BB3"/>
  <note>
uni0BB3
</note>
  <anchor x="436.70000000000005" y="0.0" name="bottom"/>
  <anchor x="948.9363636363635" y="544.5454545454545" name="imatra"/>
  <anchor x="437.20606060606065" y="0.0" name="nukta"/>
  <anchor x="579.790909090909" y="544.5454545454545" name="top"/>
  <anchor x="560.060606060606" y="544.5454545454545" name="vedic"/>
  <outline>
    <contour>
      <point x="174.72727272727272" y="-4.212121212121212" type="curve" smooth="yes"/>
      <point x="253.39393939393938" y="-4.212121212121212"/>
      <point x="318.4818181818182" y="62.7"/>
      <point x="318.4818181818182" y="164.03636363636363" type="curve" smooth="yes"/>
      <point x="318.4818181818182" y="242.06666666666666"/>
      <point x="274.1121212121212" y="287.24242424242425"/>
      <point x="211.15757575757576" y="287.24242424242425" type="curve" smooth="yes"/>
      <point x="137.56363636363636" y="287.24242424242425"/>
      <point x="85.12424242424242" y="227.9818181818182"/>
      <point x="56.75757575757576" y="158.26363636363635" type="curve"/>
      <point x="67.73636363636363" y="130.48484848484847" type="line"/>
      <point x="100.0878787878788" y="202.82727272727274"/>
      <point x="140.25151515151515" y="253.33333333333334"/>
      <point x="200.4878787878788" y="253.33333333333334" type="curve" smooth="yes"/>
      <point x="250.33636363636367" y="253.33333333333334"/>
      <point x="277.4333333333333" y="220.8909090909091"/>
      <point x="277.4333333333333" y="158.62121212121212" type="curve" smooth="yes"/>
      <point x="277.4333333333333" y="82.09696969696971"/>
      <point x="231.4060606060606" y="26.93939393939394"/>
      <point x="173.8212121212121" y="26.93939393939394" type="curve" smooth="yes"/>
      <point x="111.16969696969697" y="26.93939393939394"/>
      <point x="70.76969696969698" y="80.38484848484848"/>
      <point x="70.76969696969698" y="177.36060606060607" type="curve" smooth="yes"/>
      <point x="70.76969696969698" y="340.92727272727274"/>
      <point x="171.46060606060607" y="522.3333333333334"/>
      <point x="337.6484848484848" y="522.3333333333334" type="curve" smooth="yes"/>
      <point x="454.60909090909087" y="522.3333333333334"/>
      <point x="536.0393939393939" y="438.7727272727273"/>
      <point x="504.5454545454545" y="286.1818181818182" type="curve"/>
      <point x="534.1" y="287.9666666666667" type="line"/>
      <point x="568.0848484848484" y="456.7121212121212"/>
      <point x="479.2969696969697" y="552.6969696969697"/>
      <point x="339.7939393939394" y="552.6969696969697" type="curve" smooth="yes"/>
      <point x="152.2121212121212" y="552.6969696969697"/>
      <point x="38.784848484848496" y="360.8575757575757"/>
      <point x="38.784848484848496" y="175.86969696969697" type="curve" smooth="yes"/>
      <point x="38.784848484848496" y="62.13939393939395"/>
      <point x="91.93030303030302" y="-4.212121212121212"/>
    </contour>
    <contour>
      <point x="443.3060606060606" y="0.0" type="line"/>
      <point x="484.2030303030303" y="0.0" type="line"/>
      <point x="593.969696969697" y="514.969696969697" type="line"/>
      <point x="801.5878787878788" y="514.969696969697" type="line"/>
      <point x="691.6484848484848" y="0.0" type="line"/>
      <point x="733.269696969697" y="0.0" type="line"/>
      <point x="842.569696969697" y="514.969696969697" type="line"/>
      <point x="994.1969696969696" y="514.969696969697" type="line"/>
      <point x="1000.6181818181817" y="544.5454545454545" type="line"/>
      <point x="562.3363636363637" y="544.5454545454545" type="line"/>
      <point x="527.6969696969697" y="382.31212121212127" type="line"/>
      <point x="520.0030303030303" y="360.7666666666667" type="line"/>
    </contour>
  </outline>
</glyph>
<glyph name="llla-tamil" format="2">
  <advance width="722.3242424242425"/>
  <unicode hex="0BB4"/>
  <note>
uni0BB4
</note>
  <anchor x="303.01515151515156" y="0.0" name="bottom"/>
  <anchor x="253.5121212121212" y="-262.09393939393937" name="nukta"/>
  <anchor x="452.22121212121215" y="544.5454545454545" name="top"/>
  <anchor x="440.8696969696969" y="544.5454545454545" name="vedic"/>
  <anchor x="705.8060606060606" y="544.5454545454545" name="imatra"/>
  <outline>
    <contour>
      <point x="157.1060606060606" y="-291.6272727272727" type="curve" smooth="yes"/>
      <point x="284.1939393939394" y="-291.6272727272727"/>
      <point x="343.44242424242424" y="-138.08181818181816"/>
      <point x="478.7454545454545" y="-138.08181818181816" type="curve" smooth="yes"/>
      <point x="520.569696969697" y="-138.08181818181816" type="line"/>
      <point x="527.0545454545454" y="-108.65454545454547" type="line"/>
      <point x="476.82121212121217" y="-108.65454545454547" type="line" smooth="yes"/>
      <point x="398.50606060606066" y="-108.65454545454547"/>
      <point x="331.2575757575758" y="-66.2060606060606"/>
      <point x="347.01818181818174" y="6.9303030303030315" type="curve" smooth="yes"/>
      <point x="357.77878787878785" y="57.3939393939394" type="line"/>
      <point x="316.71515151515155" y="57.3939393939394" type="line"/>
      <point x="306.269696969697" y="6.9303030303030315" type="line" smooth="yes"/>
      <point x="292.2909090909091" y="-58.79696969696969"/>
      <point x="344.6060606060606" y="-108.83030303030303"/>
      <point x="412.46060606060604" y="-121.20000000000002" type="curve"/>
      <point x="411.46060606060604" y="-126.05151515151515" type="line"/>
      <point x="294.8545454545455" y="-148.07272727272726"/>
      <point x="251.59090909090915" y="-257.56363636363636"/>
      <point x="151.34545454545454" y="-257.56363636363636" type="curve" smooth="yes"/>
      <point x="104.83030303030303" y="-257.56363636363636"/>
      <point x="76.00606060606061" y="-224.83636363636364"/>
      <point x="76.00606060606061" y="-180.83333333333331" type="curve" smooth="yes"/>
      <point x="76.00606060606061" y="-133.12121212121212"/>
      <point x="107.2030303030303" y="-97.43333333333334"/>
      <point x="155.15454545454546" y="-97.43333333333334" type="curve" smooth="yes"/>
      <point x="185.98484848484847" y="-97.43333333333334"/>
      <point x="209.6878787878788" y="-112.29090909090908"/>
      <point x="231.9151515151515" y="-135.11818181818185" type="curve"/>
      <point x="255.0333333333333" y="-111.66666666666667" type="line"/>
      <point x="226.19090909090906" y="-80.66969696969699"/>
      <point x="192.0" y="-67.51515151515152"/>
      <point x="156.33939393939394" y="-67.51515151515152" type="curve" smooth="yes"/>
      <point x="90.4818181818182" y="-67.51515151515152"/>
      <point x="43.33939393939394" y="-119.0060606060606"/>
      <point x="43.33939393939394" y="-186.3212121212121" type="curve" smooth="yes"/>
      <point x="43.33939393939394" y="-246.35454545454547"/>
      <point x="89.64545454545454" y="-291.6272727272727"/>
    </contour>
    <component base="ma-tamil"/>
  </outline>
</glyph>
<glyph name="va-tamil" format="2">
  <advance width="913.0454545454546"/>
  <unicode hex="0BB5"/>
  <note>
uni0BB5
</note>
  <anchor x="410.2303030303031" y="0.0" name="bottom"/>
  <anchor x="840.0939393939393" y="544.5454545454545" name="imatra"/>
  <anchor x="410.2303030303031" y="0.0" name="nukta"/>
  <anchor x="509.57575757575756" y="544.5454545454545" name="top"/>
  <anchor x="501.65151515151507" y="544.5454545454545" name="vedic"/>
  <outline>
    <contour>
      <point x="173.130303030303" y="-4.212121212121212" type="curve" smooth="yes"/>
      <point x="251.79696969696965" y="-4.212121212121212"/>
      <point x="316.88484848484853" y="62.7"/>
      <point x="316.88484848484853" y="164.03636363636363" type="curve" smooth="yes"/>
      <point x="316.88484848484853" y="242.06666666666666"/>
      <point x="272.5151515151515" y="287.24242424242425"/>
      <point x="209.56060606060606" y="287.24242424242425" type="curve" smooth="yes"/>
      <point x="135.96666666666667" y="287.24242424242425"/>
      <point x="83.52727272727273" y="227.9818181818182"/>
      <point x="55.16060606060606" y="158.26363636363635" type="curve"/>
      <point x="66.13939393939394" y="130.48484848484847" type="line"/>
      <point x="98.4909090909091" y="202.82727272727274"/>
      <point x="138.65454545454546" y="253.33333333333334"/>
      <point x="198.89090909090908" y="253.33333333333334" type="curve" smooth="yes"/>
      <point x="248.73939393939398" y="253.33333333333334"/>
      <point x="275.8363636363636" y="220.8909090909091"/>
      <point x="275.8363636363636" y="158.62121212121212" type="curve" smooth="yes"/>
      <point x="275.8363636363636" y="82.09696969696971"/>
      <point x="229.80909090909088" y="26.93939393939394"/>
      <point x="172.22424242424242" y="26.93939393939394" type="curve" smooth="yes"/>
      <point x="109.57272727272726" y="26.93939393939394"/>
      <point x="69.17272727272727" y="80.38484848484848"/>
      <point x="69.17272727272727" y="177.36060606060607" type="curve" smooth="yes"/>
      <point x="69.17272727272727" y="340.0878787878788"/>
      <point x="188.3151515151515" y="522.8848484848485"/>
      <point x="356.9909090909091" y="522.8848484848485" type="curve" smooth="yes"/>
      <point x="471.03030303030306" y="522.8848484848485"/>
      <point x="541.6060606060606" y="452.17272727272723"/>
      <point x="541.6060606060606" y="325.26666666666665" type="curve" smooth="yes"/>
      <point x="541.6060606060606" y="210.8181818181818"/>
      <point x="484.52424242424235" y="108.71818181818182"/>
      <point x="406.6454545454546" y="23.645454545454548" type="curve"/>
      <point x="416.3787878787879" y="0.0" type="line"/>
      <point x="756.6151515151515" y="0.0" type="line"/>
      <point x="872.8030303030303" y="544.5454545454545" type="line"/>
      <point x="831.2060606060606" y="544.5454545454545" type="line"/>
      <point x="721.7545454545456" y="29.575757575757578" type="line"/>
      <point x="450.81818181818187" y="29.575757575757578" type="line"/>
      <point x="525.1909090909091" y="110.35454545454544"/>
      <point x="583.7969696969697" y="207.75151515151515"/>
      <point x="583.7969696969697" y="329.58181818181816" type="curve" smooth="yes"/>
      <point x="583.7969696969697" y="473.8181818181818"/>
      <point x="493.77575757575755" y="553.2484848484848"/>
      <point x="361.4272727272728" y="553.2484848484848" type="curve" smooth="yes"/>
      <point x="170.14848484848486" y="553.2484848484848"/>
      <point x="37.187878787878795" y="359.7"/>
      <point x="37.187878787878795" y="175.86969696969697" type="curve" smooth="yes"/>
      <point x="37.187878787878795" y="62.13939393939395"/>
      <point x="90.33333333333333" y="-4.212121212121212"/>
    </contour>
  </outline>
</glyph>
<glyph name="sha-tamil" format="2">
  <advance width="895.7666666666665"/>
  <unicode hex="0BB6"/>
  <note>
uni0BB6
</note>
  <anchor x="404.26060606060605" y="0.0" name="bottom"/>
  <anchor x="755.3909090909091" y="544.5454545454545" name="imatra"/>
  <anchor x="404.26060606060605" y="0.0" name="nukta"/>
  <anchor x="521.8363636363636" y="544.5454545454545" name="top"/>
  <anchor x="526.8" y="544.5454545454545" name="vedic"/>
  <outline>
    <contour>
      <point x="197.01818181818183" y="-8.151515151515152" type="curve" smooth="yes"/>
      <point x="276.39696969696973" y="-8.151515151515152"/>
      <point x="344.4151515151515" y="32.448484848484846"/>
      <point x="371.82727272727277" y="161.5878787878788" type="curve" smooth="yes"/>
      <point x="446.95151515151514" y="514.969696969697" type="line"/>
      <point x="580.8666666666667" y="514.969696969697" type="line"/>
      <point x="504.62424242424254" y="159.55454545454546" type="line" smooth="yes"/>
      <point x="483.21212121212125" y="60.13333333333333"/>
      <point x="508.69393939393944" y="-8.151515151515152"/>
      <point x="593.0727272727273" y="-8.151515151515152" type="curve" smooth="yes"/>
      <point x="749.8121212121212" y="-8.151515151515152"/>
      <point x="864.4939393939393" y="247.77878787878788"/>
      <point x="864.4939393939393" y="424.1181818181818" type="curve" smooth="yes"/>
      <point x="864.4939393939393" y="506.02121212121216"/>
      <point x="829.6424242424242" y="544.5454545454545"/>
      <point x="758.0060606060606" y="544.5454545454545" type="curve" smooth="yes"/>
      <point x="420.9454545454546" y="544.5454545454545" type="line"/>
      <point x="339.2969696969697" y="163.3848484848485" type="line" smooth="yes"/>
      <point x="316.1151515151515" y="54.92727272727274"/>
      <point x="261.3818181818182" y="23.272727272727273"/>
      <point x="201.3030303030303" y="23.272727272727273" type="curve" smooth="yes"/>
      <point x="121.43030303030302" y="23.272727272727273"/>
      <point x="98.04848484848486" y="90.84848484848484"/>
      <point x="117.42121212121212" y="180.66363636363636" type="curve" smooth="yes"/>
      <point x="195.14848484848486" y="544.5454545454545" type="line"/>
      <point x="153.8060606060606" y="544.5454545454545" type="line"/>
      <point x="75.86666666666667" y="181.10909090909092" type="line" smooth="yes"/>
      <point x="52.94242424242425" y="77.24242424242425"/>
      <point x="90.95454545454547" y="-8.151515151515152"/>
    </contour>
    <contour>
      <point x="598.6121212121212" y="23.272727272727273" type="curve" smooth="yes"/>
      <point x="536.2454545454545" y="23.272727272727273"/>
      <point x="528.7181818181817" y="81.11212121212121"/>
      <point x="545.5818181818182" y="158.14242424242423" type="curve" smooth="yes"/>
      <point x="621.739393939394" y="514.969696969697" type="line"/>
      <point x="749.7545454545456" y="514.969696969697" type="line" smooth="yes"/>
      <point x="805.769696969697" y="514.969696969697"/>
      <point x="831.9363636363637" y="487.89393939393943"/>
      <point x="831.9363636363637" y="423.05757575757576" type="curve" smooth="yes"/>
      <point x="831.9363636363637" y="273.1030303030303"/>
      <point x="726.4727272727273" y="23.272727272727273"/>
    </contour>
  </outline>
</glyph>
<glyph name="sa-tamil" format="2">
  <advance width="1027.8454545454547"/>
  <unicode hex="0BB8"/>
  <note>
uni0BB8
</note>
  <anchor x="467.5878787878788" y="0.0" name="bottom"/>
  <anchor x="467.5878787878788" y="0.0" name="nukta"/>
  <anchor x="574.2272727272726" y="544.5454545454545" name="top"/>
  <anchor x="570.6030303030304" y="544.5454545454545" name="vedic"/>
  <outline>
    <contour>
      <point x="405.8424242424243" y="0.0" type="line"/>
      <point x="446.6515151515151" y="0.0" type="line"/>
      <point x="538.0212121212121" y="429.2060606060606" type="line" smooth="yes"/>
      <point x="550.8181818181818" y="488.6787878787879"/>
      <point x="582.9363636363636" y="522.1212121212121"/>
      <point x="631.2606060606062" y="522.1212121212121" type="curve" smooth="yes"/>
      <point x="683.4151515151516" y="522.1212121212121"/>
      <point x="706.930303030303" y="480.1090909090909"/>
      <point x="693.3121212121213" y="416.55454545454546" type="curve" smooth="yes"/>
      <point x="636.7969696969698" y="154.0060606060606" type="line" smooth="yes"/>
      <point x="617.4727272727274" y="64.46363636363637"/>
      <point x="644.7787878787879" y="-3.1515151515151514"/>
      <point x="733.1818181818181" y="-3.1515151515151514" type="curve" smooth="yes"/>
      <point x="870.7484848484848" y="-3.1515151515151514"/>
      <point x="983.8333333333334" y="159.4121212121212"/>
      <point x="983.8333333333334" y="360.52727272727276" type="curve" smooth="yes"/>
      <point x="983.8333333333334" y="437.6848484848485"/>
      <point x="967.7181818181818" y="492.1757575757576"/>
      <point x="939.8727272727273" y="549.5454545454545" type="curve"/>
      <point x="907.0848484848485" y="532.969696969697" type="line"/>
      <point x="931.0121212121213" y="484.8757575757576"/>
      <point x="950.209090909091" y="425.56969696969696"/>
      <point x="950.209090909091" y="357.23636363636365" type="curve" smooth="yes"/>
      <point x="950.209090909091" y="184.86363636363635"/>
      <point x="852.7303030303029" y="28.272727272727273"/>
      <point x="740.7363636363636" y="28.272727272727273" type="curve" smooth="yes"/>
      <point x="674.7272727272727" y="28.272727272727273"/>
      <point x="662.5333333333334" y="80.31515151515151"/>
      <point x="678.3939393939395" y="152.76969696969695" type="curve" smooth="yes"/>
      <point x="733.3363636363636" y="410.47272727272724" type="line" smooth="yes"/>
      <point x="750.4666666666667" y="490.93030303030304"/>
      <point x="714.2272727272726" y="552.6969696969697"/>
      <point x="636.9939393939394" y="552.6969696969697" type="curve" smooth="yes"/>
      <point x="570.9696969696969" y="552.6969696969697"/>
      <point x="523.930303030303" y="501.57878787878786"/>
      <point x="509.5848484848484" y="435.3545454545454" type="curve" smooth="yes"/>
      <point x="496.9575757575757" y="376.44242424242424" type="line"/>
      <point x="485.49696969696976" y="376.44242424242424" type="line"/>
    </contour>
    <contour>
      <point x="172.83939393939394" y="-4.212121212121212" type="curve" smooth="yes"/>
      <point x="251.50606060606063" y="-4.212121212121212"/>
      <point x="317.6969696969697" y="62.7"/>
      <point x="317.6969696969697" y="164.03636363636363" type="curve" smooth="yes"/>
      <point x="317.6969696969697" y="242.06666666666666"/>
      <point x="273.32727272727277" y="287.24242424242425"/>
      <point x="210.37272727272727" y="287.24242424242425" type="curve" smooth="yes"/>
      <point x="136.77878787878788" y="287.24242424242425"/>
      <point x="84.33939393939394" y="227.9818181818182"/>
      <point x="55.972727272727276" y="158.26363636363635" type="curve"/>
      <point x="66.95151515151517" y="130.48484848484847" type="line"/>
      <point x="99.3030303030303" y="202.82727272727274"/>
      <point x="139.46666666666664" y="253.33333333333334"/>
      <point x="199.70303030303032" y="253.33333333333334" type="curve" smooth="yes"/>
      <point x="249.55151515151513" y="253.33333333333334"/>
      <point x="276.6484848484848" y="220.8909090909091"/>
      <point x="276.6484848484848" y="158.62121212121212" type="curve" smooth="yes"/>
      <point x="276.6484848484848" y="82.09696969696971"/>
      <point x="229.51818181818186" y="26.93939393939394"/>
      <point x="171.93333333333334" y="26.93939393939394" type="curve" smooth="yes"/>
      <point x="109.28181818181818" y="26.93939393939394"/>
      <point x="69.98484848484848" y="80.38484848484848"/>
      <point x="69.98484848484848" y="177.36060606060607" type="curve" smooth="yes"/>
      <point x="69.98484848484848" y="340.0151515151515"/>
      <point x="173.0151515151515" y="522.3333333333334"/>
      <point x="339.7121212121212" y="522.3333333333334" type="curve" smooth="yes"/>
      <point x="442.8545454545455" y="522.3333333333334"/>
      <point x="502.07272727272726" y="455.0121212121212"/>
      <point x="476.31212121212116" y="331.339393939394" type="curve"/>
      <point x="507.3818181818182" y="331.3757575757576" type="line"/>
      <point x="535.6818181818182" y="471.45454545454544"/>
      <point x="466.2393939393939" y="552.6969696969697"/>
      <point x="344.1909090909091" y="552.6969696969697" type="curve" smooth="yes"/>
      <point x="155.4" y="552.6969696969697"/>
      <point x="38.00000000000001" y="359.94545454545454"/>
      <point x="38.00000000000001" y="175.86969696969697" type="curve" smooth="yes"/>
      <point x="38.00000000000001" y="62.13939393939395"/>
      <point x="90.04242424242425" y="-4.212121212121212"/>
    </contour>
  </outline>
</glyph>
